<svg
   xmlns:dc="http://purl.org/dc/elements/1.1/"
   xmlns:cc="http://creativecommons.org/ns#"
   xmlns:rdf="http://www.w3.org/1999/02/22-rdf-syntax-ns#"
   xmlns:svg="http://www.w3.org/2000/svg"
   xmlns="http://www.w3.org/2000/svg"
   id="svg40"
   version="1.1"
   viewBox="0 0 380 280">
  <metadata
     id="metadata46">
    <rdf:RDF>
      <cc:Work
         rdf:about="">
        <dc:format>image/svg+xml</dc:format>
        <dc:type
           rdf:resource="http://purl.org/dc/dcmitype/StillImage" />
      </cc:Work>
    </rdf:RDF>
  </metadata>
  <defs
     id="defs44" />
  <svg
     height="100%"
     width="100%"
     id="svg9"
     version="1.1"
     viewBox="0 0 380 280">
    <linearGradient
       y2="0"
       x2="1"
       y1="0"
       x1="0"
       id="bg_color_gradient">
      <stop
         id="stop2"
         style="stop-color:#2F2F2F;stop-opacity:1"
         offset="0%" />
      <stop
         id="stop4"
         style="stop-color:#2F2F2F;stop-opacity:1"
         offset="100%" />
    </linearGradient>
    <path
       id="rect7"
       d="M 0,0 H 380 V 280 H 0 Z"
       style="fill:url(#bg_color_gradient);fill-opacity:1" />
  </svg>
  <svg
     id="svg15"
     version="1.1"
     height="36.266666"
     width="64"
     y="113.86667"
     x="66.825287">
    <svg
       height="100%"
       width="100%"
       id="svg13"
       version="1.1"
       viewBox="0 0 810 459">
      <path
         style="fill:#ffffff;fill-rule:evenodd;stroke:none"
         id="path11"
         d="m 328.274,12.093 c -9.929,4.915 -11.951,17.982 -3.978,25.709 1.833,1.777 4.877,3.674 6.762,4.215 1.886,0.541 10.969,0.983 20.185,0.983 H 368 v 25.344 25.343 l -16.075,0.663 c -17.156,0.707 -54.054,3.747 -75.425,6.214 -25.395,2.931 -47.918,8.58 -61.45,15.411 -7.131,3.599 -16.877,12.806 -19.965,18.858 -8.605,16.868 -8.19,44.098 1.343,88.167 1.963,9.075 3.57,16.996 3.571,17.603 0.001,0.726 -4.876,1.301 -14.249,1.682 -24.144,0.982 -36.748,4.062 -49.063,11.99 -5.15,3.315 -8.847,7.078 -17.176,17.475 -5.838,7.288 -10.884,13.25 -11.214,13.25 -0.33,0 -15.719,2.013 -34.198,4.473 -34.726,4.622 -61.788,8.882 -62.789,9.884 -1.572,1.571 41.203,45.717 63.19,65.215 22.68,20.112 48.182,40.454 79.837,63.68 l 23.837,17.491 26.163,0.674 c 138.883,3.581 284.909,3.168 315.163,-0.89 29.472,-3.954 51.243,-10.443 89,-26.526 25.68,-10.939 26.632,-11.513 47.989,-28.923 60.621,-49.417 99.103,-90.832 128.81,-138.63 7.256,-11.675 13.701,-23.546 13.701,-25.237 0,-1.066 -12.147,-3.932 -22,-5.191 -4.125,-0.527 -18.357,-0.972 -31.628,-0.989 -20.288,-0.026 -24.327,-0.272 -25.382,-1.543 -0.691,-0.832 -6.934,-5.721 -13.874,-10.864 C 629.276,150.679 542.418,114.551 447.5,100.054 437.338,98.502 405.816,95.022 401.75,95.003 401.337,95.002 401,83.3 401,69 V 43 l 16.75,-0.006 c 9.212,-0.003 18.393,-0.462 20.402,-1.019 4.675,-1.299 10.518,-7.7 11.421,-12.512 1.441,-7.679 -4.549,-17.408 -11.583,-18.815 -1.782,-0.356 -26.246,-0.648 -54.365,-0.647 -49.857,0.001 -51.23,0.052 -55.351,2.092 m -20.261,97.038 c -17.92,4.809 -33.312,17.201 -40.826,32.869 -7.921,16.516 -10.859,33.819 -7.811,46 6.292,25.15 30.354,53.612 76.624,90.636 17.33,13.867 43.459,33.364 44.712,33.364 1.493,0 39.985,-28.98 53.428,-40.224 44.263,-37.023 65.901,-65.243 68.624,-89.497 1.569,-13.976 -1.839,-30.014 -8.943,-42.095 -1.827,-3.106 -6.921,-9.273 -11.321,-13.706 -6.298,-6.344 -9.809,-8.947 -16.5,-12.236 -12.202,-5.997 -19.864,-7.549 -34.5,-6.989 -18.578,0.712 -30.706,5.736 -44.372,18.38 l -6.628,6.133 -7.05,-6.633 c -13.242,-12.459 -28.241,-18.182 -47.36,-18.072 -7.29,0.041 -12.923,0.686 -18.077,2.07" />
    </svg>
  </svg>
  <g
     transform="translate(225,140)"
     id="container">
    <g
       id="text17"
       style="font-size:22.27272797px;font-family:'IdeaFonts JiangHuZhaoPaiHei';fill:#ffffff;fill-opacity:1"
       aria-label="p">
      <path
         id="path49"
         style="font-size:22.27272797px;font-family:'IdeaFonts JiangHuZhaoPaiHei';fill:#ffffff;fill-opacity:1"
         d="m -73.006985,-2.9400001 q 0.445454,1.4254546 0.445454,3.11818192 0,1.69272728 -0.445454,3.11818188 -0.400909,1.2472728 -1.336364,2.2495456 -0.957727,0.8909091 -2.227273,1.2695455 -1.225,0.2895454 -2.271818,0.2895454 -0.757273,0 -1.514546,-0.2227273 -0.735,-0.2227272 -1.380909,-0.6236363 v 5.1450004 h -1.158182 V 9.7554548 h -0.400909 v 1.6481822 h -1.225 V 9.7554548 h -0.467727 v 1.6481822 h -1.158182 V -5.7686365 l -0.757273,-0.4009091 1.135909,-1.2027274 4.07591,0.9577273 v 0.5345455 q 1.336363,-0.8909091 2.917727,-0.8909091 1.046818,0 2.271818,0.2895455 1.247273,0.4231818 2.160455,1.2918182 0.935455,1.0022727 1.336364,2.2495455 z m -8.686364,5.6572729 q 0.98,0.6236364 2.227273,0.6236364 0.512272,0 0.98,-0.2004546 0.467727,-0.2227272 0.779545,-0.6013636 0.356364,-0.49 0.512273,-1.0468182 0.178182,-0.66818187 0.178182,-1.31409098 0,-0.75727275 -0.178182,-1.31409092 -0.133637,-0.5568182 -0.512273,-1.0468182 -0.311818,-0.3786364 -0.779545,-0.579091 -0.467728,-0.2227272 -0.98,-0.2227272 -1.247273,0 -2.227273,0.735 z" />
    </g>
    <g
       id="text19"
       style="font-size:22.27272797px;font-family:'IdeaFonts JiangHuZhaoPaiHei';fill:#ffffff;fill-opacity:1"
       aria-label="o">
      <path
         id="path52"
         style="font-size:22.27272797px;font-family:'IdeaFonts JiangHuZhaoPaiHei';fill:#ffffff;fill-opacity:1"
         d="m -62.496532,-6.7709093 q 2.227272,0 3.808636,0.9577273 1.581364,0.9354546 2.383182,2.5168183 0.824091,1.5590909 0.824091,3.40772734 0,1.82636366 -0.824091,3.43000006 -0.824091,1.6036365 -2.427727,2.5836365 -1.581364,1.0022727 -3.764091,1.0022727 -2.182728,0 -3.786364,-1.0022727 -1.581364,-0.98 -2.405455,-2.5836365 -0.824091,-1.6036364 -0.824091,-3.43000006 0,-1.82636374 0.801818,-3.38545464 0.824091,-1.5813637 2.405455,-2.539091 1.581364,-0.9577273 3.808637,-0.9577273 z m 0,10.1118185 q 1.113636,0 1.826363,-0.8018182 0.735,-0.8240909 0.735,-2.42772736 0,-1.58136364 -0.757272,-2.33863644 -0.735001,-0.7572727 -1.804091,-0.7572727 -1.069091,0 -1.826364,0.7795454 -0.735,0.7572728 -0.735,2.31636374 0,1.60363646 0.735,2.42772736 0.735,0.8018182 1.826364,0.8018182 z" />
    </g>
    <g
       id="text21"
       style="font-size:22.27272797px;font-family:'IdeaFonts JiangHuZhaoPaiHei';fill:#ffffff;fill-opacity:1"
       aria-label="l">
      <path
         id="path55"
         style="font-size:22.27272797px;font-family:'IdeaFonts JiangHuZhaoPaiHei';fill:#ffffff;fill-opacity:1"
         d="m -50.098465,4.8777274 v 1.8486364 h -1.113637 V -9.5995458 l -0.98,-0.4677272 1.180455,-1.403182 4.098182,1.113636 V 6.7263638 h -1.135909 V 4.8777274 h -0.445455 v 1.8486364 h -1.202727 V 4.8777274 Z" />
    </g>
    <g
       id="text23"
       style="font-size:22.27272797px;font-family:'IdeaFonts JiangHuZhaoPaiHei';fill:#ffffff;fill-opacity:1"
       aria-label="y">
      <path
         id="path58"
         style="font-size:22.27272797px;font-family:'IdeaFonts JiangHuZhaoPaiHei';fill:#ffffff;fill-opacity:1"
         d="m -44.137215,-6.8377275 4.187273,0.4231818 3.162727,7.28318209 2.628182,-6.48136379 -0.890909,-0.6681819 1.002273,-1.0468182 4.877727,1.0690909 -6.726364,15.9250005 q -0.222727,0.5122731 -0.623636,0.9354551 -0.378637,0.445454 -0.868637,0.712727 -0.556818,0.289545 -1.113636,0.378636 -0.49,0.08909 -1.492273,0.08909 -1.180454,0 -2.316364,-0.267273 V 7.7286366 q 0.690455,0.2227273 1.492273,0.2227273 0.534546,0 0.98,-0.1559091 0.334091,-0.1336364 0.512273,-0.4454546 l 0.400909,-1.0468182 -5.145,-11.6040913 -0.712727,-0.3563636 z" />
    </g>
    <g
       id="text25"
       style="font-size:22.27272797px;font-family:'IdeaFonts JiangHuZhaoPaiHei';fill:#ffffff;fill-opacity:1"
       aria-label="h">
      <path
         id="path61"
         style="font-size:22.27272797px;font-family:'IdeaFonts JiangHuZhaoPaiHei';fill:#ffffff;fill-opacity:1"
         d="m -17.364886,-6.793182 q 1.826364,0 3.006819,1.2027273 1.202727,1.2027273 1.180454,3.8086365 v 8.508182 H -14.38034 V 4.6327274 h -0.49 v 2.0936364 h -1.202727 V 4.6327274 h -0.40091 v 2.0936364 h -1.158181 v -7.61727292 q 0.02227,-1.24727278 -0.49,-1.80409098 -0.49,-0.5790909 -1.291819,-0.5790909 -0.556818,0 -1.158182,0.245 -0.601363,0.2227273 -1.135909,0.6013637 v 9.1540911 h -1.158181 V 4.6327274 h -0.467728 v 2.0936364 h -1.202727 V 4.6327274 h -0.400909 v 2.0936364 h -1.158182 V -9.7554548 l -0.779546,-0.3786362 1.002273,-1.425455 4.165,1.069091 v 5.2563639 q 0.801819,-0.6681818 1.982273,-1.1136364 1.180455,-0.4454545 2.360909,-0.4454545 z" />
    </g>
    <g
       id="text27"
       style="font-size:22.27272797px;font-family:'IdeaFonts JiangHuZhaoPaiHei';fill:#ffffff;fill-opacity:1"
       aria-label="e">
      <path
         id="path64"
         style="font-size:22.27272797px;font-family:'IdeaFonts JiangHuZhaoPaiHei';fill:#ffffff;fill-opacity:1"
         d="m -3.0374427,-6.7709093 q 2.27181827,0 3.78636377,0.9354546 1.53681823,0.9131818 2.27181823,2.4722728 0.735,1.5590909 0.735,3.49681827 V 1.8709091 h -9.1318184 q 0,0.4009092 0.3118182,0.8018183 0.3340909,0.4009091 0.9354545,0.6459091 0.6013637,0.245 1.3586365,0.245 0.8909091,0 1.4031818,-0.2004546 0.51227276,-0.2227273 0.93545459,-0.7127273 L 3.6443757,3.2072728 q -0.9577273,2.0936365 -2.4722728,3.0068183 -1.5145455,0.9131818 -3.9645456,0.9131818 -2.2718182,0 -3.8531819,-0.9131818 Q -8.2269883,5.323182 -9.0288065,3.7418183 -9.8306247,2.1604546 -9.8306247,0.17818182 q 0,-1.98227282 0.735,-3.54136372 0.7572728,-1.5813637 2.294091,-2.4945456 1.5368182,-0.9131818 3.764091,-0.9131818 z m 0,3.5636365 q -0.8018182,0 -1.3363637,0.2895454 -0.5345454,0.2895455 -0.7795454,0.6904546 Q -5.3760791,-1.8263637 -5.3760791,-1.47 h 4.67727286 q 0,-0.2895455 -0.24500001,-0.6904546 -0.24500005,-0.4231818 -0.77954545,-0.735 -0.5345455,-0.3118182 -1.314091,-0.3118182 z" />
    </g>
    <g
       id="text29"
       style="font-size:22.27272797px;font-family:'IdeaFonts JiangHuZhaoPaiHei';fill:#ffffff;fill-opacity:1"
       aria-label="d">
      <path
         id="path67"
         style="font-size:22.27272797px;font-family:'IdeaFonts JiangHuZhaoPaiHei';fill:#ffffff;fill-opacity:1"
         d="m 6.9273294,-2.9400001 q 0.4009091,-1.2472728 1.3363637,-2.2495455 0.9131818,-0.8686364 2.1604549,-1.2918182 1.202727,-0.2895455 2.249545,-0.2895455 1.358637,0 2.94,0.8909091 v -3.8531819 l -1.002272,-0.4677269 1.225,-1.425455 4.209545,1.113636 V 7.0827275 H 18.887784 V 6.5259093 h -0.49 V 7.0827275 H 17.195057 V 6.5259093 H 16.771875 V 7.0827275 H 15.613693 V 6.3254547 q -1.291818,0.7795455 -2.850909,0.7795455 -1.046818,0 -2.271818,-0.2895454 Q 9.2214204,6.4368184 8.2636931,5.5459093 7.3282385,4.5436365 6.9273294,3.2963637 6.4818748,1.8709091 6.4818748,0.17818182 q 0,-1.69272732 0.4454546,-3.11818192 z m 8.6863636,5.6572729 v -4.9668183 q -0.98,-0.735 -2.227273,-0.735 -0.512272,0 -0.98,0.2227272 -0.467727,0.2004546 -0.779545,0.579091 -0.378636,0.49 -0.512273,1.0468182 -0.178182,0.55681817 -0.178182,1.31409092 0,0.64590911 0.178182,1.31409098 0.155909,0.5568182 0.512273,1.0468182 0.311818,0.3786364 0.779545,0.6013636 0.467728,0.2004546 0.98,0.2004546 1.247273,0 2.227273,-0.6236364 z" />
    </g>
    <g
       id="text31"
       style="font-size:22.27272797px;font-family:'IdeaFonts JiangHuZhaoPaiHei';fill:#ffffff;fill-opacity:1"
       aria-label="r">
      <path
         id="path70"
         style="font-size:22.27272797px;font-family:'IdeaFonts JiangHuZhaoPaiHei';fill:#ffffff;fill-opacity:1"
         d="m 33.351647,-6.7709093 v 3.5859092 q -1.603636,-0.044545 -3.140454,0.5122727 -0.445455,0.1559091 -0.935455,0.5345455 -0.49,0.3563637 -0.890909,0.7795455 V 6.7263638 H 27.24892 V 4.8777274 H 26.803465 V 6.7263638 H 25.600738 V 4.8777274 h -0.400909 v 1.8486364 h -1.113636 v -12.116364 l -0.98,-0.4677273 1.180454,-1.4031818 4.098182,1.0913637 v 1.6927273 q 0.356364,-0.5122728 0.890909,-0.9577273 0.556818,-0.4677273 1.046818,-0.6904546 1.38091,-0.6459091 3.029091,-0.6459091 z" />
    </g>
    <g
       id="text33"
       style="font-size:22.27272797px;font-family:'IdeaFonts JiangHuZhaoPaiHei';fill:#ffffff;fill-opacity:1"
       aria-label="o">
      <path
         id="path73"
         style="font-size:22.27272797px;font-family:'IdeaFonts JiangHuZhaoPaiHei';fill:#ffffff;fill-opacity:1"
         d="m 43.686707,-6.7709093 q 2.227272,0 3.808636,0.9577273 1.581364,0.9354546 2.383182,2.5168183 0.824091,1.5590909 0.824091,3.40772734 0,1.82636366 -0.824091,3.43000006 -0.824091,1.6036365 -2.427727,2.5836365 -1.581364,1.0022727 -3.764091,1.0022727 -2.182728,0 -3.786364,-1.0022727 -1.581364,-0.98 -2.405455,-2.5836365 -0.824091,-1.6036364 -0.824091,-3.43000006 0,-1.82636374 0.801818,-3.38545464 0.824091,-1.5813637 2.405455,-2.539091 1.581364,-0.9577273 3.808637,-0.9577273 z m 0,10.1118185 q 1.113636,0 1.826363,-0.8018182 0.735,-0.8240909 0.735,-2.42772736 0,-1.58136364 -0.757273,-2.33863644 -0.735,-0.7572727 -1.80409,-0.7572727 -1.069091,0 -1.826364,0.7795454 -0.735,0.7572728 -0.735,2.31636374 0,1.60363646 0.735,2.42772736 0.735,0.8018182 1.826364,0.8018182 z" />
    </g>
    <g
       id="text35"
       style="font-size:22.27272797px;font-family:'IdeaFonts JiangHuZhaoPaiHei';fill:#ffffff;fill-opacity:1"
       aria-label="n">
      <path
         id="path76"
         style="font-size:22.27272797px;font-family:'IdeaFonts JiangHuZhaoPaiHei';fill:#ffffff;fill-opacity:1"
         d="m 63.345683,-6.7263638 q 1.937728,0 3.185,1.1359091 1.269546,1.1359091 1.269546,3.3631819 V 6.7263638 H 66.66432 V 5.1004547 h -0.49 V 6.7263638 H 64.971592 V 5.1004547 h -0.400909 v 1.6259091 h -1.158182 v -7.61727292 q 0,-1.06909098 -0.49,-1.69272728 -0.49,-0.6236364 -1.358636,-0.6236364 -0.957727,0 -2.160455,0.7795455 V 6.7263638 H 58.245228 V 5.1004547 h -0.467727 v 1.6259091 h -1.225 V 5.1004547 H 56.151592 V 6.7263638 H 54.99341 V -5.7463638 l -1.002273,-0.4009091 1.225,-1.2250001 4.187273,0.9577273 v 0.8909092 q 0.890909,-0.579091 1.915455,-0.8909092 1.024545,-0.3118181 2.026818,-0.3118181 z" />
    </g>
    <g
       id="text37"
       style="font-size:22.27272797px;font-family:'IdeaFonts JiangHuZhaoPaiHei';fill:#ffffff;fill-opacity:1"
       aria-label="X">
      <path
         id="path79"
         style="font-size:22.27272797px;font-family:'IdeaFonts JiangHuZhaoPaiHei';fill:#ffffff;fill-opacity:1"
         d="m 71.414489,-9.7109094 -1.002273,-0.2004545 0.801818,-1.4031821 4.41,0.311818 3.452273,5.0113642 2.828637,-4.0536362 -0.779546,-0.155909 1.113636,-1.314091 5.590455,0.49 -6.147273,8.7754545 6.347728,9.0204548 H 82.795853 L 79.076307,1.4922728 75.356762,6.7709093 H 70.12267 l 6.325455,-9.0204548 z" />
    </g>
  </g>
</svg>
