<svg xmlns="http://www.w3.org/2000/svg" xmlns:xlink="http://www.w3.org/1999/xlink" fill="none" version="1.1" width="33.941142082214355" height="33.941142082214355" viewBox="0 0 33.941142082214355 33.941142082214355"><clipPath id="master_svg0_41_178" transform="matrix(0.7071070671081543,-0.7071071863174438,0.7071071863174438,0.7071070671081543,-12.000013750602534,4.970560744066006)"><rect x="0" y="16.970572471618652" width="24" height="24" rx="0"/></clipPath><g clip-path="url(#master_svg0_41_178)" style="mix-blend-mode:passthrough"><g transform="matrix(0.7071070671081543,-0.7071071863174438,0.7071071863174438,0.7071070671081543,-12.000013750602534,4.970560744066006)"><g style="mix-blend-mode:passthrough"><path d="M12,19.970572471618652C7.02944,19.970572471618652,3,24.000012471618653,3,28.970572471618652C3,33.94117247161865,7.02944,37.97057247161865,12,37.97057247161865C16.970599999999997,37.97057247161865,21,33.94117247161865,21,28.970572471618652C21,24.000012471618653,16.970599999999997,19.970572471618652,12,19.970572471618652C12,19.970572471618652,12,19.970572471618652,12,19.970572471618652ZM1,28.970572471618652C1,22.89544247161865,5.92487,17.970572471618652,12,17.970572471618652C18.0751,17.970572471618652,23,22.89544247161865,23,28.970572471618652C23,35.04567247161865,18.0751,39.97057247161865,12,39.97057247161865C5.92487,39.97057247161865,1,35.04567247161865,1,28.970572471618652C1,28.970572471618652,1,28.970572471618652,1,28.970572471618652ZM8.29289,25.263462471618652C8.68342,24.872942471618654,9.31658,24.872942471618654,9.70711,25.263462471618652C9.70711,25.263462471618652,12,27.55636247161865,12,27.55636247161865C12,27.55636247161865,14.2929,25.263462471618652,14.2929,25.263462471618652C14.6834,24.872942471618654,15.3166,24.872942471618654,15.7071,25.263462471618652C16.0976,25.65399247161865,16.0976,26.287152471618654,15.7071,26.677682471618652C15.7071,26.677682471618652,13.4142,28.970572471618652,13.4142,28.970572471618652C13.4142,28.970572471618652,15.7071,31.263472471618652,15.7071,31.263472471618652C16.0976,31.65397247161865,16.0976,32.28717247161865,15.7071,32.67767247161865C15.3166,33.06817247161865,14.6834,33.06817247161865,14.2929,32.67767247161865C14.2929,32.67767247161865,12,30.384772471618653,12,30.384772471618653C12,30.384772471618653,9.70711,32.67767247161865,9.70711,32.67767247161865C9.31658,33.06817247161865,8.68342,33.06817247161865,8.29289,32.67767247161865C7.90237,32.28717247161865,7.90237,31.65397247161865,8.29289,31.263472471618652C8.29289,31.263472471618652,10.58579,28.970572471618652,10.58579,28.970572471618652C10.58579,28.970572471618652,8.29289,26.677682471618652,8.29289,26.677682471618652C7.90237,26.287152471618654,7.90237,25.65399247161865,8.29289,25.263462471618652C8.29289,25.263462471618652,8.29289,25.263462471618652,8.29289,25.263462471618652Z" fill-rule="evenodd" fill="#FFFFFF" fill-opacity="1"/></g></g></g></svg>