<svg xmlns="http://www.w3.org/2000/svg" xmlns:xlink="http://www.w3.org/1999/xlink" fill="none" version="1.1" width="25" height="25" viewBox="0 0 25 25"><clipPath id="master_svg0_17_125"><rect x="0" y="0" width="25" height="25" rx="0"/></clipPath><g clip-path="url(#master_svg0_17_125)" style="mix-blend-mode:passthrough"><g><g style="mix-blend-mode:passthrough"><path d="M9.375,4.1667040234375C7.64912,4.1667040234375,6.25,5.5658240234375,6.25,7.2917040234375C6.25,9.0175940234375,7.64912,10.4167040234375,9.375,10.4167040234375C11.1009,10.4167040234375,12.5,9.0175940234375,12.5,7.2917040234375C12.5,5.5658240234375,11.1009,4.1667040234375,9.375,4.1667040234375C9.375,4.1667040234375,9.375,4.1667040234375,9.375,4.1667040234375ZM4.16667,7.2917040234375C4.16667,4.4152240234375,6.49852,2.0833740234375,9.375,2.0833740234375C12.2515,2.0833740234375,14.5833,4.4152240234375,14.5833,7.2917040234375C14.5833,10.1681840234375,12.2515,12.5000740234375,9.375,12.5000740234375C6.49852,12.5000740234375,4.16667,10.1681840234375,4.16667,7.2917040234375C4.16667,7.2917040234375,4.16667,7.2917040234375,4.16667,7.2917040234375ZM15.6575,3.0020830234374998C15.8002,2.4447650234375002,16.3677,2.1086467234375,16.925,2.2513430234375C18.0454,2.5381930234375,19.0383,3.1897640234375,19.7475,4.1033140234375C20.4566,5.0168640234375,20.8415,6.1404440234375,20.8415,7.2969140234375C20.8415,8.4533840234375,20.4566,9.576964023437501,19.7475,10.4905240234375C19.0383,11.4040740234375,18.0454,12.0556340234375,16.925,12.3424740234375C16.3677,12.4851740234375,15.8002,12.1490740234375,15.6575,11.5917540234375C15.5149,11.0344240234375,15.8509,10.4669540234375,16.4083,10.3242640234375C17.0805,10.1521440234375,17.6763,9.7612040234375,18.1018,9.2130840234375C18.5272,8.6649440234375,18.7581,7.9908040234375,18.7581,7.2969140234375C18.7581,6.6030340234375,18.5272,5.9288840234375,18.1018,5.3807440234375C17.6763,4.8326240234375,17.0805,4.4416840234374995,16.4083,4.2695740234374995C15.8509,4.1268740234375,15.5149,3.5594040234374997,15.6575,3.0020830234374998C15.6575,3.0020830234374998,15.6575,3.0020830234374998,15.6575,3.0020830234374998ZM1.52549,16.1088740234375C2.50224,15.1321740234375,3.827,14.5833740234375,5.20833,14.5833740234375C5.20833,14.5833740234375,13.5417,14.5833740234375,13.5417,14.5833740234375C14.923,14.5833740234375,16.2478,15.1321740234375,17.2245,16.1088740234375C18.2013,17.085574023437502,18.75,18.4103740234375,18.75,19.7916740234375C18.75,19.7916740234375,18.75,21.8750740234375,18.75,21.8750740234375C18.75,22.4503740234375,18.2836,22.9166740234375,17.7083,22.9166740234375C17.133,22.9166740234375,16.6667,22.4503740234375,16.6667,21.8750740234375C16.6667,21.8750740234375,16.6667,19.7916740234375,16.6667,19.7916740234375C16.6667,18.9628740234375,16.3374,18.1680740234375,15.7514,17.5819740234375C15.1653,16.995974023437498,14.3704,16.6666740234375,13.5417,16.6666740234375C13.5417,16.6666740234375,5.20833,16.6666740234375,5.20833,16.6666740234375C4.37953,16.6666740234375,3.58468,16.995974023437498,2.99863,17.5819740234375C2.41257,18.1680740234375,2.08333,18.9628740234375,2.08333,19.7916740234375C2.08333,19.7916740234375,2.08333,21.8750740234375,2.08333,21.8750740234375C2.08333,22.4503740234375,1.61696,22.9166740234375,1.04167,22.9166740234375C0.46637,22.9166740234375,0,22.4503740234375,0,21.8750740234375C0,21.8750740234375,0,19.7916740234375,0,19.7916740234375C0,18.4103740234375,0.548733,17.085574023437502,1.52549,16.1088740234375C1.52549,16.1088740234375,1.52549,16.1088740234375,1.52549,16.1088740234375ZM19.8248,15.5000740234375C19.9685,14.9430740234375,20.5368,14.6080740234375,21.0938,14.7518740234375C22.2111,15.0403740234375,23.201,15.6917740234375,23.908,16.603774023437502C24.615,17.515874023437497,24.9992,18.6368740234375,25,19.7909740234375C25,19.7909740234375,25,21.8750740234375,25,21.8750740234375C25,22.4503740234375,24.5336,22.9166740234375,23.9583,22.9166740234375C23.383,22.9166740234375,22.9167,22.4503740234375,22.9167,21.8750740234375C22.9167,21.8750740234375,22.9167,19.7924740234375,22.9167,19.7924740234375C22.9161,19.1000740234375,22.6857,18.4274740234375,22.2615,17.8802740234375C21.8373,17.3329740234375,21.2433,16.942174023437502,20.5729,16.7689740234375C20.0159,16.6252740234375,19.6809,16.056974023437498,19.8248,15.5000740234375C19.8248,15.5000740234375,19.8248,15.5000740234375,19.8248,15.5000740234375Z" fill-rule="evenodd" fill="#FFFFFF" fill-opacity="1"/></g></g></g></svg>