<svg xmlns="http://www.w3.org/2000/svg" xmlns:xlink="http://www.w3.org/1999/xlink" fill="none" version="1.1" width="24" height="24" viewBox="0 0 24 24"><clipPath id="master_svg0_19_2859"><rect x="0" y="0" width="24" height="24" rx="0"/></clipPath><g clip-path="url(#master_svg0_19_2859)" style="mix-blend-mode:passthrough"><g><g style="mix-blend-mode:passthrough"><path d="M10,3C9.73478,3,9.48043,3.10536,9.29289,3.29289C9.105360000000001,3.48043,9,3.73478,9,4C9,4,9,5,9,5C9,5,15,5,15,5C15,5,15,4,15,4C15,3.73478,14.8946,3.48043,14.7071,3.29289C14.5196,3.10536,14.2652,3,14,3C14,3,10,3,10,3C10,3,10,3,10,3ZM17,5C17,5,17,4,17,4C17,3.20435,16.6839,2.44129,16.121299999999998,1.8786800000000001C15.5587,1.31607,14.7956,1,14,1C14,1,10,1,10,1C9.20435,1,8.44129,1.31607,7.87868,1.8786800000000001C7.31607,2.44129,7,3.20435,7,4C7,4,7,5,7,5C7,5,3,5,3,5C2.447715,5,2,5.44772,2,6C2,6.55228,2.447715,7,3,7C3,7,4,7,4,7C4,7,4,20,4,20C4,20.7957,4.31607,21.5587,4.87868,22.1213C5.44129,22.6839,6.20435,23,7,23C7,23,17,23,17,23C17.7957,23,18.5587,22.6839,19.1213,22.1213C19.6839,21.5587,20,20.7957,20,20C20,20,20,7,20,7C20,7,21,7,21,7C21.5523,7,22,6.55228,22,6C22,5.44772,21.5523,5,21,5C21,5,17,5,17,5C17,5,17,5,17,5ZM6,7C6,7,6,20,6,20C6,20.2652,6.10536,20.5196,6.29289,20.7071C6.48043,20.8946,6.73478,21,7,21C7,21,17,21,17,21C17.2652,21,17.5196,20.8946,17.7071,20.7071C17.8946,20.5196,18,20.2652,18,20C18,20,18,7,18,7C18,7,6,7,6,7C6,7,6,7,6,7ZM10,10C10.55228,10,11,10.44771,11,11C11,11,11,17,11,17C11,17.5523,10.55228,18,10,18C9.44772,18,9,17.5523,9,17C9,17,9,11,9,11C9,10.44771,9.44772,10,10,10C10,10,10,10,10,10ZM13,11C13,10.44771,13.4477,10,14,10C14.5523,10,15,10.44771,15,11C15,11,15,17,15,17C15,17.5523,14.5523,18,14,18C13.4477,18,13,17.5523,13,17C13,17,13,11,13,11C13,11,13,11,13,11Z" fill-rule="evenodd" fill="#FFFFFF" fill-opacity="1"/></g></g></g></svg>