<svg xmlns="http://www.w3.org/2000/svg" xmlns:xlink="http://www.w3.org/1999/xlink" fill="none" version="1.1" width="24" height="24" viewBox="0 0 24 24"><clipPath id="master_svg0_25_4832"><rect x="0" y="0" width="24" height="24" rx="0"/></clipPath><g clip-path="url(#master_svg0_25_4832)" style="mix-blend-mode:passthrough"><g><g style="mix-blend-mode:passthrough"><path d="M5,4C4.44772,4,4,4.44772,4,5C4,5,4,19,4,19C4,19.5523,4.44771,20,5,20C5,20,19,20,19,20C19.5523,20,20,19.5523,20,19C20,19,20,5,20,5C20,4.44771,19.5523,4,19,4C19,4,5,4,5,4C5,4,5,4,5,4ZM2,5C2,3.34315,3.34315,2,5,2C5,2,19,2,19,2C20.6569,2,22,3.34315,22,5C22,5,22,19,22,19C22,20.6569,20.6569,22,19,22C19,22,5,22,5,22C3.34315,22,2,20.6569,2,19C2,19,2,5,2,5C2,5,2,5,2,5ZM8.29289,8.29289C8.68342,7.90237,9.31658,7.90237,9.70711,8.29289C9.70711,8.29289,12,10.58579,12,10.58579C12,10.58579,14.2929,8.29289,14.2929,8.29289C14.6834,7.90237,15.3166,7.90237,15.7071,8.29289C16.0976,8.68342,16.0976,9.31658,15.7071,9.70711C15.7071,9.70711,13.4142,12,13.4142,12C13.4142,12,15.7071,14.2929,15.7071,14.2929C16.0976,14.6834,16.0976,15.3166,15.7071,15.7071C15.3166,16.0976,14.6834,16.0976,14.2929,15.7071C14.2929,15.7071,12,13.4142,12,13.4142C12,13.4142,9.70711,15.7071,9.70711,15.7071C9.31658,16.0976,8.68342,16.0976,8.29289,15.7071C7.90237,15.3166,7.90237,14.6834,8.29289,14.2929C8.29289,14.2929,10.58579,12,10.58579,12C10.58579,12,8.29289,9.70711,8.29289,9.70711C7.90237,9.31658,7.90237,8.68342,8.29289,8.29289C8.29289,8.29289,8.29289,8.29289,8.29289,8.29289Z" fill-rule="evenodd" fill="#FFFFFF" fill-opacity="1"/></g></g></g></svg>