<svg xmlns="http://www.w3.org/2000/svg" xmlns:xlink="http://www.w3.org/1999/xlink" fill="none" version="1.1" width="24" height="24" viewBox="0 0 24 24"><clipPath id="master_svg0_19_0849"><rect x="0" y="0" width="24" height="24" rx="0"/></clipPath><g clip-path="url(#master_svg0_19_0849)" style="mix-blend-mode:passthrough"><g><g style="mix-blend-mode:passthrough"><path d="M12,3C7.02944,3,3,7.02944,3,12C3,16.970599999999997,7.02944,21,12,21C16.970599999999997,21,21,16.970599999999997,21,12C21,7.02944,16.970599999999997,3,12,3C12,3,12,3,12,3ZM1,12C1,5.92487,5.92487,1,12,1C18.0751,1,23,5.92487,23,12C23,18.0751,18.0751,23,12,23C5.92487,23,1,18.0751,1,12C1,12,1,12,1,12ZM8.29289,8.29289C8.68342,7.90237,9.31658,7.90237,9.70711,8.29289C9.70711,8.29289,12,10.58579,12,10.58579C12,10.58579,14.2929,8.29289,14.2929,8.29289C14.6834,7.90237,15.3166,7.90237,15.7071,8.29289C16.0976,8.68342,16.0976,9.31658,15.7071,9.70711C15.7071,9.70711,13.4142,12,13.4142,12C13.4142,12,15.7071,14.2929,15.7071,14.2929C16.0976,14.6834,16.0976,15.3166,15.7071,15.7071C15.3166,16.0976,14.6834,16.0976,14.2929,15.7071C14.2929,15.7071,12,13.4142,12,13.4142C12,13.4142,9.70711,15.7071,9.70711,15.7071C9.31658,16.0976,8.68342,16.0976,8.29289,15.7071C7.90237,15.3166,7.90237,14.6834,8.29289,14.2929C8.29289,14.2929,10.58579,12,10.58579,12C10.58579,12,8.29289,9.70711,8.29289,9.70711C7.90237,9.31658,7.90237,8.68342,8.29289,8.29289C8.29289,8.29289,8.29289,8.29289,8.29289,8.29289Z" fill-rule="evenodd" fill="#FFFFFF" fill-opacity="1"/></g></g></g></svg>