<svg xmlns="http://www.w3.org/2000/svg" xmlns:xlink="http://www.w3.org/1999/xlink" fill="none" version="1.1" width="28" height="28" viewBox="0 0 28 28"><clipPath id="master_svg0_19_2255"><rect x="0" y="0" width="28" height="28" rx="0"/></clipPath><g clip-path="url(#master_svg0_19_2255)" style="mix-blend-mode:passthrough"><g><g style="mix-blend-mode:passthrough"><path d="M13.999956494140624,1.16668701171875C6.912336494140625,1.16668701171875,1.166656494140625,6.91236701171875,1.166656494140625,13.99998701171875C1.166656494140625,21.08758701171875,6.912336494140625,26.83338701171875,13.999956494140624,26.83338701171875C21.087556494140625,26.83338701171875,26.833356494140624,21.08758701171875,26.833356494140624,13.99998701171875C26.833356494140624,6.91236701171875,21.087556494140625,1.16668701171875,13.999956494140624,1.16668701171875ZM3.499986494140625,13.99998701171875C3.499986494140625,8.20103701171875,8.201006494140625,3.50001701171875,13.999956494140624,3.50001701171875C19.799056494140626,3.50001701171875,24.499956494140626,8.20103701171875,24.499956494140626,13.99998701171875C24.499956494140626,19.79908701171875,19.799056494140626,24.49998701171875,13.999956494140624,24.49998701171875C8.201006494140625,24.49998701171875,3.499986494140625,19.79908701171875,3.499986494140625,13.99998701171875ZM10.499986494140625,9.33335701171875C9.855666494140625,9.33335701171875,9.333326494140625,9.85569701171875,9.333326494140625,10.50001701171875C9.333326494140625,11.14434701171875,9.855666494140625,11.66668701171875,10.499986494140625,11.66668701171875L10.511656494140626,11.66668701171875C11.155986494140626,11.66668701171875,11.678356494140624,11.14434701171875,11.678356494140624,10.50001701171875C11.678356494140624,9.85569701171875,11.155986494140626,9.33335701171875,10.511656494140626,9.33335701171875L10.499986494140625,9.33335701171875ZM17.499956494140626,9.33335701171875C16.855656494140625,9.33335701171875,16.333356494140624,9.85569701171875,16.333356494140624,10.50001701171875C16.333356494140624,11.14434701171875,16.855656494140625,11.66668701171875,17.499956494140626,11.66668701171875L17.511656494140624,11.66668701171875C18.155956494140625,11.66668701171875,18.678356494140626,11.14434701171875,18.678356494140626,10.50001701171875C18.678356494140626,9.85569701171875,18.155956494140625,9.33335701171875,17.511656494140624,9.33335701171875L17.499956494140626,9.33335701171875ZM8.633326494140626,15.39998701171875C9.147166494140624,15.01468701171875,9.875446494140625,15.11718701171875,10.262996494140625,15.62848701171875L10.268406494140624,15.63548701171875C10.275346494140624,15.64418701171875,10.288556494140625,15.66068701171875,10.307846494140625,15.68358701171875C10.346526494140624,15.72968701171875,10.409206494140625,15.80158701171875,10.494656494140624,15.89068701171875C10.666496494140626,16.06998701171875,10.924736494140625,16.31328701171875,11.259056494140625,16.55648701171875C11.932356494140626,17.04608701171875,12.863056494140626,17.49998701171875,13.999956494140624,17.49998701171875C15.136856494140625,17.49998701171875,16.067656494140625,17.04608701171875,16.740856494140623,16.55648701171875C17.075156494140625,16.31328701171875,17.333456494140624,16.06998701171875,17.505356494140624,15.89068701171875C17.590756494140624,15.80158701171875,17.653356494140624,15.72968701171875,17.692156494140626,15.68358701171875C17.711356494140624,15.66068701171875,17.724556494140625,15.64418701171875,17.731556494140627,15.63548701171875L17.736956494140625,15.62848701171875C18.124456494140624,15.11718701171875,18.852856494140624,15.01468701171875,19.366656494140624,15.39998701171875C19.882056494140624,15.78668701171875,19.986656494140625,16.51788701171875,19.599956494140624,17.03338701171875L19.561056494140626,17.083787011718748C19.540856494140623,17.10908701171875,19.513656494140626,17.142787011718752,19.479356494140625,17.18358701171875C19.410956494140624,17.26518701171875,19.314156494140626,17.37548701171875,19.190056494140624,17.50518701171875C18.942556494140625,17.76328701171875,18.581056494140626,18.10338701171875,18.113256494140625,18.44348701171875C17.182256494140624,19.12058701171875,15.779756494140624,19.83338701171875,13.999956494140624,19.83338701171875C12.220156494140625,19.83338701171875,10.817636494140626,19.12058701171875,9.886706494140626,18.44348701171875C9.418986494140626,18.10338701171875,9.057436494140624,17.76328701171875,8.810016494140626,17.50518701171875C8.685826494140624,17.37548701171875,8.588996494140625,17.26518701171875,8.520576494140624,17.18358701171875C8.486336494140625,17.142787011718752,8.459076494140625,17.10908701171875,8.438966494140626,17.083787011718748L8.399986494140624,17.03338701171875C8.013386494140626,16.51788701171875,8.117856494140625,15.78668701171875,8.633326494140626,15.39998701171875Z" fill-rule="evenodd" fill="#FFFFFF" fill-opacity="1"/></g></g></g></svg>