<svg xmlns="http://www.w3.org/2000/svg" xmlns:xlink="http://www.w3.org/1999/xlink" fill="none" version="1.1" width="24" height="24" viewBox="0 0 24 24"><clipPath id="master_svg0_6_13678"><rect x="0" y="0" width="24" height="24" rx="0"/></clipPath><g clip-path="url(#master_svg0_6_13678)" style="mix-blend-mode:passthrough"><g><g style="mix-blend-mode:passthrough"><path d="M10.5,21C10.5,21,9,21,9,19.5C9,18,10.5,13.5,16.5,13.5C22.5,13.5,24,18,24,19.5C24,21,22.5,21,22.5,21C22.5,21,10.5,21,10.5,21C10.5,21,10.5,21,10.5,21ZM16.5,12C17.693469999999998,12,18.838070000000002,11.52589,19.682000000000002,10.68198C20.5259,9.83807,21,8.69347,21,7.5C21,6.30653,20.5259,5.16193,19.682000000000002,4.31802C18.838070000000002,3.474106,17.693469999999998,3.000000000000001,16.5,3C15.30653,3.0000000000000013,14.16193,3.474106,13.31802,4.31802C12.47411,5.16193,12,6.30653,12,7.5C12,8.69347,12.47411,9.83807,13.31802,10.68198C14.16193,11.52589,15.30653,12,16.5,12C16.5,12,16.5,12,16.5,12C16.5,12,16.5,12,16.5,12Z" fill="#FFFFFF" fill-opacity="1"/></g><g style="mix-blend-mode:passthrough"><path d="M7.824,20.99996861328125C7.60163,20.53168861328125,7.49073,20.01827861328125,7.5,19.49996861328125C7.5,17.46746861328125,8.52,15.37496861328125,10.404,13.91996961328125C9.46364,13.63022361328125,8.48392,13.48852961328125,7.5,13.49996988328125C1.5,13.49996988328125,0,17.99996861328125,0,19.49996861328125C0,20.99996861328125,1.5,20.99996861328125,1.5,20.99996861328125C1.5,20.99996861328125,7.824,20.99996861328125,7.824,20.99996861328125C7.824,20.99996861328125,7.824,20.99996861328125,7.824,20.99996861328125Z" fill-rule="evenodd" fill="#FFFFFF" fill-opacity="1"/></g><g style="mix-blend-mode:passthrough"><path d="M6.75,12C7.74456,12,8.69839,11.60491,9.40165,10.90165C10.10491,10.19839,10.5,9.24456,10.5,8.25C10.5,7.25544,10.10491,6.30161,9.40165,5.59835C8.69839,4.895088,7.74456,4.5,6.75,4.5C5.75544,4.5,4.80161,4.895088,4.09835,5.59835C3.395088,6.30161,3.0000000000000004,7.25544,3,8.25C3.000000000000001,9.24456,3.395088,10.19839,4.09835,10.90165C4.80161,11.60491,5.75544,12,6.75,12C6.75,12,6.75,12,6.75,12C6.75,12,6.75,12,6.75,12Z" fill="#FFFFFF" fill-opacity="1"/></g></g></g></svg>