<svg xmlns="http://www.w3.org/2000/svg" xmlns:xlink="http://www.w3.org/1999/xlink" fill="none" version="1.1" width="126.5" height="105.69999694824219" viewBox="0 0 126.5 105.69999694824219"><defs><filter id="master_svg0_0_400541" filterUnits="userSpaceOnUse" color-interpolation-filters="sRGB" x="6.965497970581055" y="4.899999618530273" width="128.95540618896484" height="122.2760238647461"><feFlood flood-opacity="0" result="BackgroundImageFix"/><feColorMatrix in="SourceAlpha" type="matrix" values="0 0 0 0 0 0 0 0 0 0 0 0 0 0 0 0 0 0 127 0"/><feOffset dy="11" dx="0"/><feGaussianBlur stdDeviation="11"/><feColorMatrix type="matrix" values="0 0 0 0 0.3960784375667572 0 0 0 0 0.47843137383461 0 0 0 0 0.5764706134796143 0 0 0 0.27000001072883606 0"/><feBlend mode="normal" in2="BackgroundImageFix" result="effect1_dropShadow"/><feBlend mode="normal" in="SourceGraphic" in2="effect1_dropShadow" result="shape"/></filter><linearGradient x1="0.4996841251850128" y1="-0.02316455729305744" x2="0.4996841251850128" y2="1.0107594728469849" id="master_svg1__054548"><stop offset="0%" stop-color="#FDFEFF" stop-opacity="1"/><stop offset="99.6399998664856%" stop-color="#ECF0F5" stop-opacity="1"/></linearGradient></defs><g style="mix-blend-mode:passthrough"><g><g style="mix-blend-mode:passthrough"><path d="M122.10000076293946,54.899999904632566C122.10000076293946,69.09999990463257,116.30000076293945,81.89999990463257,107.00000076293945,91.09999990463257C97.90000076293946,100.19999990463256,85.30000076293945,105.69999990463256,71.40000076293946,105.69999990463256C57.60000076293945,105.69999990463256,45.00000076293945,100.09999990463257,35.800000762939455,91.09999990463257C26.500000762939454,81.89999990463257,20.700000762939453,69.09999990463257,20.700000762939453,54.899999904632566C20.700000762939453,26.799999904632568,43.400000762939456,4.099999904632568,71.40000076293946,4.099999904632568C99.40000076293946,4.099999904632568,122.10000076293946,26.89999990463257,122.10000076293946,54.899999904632566Z" fill="#EAEEF9" fill-opacity="1"/></g><g style="mix-blend-mode:passthrough"><path d="M117.69999847412109,21.599999618530273C119.96499847412109,21.599999618530273,121.7999984741211,19.759999618530273,121.7999984741211,17.499999618530275C121.7999984741211,15.229999618530274,119.96499847412109,13.399999618530273,117.69999847412109,13.399999618530273C115.43599847412109,13.399999618530273,113.5999984741211,15.229999618530274,113.5999984741211,17.499999618530275C113.5999984741211,19.759999618530273,115.43599847412109,21.599999618530273,117.69999847412109,21.599999618530273Z" fill="#EAEEF9" fill-opacity="1"/></g><g style="mix-blend-mode:passthrough"><path d="M123.7000015258789,5.6C125.2470015258789,5.6,126.5000015258789,4.34,126.5000015258789,2.8C126.5000015258789,1.25,125.2470015258789,0,123.7000015258789,0C122.15400152587891,0,120.9000015258789,1.25,120.9000015258789,2.8C120.9000015258789,4.34,122.15400152587891,5.6,123.7000015258789,5.6Z" fill="#EAEEF9" fill-opacity="1"/></g><g style="mix-blend-mode:passthrough"><path d="M22.3,21.499999618530275C23.847,21.499999618530275,25.1,20.239999618530273,25.1,18.699999618530274C25.1,17.149999618530273,23.847,15.899999618530273,22.3,15.899999618530273C20.754,15.899999618530273,19.5,17.149999618530273,19.5,18.699999618530274C19.5,20.239999618530273,20.754,21.499999618530275,22.3,21.499999618530275Z" fill="#EAEEF9" fill-opacity="1"/></g><g style="mix-blend-mode:passthrough"><path d="M5.2,75.4999984741211C8.072,75.4999984741211,10.4,73.16999847412109,10.4,70.2999984741211C10.4,67.41999847412109,8.072,65.0999984741211,5.2,65.0999984741211C2.328,65.0999984741211,0,67.41999847412109,0,70.2999984741211C0,73.16999847412109,2.328,75.4999984741211,5.2,75.4999984741211Z" fill="#EAEEF9" fill-opacity="1"/></g><g filter="url(#master_svg0_0_400541)" style="mix-blend-mode:passthrough"><path d="M112.24899797058106,31.289999618530274C110.88099797058105,29.379999618530274,108.82899797058106,29.549999618530272,108.10199797058105,31.879999618530274C106.47799797058106,37.069999618530275,101.38999797058105,38.98999961853028,98.26999797058106,39.44999961853027C96.47399797058105,26.139999618530275,85.01699797058106,15.899999618530273,71.16499797058106,15.899999618530273C57.356997970581055,15.899999618530273,45.941997970581056,26.099999618530273,44.103997970581055,39.32999961853027C40.939997970581054,38.72999961853027,36.322997970581056,36.76999961853028,34.783997970581055,31.83999961853027C34.05699797058105,29.499999618530275,32.00499797058105,29.379999618530274,30.636997970581056,31.249999618530275C27.857997970581053,35.069999618530275,29.013000070581054,39.959999618530276,30.722997970581055,43.959999618530276C33.24499797058105,50.039999618530274,38.118997970581056,54.37999961853027,43.84699797058106,57.30999961853027C43.71899797058106,64.49999961853027,43.20599797058105,70.36999961853027,41.19699797058105,77.93999961853027C40.512997970581054,80.52999961853027,39.91399797058105,82.65999961853028,39.35899797058106,84.05999961853027C38.97399797058105,85.03999961853027,38.716997970581055,86.01999961853028,39.31599797058105,86.99999961853027C40.341997970581055,88.64999961853027,42.350997970581055,89.15999961853028,44.188997970581056,89.45999961853028C45.89899797058105,89.75999961853027,47.35299797058106,89.88999961853027,48.54999797058105,89.92999961853027C51.45699797058106,90.01999961853028,52.73999797058106,89.58999961853027,52.73999797058106,89.58999961853027C52.73999797058106,89.58999961853027,52.95299797058105,89.92999961853027,53.508997970581056,90.39999961853027C55.09099797058106,91.79999961853028,59.493997970581056,94.51999961853028,69.41299797058105,94.13999961853027C81.76799797058106,93.66999961853027,86.51299797058105,92.47999961853027,88.69299797058105,90.60999961853027C88.86399797058105,90.43999961853028,89.03499797058106,90.30999961853027,89.16399797058105,90.13999961853027C90.53199797058105,90.13999961853027,91.77099797058105,90.18999961853028,92.88299797058104,90.18999961853028C96.77299797058106,90.22999961853027,99.55199797058106,90.30999961853027,101.77499797058105,89.49999961853027C103.52799797058105,88.86999961853027,104.63899797058106,86.82999961853028,103.52799797058105,84.65999961853028C100.19299797058106,78.10999961853028,98.48299797058105,70.87999961853026,98.48299797058105,63.51999961853027L98.48299797058105,57.569999618530275C104.42599797058105,54.639999618530275,109.55599797058106,50.25999961853027,112.16399797058105,43.959999618530276C113.87399797058106,39.959999618530276,115.02799797058105,35.069999618530275,112.24899797058106,31.289999618530274Z" fill="url(#master_svg1__054548)" fill-opacity="1"/></g><g style="mix-blend-mode:passthrough"><path d="M92.92499816894531,90.10000091552735C91.77099816894531,90.10000091552735,90.53099816894532,90.06000091552734,89.20599816894531,90.06000091552734C89.07799816894531,90.23000091552734,88.90699816894531,90.40000091552734,88.73599816894532,90.53000091552734C87.4959981689453,85.04000091552734,86.42699816894532,79.43000091552734,86.16999816894531,72.54000091552734C87.92299816894531,78.45000091552734,90.14599816894531,85.42000091552734,92.92499816894531,90.10000091552735Z" fill="#DFE0E2" fill-opacity="1"/></g><g style="mix-blend-mode:passthrough"><path d="M53.508999786376954,90.36000061035156C52.95299978637695,89.89000061035156,52.73899978637695,89.55000061035156,52.73899978637695,89.55000061035156C52.73899978637695,89.55000061035156,51.456999786376954,90.02000061035156,48.54899978637695,89.89000061035156C50.98599978637695,85.42000061035156,53.166999786376955,77.05000061035156,52.90999978637695,71.86000061035156C53.294999786376955,81.00000061035156,53.422999786376955,86.74000061035156,53.508999786376954,90.36000061035156Z" fill="#DFE0E2" fill-opacity="1"/></g><g style="mix-blend-mode:passthrough"><path d="M61.03299899291992,46.850000915527346C63.06299899291992,46.850000915527346,64.70899899291992,45.22000091552734,64.70899899291992,43.20000091552734C64.70899899291992,41.180000915527344,63.06299899291992,39.540000915527344,61.03299899291992,39.540000915527344C59.00199899291992,39.540000915527344,57.35599899291992,41.180000915527344,57.35599899291992,43.20000091552734C57.35599899291992,45.22000091552734,59.00199899291992,46.850000915527346,61.03299899291992,46.850000915527346Z" fill="#9CA4B5" fill-opacity="1"/></g><g style="mix-blend-mode:passthrough"><path d="M79.41600244140625,48.770001068115235C82.50900244140625,48.770001068115235,85.01600244140624,46.270001068115235,85.01600244140624,43.200001068115235C85.01600244140624,40.120001068115236,82.50900244140625,37.630001068115234,79.41600244140625,37.630001068115234C76.32300244140625,37.630001068115234,73.81500244140625,40.120001068115236,73.81500244140625,43.200001068115235C73.81500244140625,46.270001068115235,76.32300244140625,48.770001068115235,79.41600244140625,48.770001068115235Z" fill="#9CA4B5" fill-opacity="1"/></g><g style="mix-blend-mode:passthrough"><path d="M80.86900115966797,53.90999984741211C80.86900115966797,55.319999847412106,75.99600115966797,56.45999984741211,70.01000115966796,56.45999984741211C63.98300115966797,56.45999984741211,59.10900115966797,55.319999847412106,59.10900115966797,53.90999984741211L80.86900115966797,53.90999984741211Z" fill="#9CA4B5" fill-opacity="1"/></g><g style="mix-blend-mode:passthrough"><path d="M72.53299822998046,66.15999954223633C69.75399822998047,66.15999954223633,67.53099822998047,63.90999954223633,67.53099822998047,61.17999954223633L67.53099822998047,55.22999954223633L77.57699822998046,55.22999954223633L77.57699822998046,61.17999954223633C77.57699822998046,63.90999954223633,75.31199822998047,66.15999954223633,72.53299822998046,66.15999954223633Z" fill="#9CA4B5" fill-opacity="1"/></g><g style="mix-blend-mode:passthrough"><path d="M71.16499868774414,105.41000030517579C87.24399868774414,105.41000030517579,100.27799868774414,102.90000030517578,100.27799868774414,99.80000030517579C100.27799868774414,96.70000030517578,87.24399868774414,94.18000030517578,71.16499868774414,94.18000030517578C55.08599868774414,94.18000030517578,42.05099868774414,96.70000030517578,42.05099868774414,99.80000030517579C42.05099868774414,102.90000030517578,55.08599868774414,105.41000030517579,71.16499868774414,105.41000030517579Z" fill="#A0A9BA" fill-opacity="0.20000000298023224"/></g></g></g></svg>