<svg xmlns="http://www.w3.org/2000/svg" xmlns:xlink="http://www.w3.org/1999/xlink" fill="none" version="1.1" width="127.5" height="106.69999694824219" viewBox="0 0 127.5 106.69999694824219"><g style="mix-blend-mode:passthrough"><g><g style="mix-blend-mode:passthrough"><path d="M122.60000076293946,55.399999904632566C122.60000076293946,69.59999990463257,116.80000076293945,82.39999990463257,107.50000076293945,91.59999990463257C98.40000076293946,100.69999990463256,85.80000076293945,106.19999990463256,71.90000076293946,106.19999990463256C58.10000076293945,106.19999990463256,45.50000076293945,100.59999990463257,36.300000762939455,91.59999990463257C27.000000762939454,82.39999990463257,21.200000762939453,69.59999990463257,21.200000762939453,55.399999904632566C21.200000762939453,27.299999904632568,43.900000762939456,4.599999904632568,71.90000076293946,4.599999904632568C99.90000076293946,4.599999904632568,122.60000076293946,27.39999990463257,122.60000076293946,55.399999904632566Z" fill="#3D3D3E" fill-opacity="1"/><path d="M123.60000076293946,55.399999904632566Q123.60000076293946,66.05489990463258,119.45730076293945,75.76729990463257Q115.46500076293945,85.12729990463257,108.20330076293945,92.31089990463256Q101.13700076293945,99.37719990463256,91.88490076293945,103.23549990463256Q82.37790076293945,107.19999990463256,71.90000076293946,107.19999990463256Q61.53940076293945,107.19999990463256,51.98850076293945,103.19729990463257Q42.78000076293945,99.33809990463257,35.600700762939454,92.31479990463257Q28.334950762939453,85.12719990463256,24.34268076293945,75.76729990463257Q20.200000762939453,66.05479990463257,20.200000762939453,55.399999904632566Q20.200000762939453,44.84719990463257,24.263050762939454,35.21899990463257Q28.186640762939454,25.92139990463257,35.342400762939455,18.75589990463257Q42.495900762939456,11.592609904632567,51.77590076293946,7.665019904632569Q61.380500762939455,3.6000039046325685,71.90000076293946,3.6000039046325685Q82.41550076293944,3.5999999046325684,92.02510076293946,7.679509904632568Q101.30110076293946,11.617359904632568,108.45810076293945,18.793899904632568Q115.61170076293945,25.96699990463257,119.53680076293945,35.260899904632566Q123.60000076293946,44.881799904632565,123.60000076293946,55.399999904632566L123.60000076293946,55.399999904632566ZM121.60000076293946,55.399999904632566Q121.60000076293946,45.28689990463257,117.69440076293945,36.039099904632565Q113.92080076293945,27.103699904632567,107.04190076293945,20.206099904632566Q100.16040076293946,13.305899904632568,91.24360076293945,9.52048990463257Q82.00860076293945,5.599999904632568,71.90000076293946,5.599999904632568Q61.786300762939455,5.599999904632568,52.555400762939456,9.506849904632569Q43.63510076293945,13.282239904632569,36.757600762939454,20.169099904632567Q29.877560762939453,27.05849990463257,26.105700762939453,35.99659990463257Q22.200000762939453,45.251899904632566,22.200000762939453,55.399999904632566Q22.200000762939453,65.64609990463256,26.182320762939455,74.98269990463257Q30.020570762939453,83.98139990463257,36.999300762939455,90.88519990463257Q43.905500762939454,97.64129990463258,52.76150076293945,101.35269990463257Q61.94160076293945,105.19999990463256,71.90000076293946,105.19999990463256Q81.97750076293946,105.19999990463256,91.11510076293945,101.38949990463257Q100.00230076293946,97.68339990463257,106.79670076293945,90.88909990463257Q113.77930076293946,83.98149990463257,117.61770076293945,74.98269990463257Q121.60000076293946,65.64619990463257,121.60000076293946,55.399999904632566L121.60000076293946,55.399999904632566Z" fill="#000000" fill-opacity="0.33000001311302185"/></g><g style="mix-blend-mode:passthrough"><path d="M118.19999847412109,22.099999618530273C120.4639984741211,22.099999618530273,122.2999984741211,20.269999618530274,122.2999984741211,17.999999618530275C122.2999984741211,15.739999618530273,120.4639984741211,13.899999618530273,118.19999847412109,13.899999618530273C115.93499847412109,13.899999618530273,114.0999984741211,15.739999618530273,114.0999984741211,17.999999618530275C114.0999984741211,20.269999618530274,115.93499847412109,22.099999618530273,118.19999847412109,22.099999618530273Z" fill="#3D3D3E" fill-opacity="1"/><path d="M121.7999984741211,17.999999618530275Q121.7999984741211,16.511319618530273,120.7453284741211,15.455929618530273Q119.69010847412109,14.399999618530273,118.19999847412109,14.399999618530273Q116.7093384741211,14.399999618530273,115.65432847412109,15.455899618530273Q114.5999984741211,16.511119618530273,114.5999984741211,17.999999618530275Q114.5999984741211,19.494409618530273,115.65402847412109,20.547549618530272Q116.7073684741211,21.599999618530273,118.19999847412109,21.599999618530273Q119.69207847412109,21.599999618530273,120.74562847412109,20.547519618530274Q121.7999984741211,19.494209618530274,121.7999984741211,17.999999618530275L121.7999984741211,17.999999618530275ZM122.7999984741211,17.999999618530275Q122.7999984741211,19.908719618530274,121.45236847412109,21.254979618530275Q120.10598847412109,22.599999618530273,118.19999847412109,22.599999618530273Q116.29339847412109,22.599999618530273,114.9472194741211,21.254949618530272Q113.5999984741211,19.908869618530275,113.5999984741211,17.999999618530275Q113.5999984741211,16.097149618530274,114.9469214741211,14.749094618530274Q116.29487847412109,13.399999618530273,118.19999847412109,13.399999618530273Q120.1045184741211,13.399999618530273,121.4526684741211,14.749065618530274Q122.7999984741211,16.097299618530272,122.7999984741211,17.999999618530275L122.7999984741211,17.999999618530275Z" fill="#000000" fill-opacity="0.33000001311302185"/></g><g style="mix-blend-mode:passthrough"><path d="M124.2000015258789,6.1C125.74600152587891,6.1,127.0000015258789,4.85,127.0000015258789,3.3C127.0000015258789,1.75,125.74600152587891,0.5,124.2000015258789,0.5C122.6530015258789,0.5,121.4000015258789,1.75,121.4000015258789,3.3C121.4000015258789,4.85,122.6530015258789,6.1,124.2000015258789,6.1Z" fill="#3D3D3E" fill-opacity="1"/><path d="M126.5000015258789,3.3Q126.5000015258789,2.34544,125.82637152587891,1.67248Q125.15323152587891,1,124.2000015258789,1Q123.24623152587891,1,122.5733015258789,1.67243Q121.9000015258789,2.34523,121.9000015258789,3.3Q121.9000015258789,4.254770000000001,122.5733015258789,4.92757Q123.24623152587891,5.6,124.2000015258789,5.6Q125.15323152587891,5.6,125.82637152587891,4.92752Q126.5000015258789,4.25456,126.5000015258789,3.3L126.5000015258789,3.3ZM127.5000015258789,3.3Q127.5000015258789,4.66906,126.5331315258789,5.63498Q125.56715152587891,6.6,124.2000015258789,6.6Q122.83223152587891,6.6,121.86645452587891,5.63493Q120.9000015258789,4.6692,120.9000015258789,3.3Q120.9000015258789,1.9308,121.86645452587891,0.965066Q122.83223152587891,0,124.2000015258789,0Q125.56715152587891,0,126.5331315258789,0.965022Q127.5000015258789,1.93094,127.5000015258789,3.3L127.5000015258789,3.3Z" fill="#000000" fill-opacity="0.33000001311302185"/></g><g style="mix-blend-mode:passthrough"><path d="M22.8,21.999999618530275C24.346,21.999999618530275,25.6,20.749999618530275,25.6,19.199999618530274C25.6,17.649999618530273,24.346,16.399999618530273,22.8,16.399999618530273C21.253,16.399999618530273,20,17.649999618530273,20,19.199999618530274C20,20.749999618530275,21.253,21.999999618530275,22.8,21.999999618530275Z" fill="#3D3D3E" fill-opacity="1"/><path d="M25.1,19.199999618530274Q25.1,18.245439618530273,24.42637,17.572479618530274Q23.75323,16.899999618530273,22.8,16.899999618530273Q21.84623,16.899999618530273,21.1733,17.572429618530272Q20.5,18.245229618530274,20.5,19.199999618530274Q20.5,20.154769618530274,21.1733,20.827569618530273Q21.84623,21.499999618530275,22.8,21.499999618530275Q23.75323,21.499999618530275,24.42637,20.827519618530275Q25.1,20.154559618530275,25.1,19.199999618530274L25.1,19.199999618530274ZM26.1,19.199999618530274Q26.1,20.569059618530275,25.13313,21.534979618530272Q24.16715,22.499999618530275,22.8,22.499999618530275Q21.43223,22.499999618530275,20.466453,21.534929618530274Q19.5,20.569199618530273,19.5,19.199999618530274Q19.5,17.830799618530275,20.466453,16.865065618530274Q21.43223,15.899999618530273,22.8,15.899999618530273Q24.16715,15.899999618530273,25.13313,16.865021618530275Q26.1,17.830939618530273,26.1,19.199999618530274L26.1,19.199999618530274Z" fill="#000000" fill-opacity="0.33000001311302185"/></g><g style="mix-blend-mode:passthrough"><path d="M5.7,75.9999984741211C8.572,75.9999984741211,10.9,73.66999847412109,10.9,70.7999984741211C10.9,67.92999847412109,8.572,65.5999984741211,5.7,65.5999984741211C2.828,65.5999984741211,0.5,67.92999847412109,0.5,70.7999984741211C0.5,73.66999847412109,2.828,75.9999984741211,5.7,75.9999984741211Z" fill="#3D3D3E" fill-opacity="1"/><path d="M10.4,70.7999984741211Q10.4,68.8542184741211,9.0234,67.4772584741211Q7.64651,66.0999984741211,5.7,66.0999984741211Q3.75349,66.0999984741211,2.3766,67.4772584741211Q1,68.8542184741211,1,70.7999984741211Q1,72.7457784741211,2.3766,74.12273847412109Q3.75349,75.4999984741211,5.7,75.4999984741211Q7.64651,75.4999984741211,9.0234,74.12273847412109Q10.4,72.74576847412109,10.4,70.7999984741211ZM11.4,70.7999984741211Q11.4,73.1599084741211,9.7306,74.82975847412109Q8.0608,76.4999984741211,5.7,76.4999984741211Q3.3392,76.4999984741211,1.6694,74.82975847412109Q0,73.1599084741211,0,70.7999984741211Q0,68.4400884741211,1.6694,66.7702384741211Q3.3392,65.0999984741211,5.7,65.0999984741211Q8.0608,65.0999984741211,9.7306,66.7702384741211Q11.4,68.4400884741211,11.4,70.7999984741211Z" fill="#000000" fill-opacity="0.33000001311302185"/></g><g style="mix-blend-mode:passthrough"><path d="M112.74899552001953,31.789999618530274C111.38099552001952,29.879999618530274,109.32899552001953,30.049999618530272,108.60199552001953,32.389999618530275C106.97699552001953,37.57999961853027,101.88999552001953,39.48999961853028,98.76899552001953,39.959999618530276C96.97399552001953,26.649999618530273,85.51599552001953,16.399999618530273,71.66499552001953,16.399999618530273C57.85599552001953,16.399999618530273,46.44199552001953,26.609999618530274,44.60299552001953,39.82999961853027C41.43999552001953,39.23999961853028,36.82299552001953,37.27999961853027,35.28399552001953,32.349999618530276C34.556995520019534,30.009999618530273,32.504995520019534,29.879999618530274,31.136995520019532,31.749999618530275C28.357995520019532,35.57999961853027,29.511999520019533,40.469999618530274,31.221995520019533,44.469999618530274C33.74499552001953,50.54999961853027,38.617995520019534,54.889999618530275,44.34699552001953,57.819999618530275C44.21899552001953,65.00999961853027,43.70599552001953,70.86999961853027,41.69599552001953,78.43999961853027C41.01199552001953,81.03999961853027,40.41399552001953,83.15999961853028,39.85799552001953,84.56999961853028C39.47299552001953,85.54999961853028,39.21699552001953,86.51999961853028,39.81499552001953,87.49999961853027C40.84099552001953,89.15999961853028,42.85099552001953,89.66999961853027,44.68899552001953,89.96999961853027C46.39899552001953,90.26999961853028,47.85199552001953,90.38999961853027,49.049995520019536,90.43999961853028C51.95699552001953,90.51999961853028,53.23899552001953,90.09999961853028,53.23899552001953,90.09999961853028C53.23899552001953,90.09999961853028,53.45299552001953,90.43999961853028,54.00899552001953,90.89999961853027C55.58999552001953,92.30999961853027,59.99399552001953,95.02999961853027,69.91199552001953,94.64999961853027C82.26699552001953,94.17999961853027,87.01299552001953,92.98999961853028,89.19299552001954,91.11999961853027C89.36399552001953,90.94999961853027,89.53499552001952,90.81999961853028,89.66299552001954,90.64999961853027C91.03099552001953,90.64999961853027,92.27099552001954,90.68999961853028,93.38199552001953,90.68999961853028C97.27299552001953,90.72999961853027,100.05199552001953,90.81999961853028,102.27499552001953,90.00999961853027C104.02699552001953,89.36999961853027,105.13899552001953,87.32999961853028,104.02699552001953,85.15999961853028C100.69299552001954,78.60999961853028,98.98299552001953,71.37999961853026,98.98299552001953,64.02999961853027L98.98299552001953,58.069999618530275C104.92499552001954,55.139999618530275,110.05499552001953,50.75999961853027,112.66299552001954,44.469999618530274C114.37299552001953,40.469999618530274,115.52799552001953,35.57999961853027,112.74899552001953,31.789999618530274Z" fill="#FFFFFF" fill-opacity="0.30000001192092896"/><path d="M111.93599552001953,32.37229961853028Q111.24229552001952,31.403699618530275,110.55839552001953,31.488599618530273Q109.90389552001953,31.569899618530272,109.55699552001953,32.68669961853027L109.55629552001953,32.68879961853027Q108.35749552001953,36.51769961853027,104.78279552001953,38.78899961853027Q102.14949552001953,40.46219961853028,98.91789552001953,40.94879961853027L97.77799552001953,40.09369961853027Q97.13809552001953,35.349099618530275,94.84639552001953,31.141999618530274Q92.61029552001953,27.036999618530274,89.07869552001952,23.940669618530272Q85.52829552001953,20.827739618530273,81.13309552001954,19.143299618530275Q76.58429552001954,17.399997618530275,71.66499552001953,17.399997618530275L71.66499552001953,16.399999618530273L71.66499552001953,17.399999618530273Q66.76229552001953,17.399999618530273,62.22689552001953,19.135809618530274Q57.847095520019536,20.812089618530273,54.30349552001953,23.910329618530273Q50.78119552001953,26.989899618530274,48.54219552001953,31.072699618530272Q46.249195520019526,35.25389961853027,45.59349552001953,39.96779961853027L44.41959552001953,40.81299961853027Q41.24789552001953,40.22139961853027,38.77367552001953,38.54539961853027Q35.47234552001953,36.30919961853027,34.329425520019534,32.64799961853028L34.32902552001953,32.64669961853028Q33.98554552001953,31.541099618530275,33.333925520019534,31.464399618530273Q32.644365520019534,31.383199618530274,31.94408552001953,32.34039961853027L31.136995520019532,31.749999618530275L31.946385520019533,32.337299618530274Q28.911115520019532,36.52049961853027,32.14150552001953,44.07689961853028L32.14563552001953,44.086699618530275Q35.50104552001953,52.172699618530274,44.80229552001953,56.92969961853027L45.34679552001953,57.837799618530276Q45.24179552001953,63.74109961853027,44.72019552001953,68.10609961853027Q44.10299552001953,73.27149961853027,42.66249552001953,78.69659961853027L41.69599552001953,78.43999961853027L42.66309552001953,78.69439961853027Q41.48699552001953,83.16489961853027,40.78829552001953,84.93679961853027L39.85799552001953,84.56999961853028L40.788795520019534,84.93569961853028Q40.49839552001953,85.67459961853028,40.46499552001953,86.11139961853027Q40.42859552001953,86.58569961853027,40.66859552001953,86.97909961853027L39.81499552001953,87.49999961853027L40.66559552001953,86.97419961853028Q41.19399552001953,87.82919961853027,42.34479552001953,88.32729961853028Q43.26009552001953,88.72349961853027,44.85009552001953,88.98309961853028L44.86179552001953,88.98499961853027Q46.95059552001953,89.35149961853027,49.09169552001953,89.44089961853027L49.049995520019536,90.43999961853028L49.07749552001953,89.44039961853028Q50.81079552001953,89.48809961853027,52.096195520019535,89.30959961853027Q52.69179552001953,89.22689961853027,52.92779552001953,89.14959961853027L52.927695520019526,89.14969961853028L54.08529552001953,89.56729961853027Q54.21399552001953,89.77169961853028,54.64649552001953,90.12949961853028L54.67459552001953,90.15369961853027Q56.275595520019536,91.58159961853028,59.137695520019534,92.49339961853028Q63.53249552001953,93.89369961853028,69.87369552001954,93.65069961853027L69.87399552001953,93.65069961853027Q78.65569552001953,93.31659961853028,83.17539552001952,92.42869961853027Q87.00939552001952,91.67559961853027,88.54189552001952,90.36099961853027L89.19299552001954,91.11999961853027L88.48799552001952,90.41079961853028Q88.55979552001953,90.33949961853027,88.68789552001954,90.22209961853028Q88.83449552001953,90.08789961853027,88.86409552001953,90.04849961853027L89.66299552001954,89.64999961853027Q90.39059552001953,89.64999961853027,91.73139552001953,89.67169961853027Q92.86339552001954,89.68999961853028,93.38199552001953,89.68999961853028L93.39229552001953,89.69009961853027Q93.64829552001953,89.69269961853027,94.14329552001954,89.69829961853027Q97.37469552001953,89.73489961853028,98.67639552001953,89.65479961853028Q100.66499552001953,89.53229961853027,101.93269552001954,89.07039961853027L102.27499552001953,90.00999961853027L101.93189552001954,89.07069961853027Q102.91179552001954,88.71279961853027,103.30159552001953,87.77489961853027Q103.72339552001954,86.76019961853028,103.13709552001953,85.61599961853027L103.13579552001953,85.61359961853027Q97.98299552001953,75.49029961853027,97.98299552001953,64.02999961853027L98.98299552001953,64.02999961853027L97.98299552001953,64.02999961853027L97.98299552001953,58.069999618530275L98.54079552001953,57.17309961853027Q108.31099552001953,52.35539961853027,111.73929552001952,44.08699961853027L111.74349552001954,44.07689961853028Q114.97519552001953,36.517299618530274,111.94259552001954,32.38129961853027L111.93599552001953,32.37229961853028ZM113.56199552001954,31.207699618530274L112.74899552001953,31.789999618530274L113.55539552001953,31.198699618530274Q117.26259552001953,36.25459961853028,113.58249552001953,44.86309961853027L112.66299552001954,44.469999618530274L113.58679552001954,44.852999618530276Q109.87029552001952,53.81649961853027,99.42529552001953,58.96689961853027L98.98299552001953,58.069999618530275L99.98299552001953,58.069999618530275L99.98299552001953,64.02999961853027L99.98299552001953,64.02999961853027Q99.98299552001953,75.01059961853028,104.91819552001954,84.70639961853027L104.02699552001953,85.15999961853028L104.91699552001953,84.70399961853028Q105.92569552001953,86.67249961853027,105.14839552001953,88.54259961853028Q104.42189552001953,90.29039961853027,102.61809552001954,90.94929961853028L102.61739552001953,90.94959961853027Q101.07739552001954,91.51069961853027,98.79929552001953,91.65099961853028Q97.42479552001953,91.73559961853027,94.12059552001953,91.69819961853027Q93.61969552001953,91.69249961853028,93.37169552001953,91.68989961853028L93.38199552001953,90.68999961853028L93.38199552001953,91.68999961853028Q92.84709552001954,91.68999961853028,91.69909552001954,91.67139961853027Q90.37429552001953,91.64999961853027,89.66299552001954,91.64999961853027L89.66299552001954,90.64999961853027L90.46189552001954,91.25149961853027Q90.32129552001953,91.43819961853028,90.03859552001953,91.69709961853027Q89.94069552001953,91.78669961853028,89.89799552001952,91.82919961853027L89.84409552001952,91.87899961853027Q87.91179552001952,93.53649961853027,83.56089552001953,94.39119961853028Q78.88789552001953,95.30919961853027,69.94999552001954,95.64929961853028L69.91199552001953,94.64999961853027L69.95029552001952,95.64929961853028Q63.25909552001953,95.90559961853027,58.53059552001953,94.39909961853027Q55.26249552001953,93.35779961853028,53.34339552001953,91.64629961853028L54.00899552001953,90.89999961853027L53.37159552001953,91.67049961853027Q52.692095520019535,91.10829961853027,52.39269552001953,90.63269961853027L53.23899552001953,90.09999961853028L53.55029552001953,91.05029961853027L53.55019552001953,91.05029961853027Q53.14399552001953,91.18329961853027,52.37129552001953,91.29059961853028Q50.92169552001953,91.49189961853027,49.02249552001953,91.43959961853027L49.00829552001953,91.43909961853028Q46.73519552001953,91.34429961853027,44.51619552001953,90.95499961853028L44.68899552001953,89.96999961853027L44.52789552001953,90.95689961853027Q42.69319552001953,90.65749961853027,41.55019552001953,90.16269961853027Q39.82299552001953,89.41499961853027,38.96436552001953,88.02579961853027L38.96137552001953,88.02089961853028Q38.38509552001953,87.07649961853028,38.47079552001953,85.95859961853027Q38.52722552001953,85.22259961853027,38.92724552001953,84.20429961853027L38.92771552001953,84.20319961853028Q39.58299552001953,82.54139961853028,40.728895520019535,78.18559961853028L40.72949552001953,78.18339961853027Q42.13379552001953,72.89439961853027,42.73429552001953,67.86889961853026Q43.243895520019535,63.60429961853028,43.34719552001953,57.802199618530274L44.34699552001953,57.819999618530275L43.89169552001953,58.71029961853027Q33.93563552001953,53.61849961853027,30.29836652001953,44.85329961853027L31.221995520019533,44.469999618530274L30.30249852001953,44.86309961853027Q26.62631552001953,36.26379961853027,30.32761552001953,31.162699618530276L30.329908520019533,31.159599618530272Q30.96772552001953,30.287699618530276,31.78415552001953,29.84619961853027Q32.66198552001953,29.371399618530273,33.56782552001953,29.478099618530273Q34.50990552001953,29.589099618530273,35.22434552001953,30.294499618530274Q35.89977552001953,30.961499618530276,36.23897552001953,32.053299618530275L35.28399552001953,32.349999618530276L36.238565520019534,32.051999618530274Q37.173065520019534,35.045599618530275,39.89529552001953,36.88959961853027Q42.02439552001953,38.33179961853027,44.78639552001953,38.846999618530276L44.60299552001953,39.82999961853027L43.61249552001953,39.692199618530275Q44.31889552001953,34.61439961853027,46.78859552001953,30.110999618530272Q49.19799552001953,25.71743961853027,52.98699552001953,22.404669618530274Q56.79919552001953,19.07168961853027,61.51209552001953,17.267939618530274Q66.39269552001953,15.399999618530273,71.66499552001953,15.399999618530273L71.66499552001953,15.399999618530273Q76.95439552001953,15.399999618530273,81.84879552001954,17.275755618530273Q86.57799552001953,19.088159618530273,90.39729552001953,22.436829618530275Q94.19639552001954,25.767809618530272,96.60269552001954,30.185199618530273Q99.07089552001953,34.71619961853027,99.75999552001953,39.82629961853027L98.76899552001953,39.959999618530276L98.62009552001953,38.971099618530275Q101.43369552001953,38.54739961853028,103.71019552001952,37.100999618530274Q106.66739552001953,35.221999618530276,107.64769552001952,32.091199618530275L108.60199552001953,32.389999618530275L107.64699552001953,32.093299618530274Q107.98579552001954,31.002999618530275,108.65809552001953,30.332399618530275Q109.37179552001953,29.62059961853027,110.31189552001953,29.503899618530273Q111.22429552001954,29.390499618530274,112.10509552001953,29.870999618530274Q112.92499552001954,30.31839961853027,113.56199552001954,31.207699618530274Z" fill="#000000" fill-opacity="0.33000001311302185"/></g><g style="mix-blend-mode:passthrough"><path d="M93.42499816894531,91.11000091552734Q92.86242816894531,91.11000091552734,91.68311816894531,91.08620091552734Q90.38570816894531,91.06000091552734,89.70499816894531,91.06000091552734L89.70499816894531,90.56000091552734L90.10443816894531,90.86080091552734Q89.86431816894532,91.17970091552735,89.53759816894531,91.42800091552735L88.9188581689453,91.89840091552735L88.74732816894532,91.14030091552735Q87.65400516894532,86.30860091552734,87.08931816894531,82.63981091552735Q86.3471891689453,77.81823091552734,86.17034316894531,73.05856381552735L86.02331816894531,69.10154091552734L87.1493551689453,72.89781591552735Q88.81345816894532,78.50811091552734,90.1323281689453,82.11452091552735Q92.00888816894532,87.24590091552734,93.85491816894532,90.35470091552735L94.30340816894531,91.11000091552734L93.42499816894531,91.11000091552734ZM93.42499816894531,90.11000091552734L93.42499816894531,90.61000091552734L92.99507816894531,90.86530091552734Q91.10162816894531,87.67660091552735,89.1931681689453,82.45798091552734Q87.86358816894531,78.82231091552734,86.19064116894532,73.18218591552734L86.66999816894531,73.04000091552734L87.16965316894532,73.02143421552735Q87.3443521689453,77.72328091552734,88.07767816894531,82.48769091552734Q88.63704816894531,86.12190091552735,89.72266816894532,90.91970091552734L89.23499816894531,91.03000091552734L88.93239816894531,90.63200091552734Q89.14879816894532,90.46740091552735,89.30555816894531,90.25920091552734L89.45558816894531,90.06000091552734L89.70499816894531,90.06000091552734Q90.39587816894532,90.06000091552734,91.70329816894531,90.08640091552735Q92.87259816894532,90.11000091552734,93.42499816894531,90.11000091552734Z" fill="#000000" fill-opacity="0.33000001311302185"/></g><g style="mix-blend-mode:passthrough"><path d="M53.68520978637695,91.24180061035156Q53.069669786376956,90.72150061035157,52.815279786376955,90.31540061035156L53.23899978637695,90.05000061035156L53.41098978637695,90.51950061035157Q53.04213978637695,90.65460061035157,52.307329786376954,90.76340061035157Q50.891549786376956,90.97290061035156,49.026662386376955,90.88950061035156L48.225860786376956,90.85370061035157L48.61022878637695,90.15030061035156Q50.45474978637695,86.77460061035157,51.75403978637695,81.52855061035156Q53.09463978637695,76.11569061035156,52.91060978637695,72.38463341035157L53.90955978637695,72.33903551035156Q54.280959786376954,81.18870061035156,54.499199786376956,90.48000061035157Q54.50516978637695,90.73400061035156,54.507859786376955,90.84820061035157L54.53401978637695,91.95940061035157L53.68520978637695,91.24180061035156ZM54.330789786376954,90.47820061035156L54.007999786376956,90.86000061035156L53.50813978637695,90.87180061035156Q53.50520978637695,90.74750061035157,53.49947978637695,90.50340061035156Q53.28143978637695,81.22141061035157,52.910439786376955,72.38096571035156L53.40999978637695,72.36000061035156L53.909389786376956,72.33536781035156Q54.100669786376955,76.21334061035157,52.724709786376955,81.76895061035157Q51.39432978637695,87.14050061035157,49.487770786376956,90.62980061035157L49.04899978637695,90.39000061035156L49.07133718637695,89.89050061035157Q50.840219786376956,89.96960061035156,52.16091978637695,89.77410061035157Q52.79435978637695,89.68040061035157,53.06700978637696,89.58050061035156L53.44755978637696,89.44110061035155L53.662719786376954,89.78460061035156Q53.834329786376955,90.05850061035156,54.330789786376954,90.47820061035156Z" fill="#000000" fill-opacity="0.33000001311302185"/></g><g style="mix-blend-mode:passthrough"><path d="M61.531998992919924,47.360000915527344C63.56299899291992,47.360000915527344,65.20899899291992,45.72000091552734,65.20899899291992,43.70000091552734C65.20899899291992,41.680000915527344,63.56299899291992,40.040000915527344,61.531998992919924,40.040000915527344C59.50199899291992,40.040000915527344,57.85599899291992,41.680000915527344,57.85599899291992,43.70000091552734C57.85599899291992,45.72000091552734,59.50199899291992,47.360000915527344,61.531998992919924,47.360000915527344Z" fill="#4F4F4F" fill-opacity="1"/><path d="M64.70899899291992,43.70000091552734Q64.70899899291992,42.392460915527344,63.77933899291992,41.46682091552734Q62.84849899291992,40.540000915527344,61.531998992919924,40.540000915527344Q60.21619899291992,40.540000915527344,59.28556899291992,41.466780915527345Q58.35599899291992,42.392510915527346,58.35599899291992,43.70000091552734Q58.35599899291992,45.00749091552734,59.28556899291992,45.93322091552734Q60.21619899291992,46.860000915527344,61.531998992919924,46.860000915527344Q62.84849899291992,46.860000915527344,63.77933899291992,45.933180915527345Q64.70899899291992,45.00754091552734,64.70899899291992,43.70000091552734L64.70899899291992,43.70000091552734ZM65.70899899291992,43.70000091552734Q65.70899899291992,45.423020915527346,64.48490899291993,46.64182091552735Q63.26143899291992,47.860000915527344,61.531998992919924,47.860000915527344Q59.803198992919924,47.860000915527344,58.579928992919925,46.641790915527345Q57.35599899291992,45.422910915527346,57.35599899291992,43.70000091552734Q57.35599899291992,41.97709091552734,58.57992799291992,40.758215915527344Q59.803198992919924,39.540000915527344,61.531998992919924,39.540000915527344Q63.26143899291992,39.540000915527344,64.48490899291993,40.75818291552734Q65.70899899291992,41.97698091552734,65.70899899291992,43.70000091552734L65.70899899291992,43.70000091552734Z" fill="#000000" fill-opacity="0.33000001311302185"/></g><g style="mix-blend-mode:passthrough"><path d="M79.91500244140624,49.270001068115235C83.00800244140625,49.270001068115235,85.51600244140624,46.78000106811523,85.51600244140624,43.700001068115235C85.51600244140624,40.620001068115236,83.00800244140625,38.130001068115234,79.91500244140624,38.130001068115234C76.82200244140626,38.130001068115234,74.31500244140625,40.620001068115236,74.31500244140625,43.700001068115235C74.31500244140625,46.78000106811523,76.82200244140626,49.270001068115235,79.91500244140624,49.270001068115235Z" fill="#4F4F4F" fill-opacity="1"/><path d="M85.01600244140624,43.700001068115235Q85.01600244140624,41.598711068115236,83.52290244140625,40.114621068115234Q82.02925244140624,38.630001068115234,79.91500244140624,38.630001068115234Q77.80089244140625,38.630001068115234,76.30765244140625,40.114581068115235Q74.81500244140625,41.59858106811524,74.81500244140625,43.700001068115235Q74.81500244140625,45.80142106811523,76.30765244140625,47.285421068115234Q77.80089244140625,48.770001068115235,79.91500244140624,48.770001068115235Q82.02925244140624,48.770001068115235,83.52290244140625,47.285381068115235Q85.01600244140624,45.80129106811523,85.01600244140624,43.700001068115235L85.01600244140624,43.700001068115235ZM86.01600244140624,43.700001068115235Q86.01600244140624,46.217281068115234,84.22786244140624,47.99462106811524Q82.44168244140624,49.770001068115235,79.91500244140624,49.770001068115235Q77.38837244140625,49.770001068115235,75.60260244140625,47.99458106811524Q73.81500244140625,46.217351068115235,73.81500244140625,43.700001068115235Q73.81500244140625,41.18266106811524,75.60260244140625,39.40542106811523Q77.38837244140625,37.630001068115234,79.91500244140624,37.630001068115234Q82.44169244140625,37.630001068115234,84.22786244140624,39.40538106811523Q86.01600244140624,41.182721068115235,86.01600244140624,43.700001068115235L86.01600244140624,43.700001068115235Z" fill="#000000" fill-opacity="0.33000001311302185"/></g><g style="mix-blend-mode:passthrough"><path d="M81.36900115966797,54.41999816894531C81.36900115966797,55.81999816894531,76.49500115966796,56.96999816894531,70.51000115966796,56.96999816894531C64.48200115966797,56.96999816894531,59.60900115966797,55.81999816894531,59.60900115966797,54.41999816894531L81.36900115966797,54.41999816894531Z" fill="#4F4F4F" fill-opacity="1"/><path d="M81.86900115966797,54.41999816894531Q81.86900115966797,55.86698816894531,78.29830115966797,56.706718168945315Q75.05280115966796,57.46999816894531,70.51000115966796,57.46999816894531Q65.93858115966796,57.46999816894531,62.68482115966797,56.70678816894531Q59.10900115966797,55.868028168945315,59.10900115966797,54.41999840736431L59.10900115966797,53.91999816894531L81.86900115966797,53.91999816894531L81.86900115966797,54.41999816894531ZM80.86900115966797,54.41999816894531L81.36900115966797,54.41999816894531L81.36900115966797,54.91999816894531L59.60900115966797,54.91999816894531L59.60900115966797,54.41999816894531L60.10900115966797,54.41999840736431Q60.10900115966797,54.64109316894531,60.70654115966797,54.97149716894531Q61.473291159667966,55.395465168945314,62.91318115966797,55.73320816894531Q66.05429115966797,56.46999816894531,70.51000115966796,56.46999816894531Q74.93680115966797,56.46999816894531,78.06940115966796,55.73327816894531Q79.50620115966797,55.39538816894531,80.27180115966797,54.97160516894531Q80.86900115966797,54.64103116894531,80.86900115966797,54.41999816894531Z" fill="#000000" fill-opacity="0.33000001311302185"/></g><g style="mix-blend-mode:passthrough"><path d="M73.03199877929687,66.6600016784668C70.25399877929688,66.6600016784668,68.02999877929688,64.4100016784668,68.02999877929688,61.6900016784668L68.02999877929688,55.7400016784668L78.07699877929687,55.7400016784668L78.07699877929687,61.6900016784668C78.07699877929687,64.4100016784668,75.81099877929688,66.6600016784668,73.03199877929687,66.6600016784668Z" fill="#4F4F4F" fill-opacity="1"/><path d="M78.57699877929687,61.6900016784668Q78.57699877929687,63.9419916784668,76.94795877929687,65.5507616784668Q75.31842877929688,67.1600016784668,73.03199877929687,67.1600016784668Q70.74847877929687,67.1600016784668,69.13583877929688,65.5487016784668Q67.52999877929688,63.944191678466794,67.52999877929688,61.6900016784668L67.52999877929688,55.2400016784668L78.57699877929687,55.2400016784668L78.57699877929687,61.6900016784668ZM77.57699877929687,61.6900016784668L77.57699877929687,55.7400016784668L78.07699877929687,55.7400016784668L78.07699877929687,56.2400016784668L68.02999877929688,56.2400016784668L68.02999877929688,55.7400016784668L68.52999877929688,55.7400016784668L68.52999877929688,61.6900016784668Q68.52999877929688,63.529731678466796,69.84265877929687,64.84130167846679Q71.16244877929688,66.1600016784668,73.03199877929687,66.1600016784668Q74.90787877929688,66.1600016784668,76.24528877929687,64.83924167846679Q77.57699877929687,63.524111678466795,77.57699877929687,61.6900016784668Z" fill="#000000" fill-opacity="0.33000001311302185"/></g><g style="mix-blend-mode:passthrough"><path d="M71.66399868774414,105.91000244140625C87.74299868774415,105.91000244140625,100.77799868774414,103.40000244140626,100.77799868774414,100.30000244140625C100.77799868774414,97.20000244140626,87.74299868774415,94.69000244140625,71.66399868774414,94.69000244140625C55.58499868774414,94.69000244140625,42.55099868774414,97.20000244140626,42.55099868774414,100.30000244140625C42.55099868774414,103.40000244140626,55.58499868774414,105.91000244140625,71.66399868774414,105.91000244140625Z" fill="#4F4F4F" fill-opacity="0.30000001192092896"/><path d="M100.27799868774414,100.30000244140625Q100.27799868774414,99.47971244140625,98.28269868774413,98.57062244140624Q96.12719868774414,97.58852244140625,92.15599868774413,96.82347244140625Q83.67699868774415,95.19000244140625,71.66399868774414,95.19000244140625Q59.65099868774414,95.19000244140625,51.17246868774414,96.82347244140625Q47.201528687744144,97.58851244140625,45.04611868774414,98.57062244140624Q43.05100068774414,99.47969244140626,43.05100068774414,100.30000244140625Q43.05099868774414,101.12031244140626,45.04610868774414,102.02938244140626Q47.20150868774414,103.01149244140625,51.17246868774414,103.77653244140625Q59.65099868774414,105.41000244140625,71.66399868774414,105.41000244140625Q83.67699868774415,105.41000244140625,92.15599868774413,103.77653244140625Q96.12719868774414,103.01149244140625,98.28269868774413,102.02938244140626Q100.27799868774414,101.12029244140625,100.27799868774414,100.30000244140625L100.27799868774414,100.30000244140625ZM101.27799868774414,100.30000244140625Q101.27799868774414,103.03758244140624,92.34519868774413,104.75850244140625Q83.77249868774413,106.41000244140625,71.66399868774414,106.41000244140625Q59.55559868774414,106.41000244140625,50.98328868774414,104.75850244140625Q42.05099868774414,103.03758244140624,42.05100068774414,100.30000244140625Q42.05099868774414,97.56242244140626,50.98328868774414,95.84153244140624Q59.55549868774414,94.19000244140625,71.66399868774414,94.19000244140625Q83.77259868774414,94.19000244140625,92.34519868774413,95.84153244140624Q101.27799868774414,97.56243244140624,101.27799868774414,100.30000244140625L101.27799868774414,100.30000244140625Z" fill="#000000" fill-opacity="0.09900000786781327"/></g></g></g></svg>