<svg xmlns="http://www.w3.org/2000/svg" xmlns:xlink="http://www.w3.org/1999/xlink" fill="none" version="1.1" width="24" height="24" viewBox="0 0 24 24"><clipPath id="master_svg0_19_2747"><rect x="0" y="0" width="24" height="24" rx="0"/></clipPath><g clip-path="url(#master_svg0_19_2747)" style="mix-blend-mode:passthrough"><g><g style="mix-blend-mode:passthrough"><path d="M7.5,3C7.10218,3,6.72064,3.15804,6.43934,3.43934C6.15804,3.72064,6,4.102180000000001,6,4.5C6,4.897819999999999,6.15804,5.27936,6.43934,5.56066C6.72064,5.84196,7.10218,6,7.5,6C7.5,6,10.65402,6,10.65402,6C10.53195,5.68061,10.37741,5.32942,10.18628,4.981920000000001C9.55732,3.83834,8.6939,3,7.5,3C7.5,3,7.5,3,7.5,3ZM11,8C11,8,11,11,11,11C11,11,3,11,3,11C3,11,3,8,3,8C3,8,11,8,11,8C11,8,11,8,11,8ZM4.33772,6C4.117430000000001,5.53557,4,5.02384,4,4.5C4,3.57174,4.36875,2.6814999999999998,5.02513,2.02513C5.6815,1.368749,6.57174,1,7.5,1C9.8061,1,11.1927,2.66166,11.9387,4.018079999999999C11.9595,4.055899999999999,11.9799,4.09368,12,4.13141C12.0201,4.09368,12.0405,4.055899999999999,12.0613,4.018079999999999C12.8073,2.66166,14.1939,1,16.5,1C17.4283,1,18.3185,1.368749,18.9749,2.02513C19.6313,2.6814999999999998,20,3.57174,20,4.5C20,5.02384,19.8826,5.53557,19.6623,6C19.6623,6,22,6,22,6C22.5523,6,23,6.44772,23,7C23,7,23,12,23,12C23,12.5523,22.5523,13,22,13C22,13,21,13,21,13C21,13,21,22,21,22C21,22.5523,20.5523,23,20,23C20,23,4,23,4,23C3.44772,23,3,22.5523,3,22C3,22,3,13,3,13C3,13,2,13,2,13C1.447715,13,1,12.5523,1,12C1,12,1,7,1,7C1,6.44772,1.447715,6,2,6C2,6,4.33772,6,4.33772,6C4.33772,6,4.33772,6,4.33772,6ZM5,13C5,13,5,21,5,21C5,21,11,21,11,21C11,21,11,13,11,13C11,13,5,13,5,13C5,13,5,13,5,13ZM13,13C13,13,13,21,13,21C13,21,19,21,19,21C19,21,19,13,19,13C19,13,13,13,13,13C13,13,13,13,13,13ZM21,11C21,11,13,11,13,11C13,11,13,8,13,8C13,8,21,8,21,8C21,8,21,11,21,11C21,11,21,11,21,11ZM16.5,6C16.8978,6,17.2794,5.84196,17.5607,5.56066C17.842,5.27936,18,4.897819999999999,18,4.5C18,4.102180000000001,17.842,3.72064,17.5607,3.43934C17.2794,3.15804,16.8978,3,16.5,3C15.3061,3,14.4427,3.83834,13.8137,4.981920000000001C13.6226,5.32942,13.4681,5.68061,13.346,6C13.346,6,16.5,6,16.5,6C16.5,6,16.5,6,16.5,6Z" fill-rule="evenodd" fill="#FFFFFF" fill-opacity="1"/></g></g></g></svg>