<svg xmlns="http://www.w3.org/2000/svg" xmlns:xlink="http://www.w3.org/1999/xlink" fill="none" version="1.1" width="24" height="21.643590927124023" viewBox="0 0 24 21.643590927124023"><path d="M1.09091,8.55268L4.36364,8.55268L4.36364,21.6436L1.09091,21.6436C0.488417,21.6436,0,21.1552,0,20.5527L0,9.64359C0,9.0411,0.488417,8.55268,1.09091,8.55268ZM6.86509,7.14214L13.8469,0.16032C14.0388,-0.0320848,14.343,-0.0539469,14.5604,0.109047L15.4909,0.807229C16.0194,1.20396,16.2574,1.87961,16.0942,2.51996L14.8364,7.46178L21.8182,7.46178C23.0232,7.46178,24,8.43861,24,9.64359L24,11.9389C24.0003,12.224,23.9447,12.5064,23.8364,12.7701L20.46,20.9683C20.2916,21.3771,19.893,21.6438,19.4509,21.6436L7.63636,21.6436C7.03387,21.6436,6.54545,21.1552,6.54545,20.5527L6.54545,7.91341C6.54552,7.62411,6.66049,7.34668,6.86509,7.14214Z" fill="#FFC7C7" fill-opacity="1"/></svg>