<svg xmlns="http://www.w3.org/2000/svg" xmlns:xlink="http://www.w3.org/1999/xlink" fill="none" version="1.1" width="30" height="30" viewBox="0 0 30 30"><defs><filter id="master_svg1_17_471" filterUnits="userSpaceOnUse" color-interpolation-filters="sRGB" x="0" y="0" width="30" height="30"><feFlood flood-opacity="0" result="BackgroundImageFix"/><feBlend mode="normal" in="SourceGraphic" in2="BackgroundImageFix" result="shape"/><feGaussianBlur stdDeviation="1.5" result="effect1_foregroundBlur"/></filter></defs><clipPath id="master_svg0_17_471"><rect x="3" y="3" width="24" height="24" rx="0"/></clipPath><g filter="url(#master_svg1_17_471)"><g><g style="mix-blend-mode:passthrough"><path d="M17.461928125,5.493249428939819C18.250828124999998,5.166402428939819,19.096228125,4.998174428939819,19.950128125,4.998174428939819C20.803928125,4.998174428939819,21.649428125,5.1664034289398195,22.438228125,5.493249428939819C23.227128125,5.820095428939819,23.943728125,6.299154428939819,24.547428125,6.903064428939819C25.151128125,7.50661442893982,25.630128125,8.22318442893982,25.956828125,9.01185442893982C26.283728125,9.800664428939818,26.451928125,10.64614442893982,26.451928125,11.50000442893982C26.451928125,12.353854428939819,26.283728125,13.19933442893982,25.956828125,13.988144428939819C25.630028125,14.77688442893982,25.151028125,15.49347442893982,24.547228125,16.09707442893982C24.547228125,16.09707442893982,15.707228125,24.93707442893982,15.707228125,24.93707442893982C15.316728125,25.32767442893982,14.683528125,25.32767442893982,14.293028125,24.93707442893982C14.293028125,24.93707442893982,5.453008125,16.09707442893982,5.453008125,16.09707442893982C4.233783125,14.877874428939819,3.548828125,13.22424442893982,3.548828125,11.50000442893982C3.548828125,9.77575442893982,4.233784125,8.12212442893982,5.453008125,6.9028944289398195C6.672238125,5.683664428939819,8.325868125,4.998709201939819,10.050118125000001,4.998709201939819C11.774368125,4.998709201939819,13.427998125,5.683665428939819,14.647228125,6.9028944289398195C14.647228125,6.9028944289398195,15.000128125,7.255784428939819,15.000128125,7.255784428939819C15.000128125,7.255784428939819,15.352828125,6.903064428939819,15.352828125,6.903064428939819C15.956428125,6.299234428939819,16.673228125,5.820065428939819,17.461928125,5.493249428939819C17.461928125,5.493249428939819,17.461928125,5.493249428939819,17.461928125,5.493249428939819Z" fill="#E90000" fill-opacity="1"/></g></g></g></svg>