<svg xmlns="http://www.w3.org/2000/svg" xmlns:xlink="http://www.w3.org/1999/xlink" fill="none" version="1.1" width="24" height="24" viewBox="0 0 24 24"><clipPath id="master_svg0_6_13932"><rect x="0" y="0" width="24" height="24" rx="0"/></clipPath><g clip-path="url(#master_svg0_6_13932)" style="mix-blend-mode:passthrough"><g><g style="mix-blend-mode:passthrough"><path d="M7.5,12C7.5,12.39782,7.34196,12.77936,7.06066,13.06066C6.7793600000000005,13.34196,6.39782,13.5,6,13.5C5.60218,13.5,5.220644,13.34196,4.93934,13.06066C4.658035,12.77936,4.500000000000001,12.39782,4.5,12C4.5,11.60218,4.658035,11.220645,4.93934,10.93934C5.220644,10.658036,5.60218,10.499999999999998,6,10.5C6.39782,10.499999999999998,6.7793600000000005,10.658036,7.06066,10.93934C7.34196,11.220645,7.5,11.60218,7.5,12C7.5,12,7.5,12,7.5,12C7.5,12,7.5,12,7.5,12ZM13.5,12C13.5,12.39782,13.34196,12.77936,13.06066,13.06066C12.77936,13.34196,12.39782,13.5,12,13.5C11.60218,13.5,11.22064,13.34196,10.93934,13.06066C10.65804,12.77936,10.5,12.39782,10.5,12C10.5,11.60218,10.65804,11.220645,10.93934,10.93934C11.22064,10.658036,11.60218,10.499999999999998,12,10.5C12.39782,10.499999999999998,12.77936,10.658036,13.06066,10.93934C13.34196,11.220645,13.5,11.60218,13.5,12C13.5,12,13.5,12,13.5,12ZM18,13.5C18.3978,13.5,18.779400000000003,13.34196,19.0607,13.06066C19.342,12.77936,19.5,12.39782,19.5,12C19.5,11.60218,19.342,11.220645,19.0607,10.93934C18.779400000000003,10.658036,18.3978,10.5,18,10.5C17.6022,10.5,17.220599999999997,10.658036,16.9393,10.93934C16.658,11.220645,16.5,11.60218,16.5,12C16.5,12.39782,16.658,12.77936,16.9393,13.06066C17.220599999999997,13.34196,17.6022,13.5,18,13.5C18,13.5,18,13.5,18,13.5C18,13.5,18,13.5,18,13.5Z" fill="#FFFFFF" fill-opacity="1"/></g><g style="mix-blend-mode:passthrough"><path d="M3.2475,23.7045C3.2475,23.7045,3.2775,23.6985,3.2775,23.6985C6.0225,23.154,7.6995,22.4355,8.4795,22.041C9.62788,22.3473,10.8115,22.5016,12,22.5C18.627,22.5,24,17.799,24,12C24,6.201,18.627,1.5,12,1.5C5.373,1.5,0,6.201,0,12C0,14.64,1.1145,17.055,2.955,18.9C2.82624,20.0851,2.56253,21.2517,2.169,22.377C2.169,22.377,2.1645,22.3935,2.1645,22.3935C2.05266,22.7158,1.9306,23.0345,1.7985,23.349C1.68,23.628,1.9095,23.94,2.208,23.892C2.55549,23.8351,2.90204,23.7726,3.2475,23.7045C3.2475,23.7045,3.2475,23.7045,3.2475,23.7045C3.2475,23.7045,3.2475,23.7045,3.2475,23.7045ZM4.4475,19.0425C4.46851,18.8229,4.44082,18.6014,4.36641,18.3937C4.292,18.186,4.1727,17.9973,4.017,17.841C2.427,16.244999999999997,1.5,14.202,1.5,12C1.5,7.212,6.006,3,12,3C17.994,3,22.5,7.212,22.5,12C22.5,16.7895,17.994,21,12,21C10.9427,21.0015,9.88967,20.8644,8.868,20.592C8.51097,20.4963,8.13118,20.5359,7.8015,20.703C7.221,20.997,5.9415,21.558,3.8505,22.0425C4.14221,21.0632,4.34208,20.0589,4.4475,19.0425C4.4475,19.0425,4.4475,19.0425,4.4475,19.0425C4.4475,19.0425,4.4475,19.0425,4.4475,19.0425Z" fill="#FFFFFF" fill-opacity="1"/></g></g></g></svg>