<svg xmlns="http://www.w3.org/2000/svg" xmlns:xlink="http://www.w3.org/1999/xlink" fill="none" version="1.1" width="25" height="22.327678680419922" viewBox="0 0 25 22.327678680419922"><path d="M20.4545,22.3277L4.54545,22.3277C3.91786,22.3277,3.40909,21.8189,3.40909,21.1913L3.40909,10.964L0,10.964L11.7352,0.295861C12.1688,-0.0986202,12.8312,-0.0986202,13.2648,0.295861L25,10.964L21.5909,10.964L21.5909,21.1913C21.5909,21.8189,21.0821,22.3277,20.4545,22.3277ZM5.68182,20.055L19.3182,20.055L19.3182,8.86972L12.5,2.672L5.68182,8.86972L5.68182,20.055ZM9.09091,9.82768L15.9091,9.82768L15.9091,16.6459L9.09091,16.6459L9.09091,9.82768ZM11.3636,12.1004L11.3636,14.3731L13.6364,14.3731L13.6364,12.1004L11.3636,12.1004Z" fill="#D8D8D8" fill-opacity="1"/></svg>