<svg xmlns="http://www.w3.org/2000/svg" xmlns:xlink="http://www.w3.org/1999/xlink" fill="none" version="1.1" width="42.42644906044006" height="42.42644906044006" viewBox="0 0 42.42644906044006 42.42644906044006"><clipPath id="master_svg0_15_207" transform="matrix(-0.7071074843406677,0.7071074843406677,-0.7071074843406677,-0.7071074843406677,87.42653855739294,6.213194697902402)"><rect x="42.42644906044006" y="21.21322453022003" width="30" height="30" rx="0"/></clipPath><g clip-path="url(#master_svg0_15_207)" style="mix-blend-mode:passthrough"><g transform="matrix(-0.7071074843406677,0.7071074843406677,-0.7071074843406677,-0.7071074843406677,87.42653855739294,6.213194697902402)"><g style="mix-blend-mode:passthrough"><path d="M69.56026258583069,22.829340530220033C70.04846258583069,23.317495530220032,70.04846258583069,24.108954530220032,69.56026258583069,24.597114530220033C69.56026258583069,24.597114530220033,67.9441625858307,26.21322453022003,67.9441625858307,26.21322453022003C67.9441625858307,26.21322453022003,70.81026258583069,29.07933453022003,70.81026258583069,29.07933453022003C71.29846258583069,29.56750453022003,71.29846258583069,30.358944530220032,70.81026258583069,30.847114530220033C70.81026258583069,30.847114530220033,66.43526258583069,35.22212453022003,66.43526258583069,35.22212453022003C65.94716258583068,35.71022453022003,65.1556625858307,35.71022453022003,64.6675625858307,35.22212453022003C64.6675625858307,35.22212453022003,61.80146258583069,32.355984530220034,61.80146258583069,32.355984530220034C61.80146258583069,32.355984530220034,58.368462585830684,35.789124530220036,58.368462585830684,35.789124530220036C58.75266258583069,36.30882453022003,59.07456258583069,36.873824530220034,59.32606258583069,37.47262453022003C59.74106258583069,38.46042453022003,59.956662585830685,39.520724530220036,59.96016258583069,40.59232453022003C59.96376258583069,41.66382453022003,59.755462585830685,42.72562453022003,59.34696258583069,43.71622453022003C58.93856258583069,44.706924530220036,58.33816258583069,45.607124530220034,57.58056258583069,46.364824530220034C56.82286258583069,47.12252453022003,55.922662585830686,47.72282453022003,54.93196258583069,48.13122453022003C53.941262585830685,48.53972453022003,52.87962258583069,48.74812453022003,51.80806258583069,48.74442453022003C50.73650258583069,48.74082453022003,49.676222585830686,48.52532453022003,48.68828258583069,48.110324530220026C47.70036258583069,47.695324530220034,46.80429258583069,47.08892453022003,46.05167258583069,46.32622453022003C46.05167258583069,46.32622453022003,46.04230258583069,46.31672453022003,46.04230258583069,46.31672453022003C44.562260585830685,44.78422453022003,43.74335758583069,42.73182453022003,43.76186975083069,40.60152453022003C43.78038198583069,38.47112453022003,44.63487858583069,36.43322453022003,46.141322585830686,34.92682453022003C47.64776258583069,33.42042453022003,49.68561258583069,32.56592453022003,51.81596258583069,32.54742453022003C53.53198258583069,32.53252453022003,55.19746258583069,33.060924530220035,56.581262585830686,34.04062453022003C56.581262585830686,34.04062453022003,67.7925625858307,22.829340530220033,67.7925625858307,22.829340530220033C68.2806625858307,22.34118553022003,69.07216258583068,22.34118553022003,69.56026258583069,22.829340530220033C69.56026258583069,22.829340530220033,69.56026258583069,22.829340530220033,69.56026258583069,22.829340530220033ZM55.82876258583069,36.658124530220036C55.81716258583069,36.64772453022003,55.80566258583069,36.63692453022003,55.79426258583069,36.62612453022003C54.73346258583069,35.60152453022003,53.31253258583069,35.03442453022003,51.83769258583069,35.04732453022003C50.362822585830685,35.06012453022003,48.95201258583069,35.65172453022003,47.90909258583069,36.69462453022003C46.866162585830686,37.73752453022003,46.27459258583069,39.14832453022003,46.26177258583069,40.62322453022003C46.248972585830685,42.09582453022003,46.81422258583069,43.514724530220036,47.83595258583069,44.57512453022003C48.35602258583069,45.10082453022003,48.97470258583069,45.51892453022003,49.65660258583069,45.80542453022003C50.340552585830686,46.09282453022003,51.07457258583069,46.242024530220036,51.816442585830686,46.24442453022003C52.558292585830685,46.24702453022003,53.29330258583069,46.10272453022003,53.979162585830686,45.82002453022003C54.66506258583069,45.53722453022003,55.28816258583069,45.12162453022003,55.81276258583069,44.59702453022003C56.33736258583069,44.07242453022003,56.75296258583069,43.44932453022003,57.03566258583069,42.76352453022003C57.31846258583069,42.077624530220035,57.462662585830685,41.342624530220036,57.46016258583069,40.600724530220035C57.457762585830686,39.85882453022003,57.308562585830686,39.12482453022003,57.02116258583069,38.440824530220034C56.74166258583069,37.77552453022003,56.33676258583069,37.17022453022003,55.82876258583069,36.658124530220036C55.82876258583069,36.658124530220036,55.82876258583069,36.658124530220036,55.82876258583069,36.658124530220036ZM63.56916258583069,30.58822453022003C63.56916258583069,30.58822453022003,65.55146258583069,32.57042453022003,65.55146258583069,32.57042453022003C65.55146258583069,32.57042453022003,68.15866258583068,29.96322453022003,68.15866258583068,29.96322453022003C68.15866258583068,29.96322453022003,66.17646258583069,27.98098453022003,66.17646258583069,27.98098453022003C66.17646258583069,27.98098453022003,63.56916258583069,30.58822453022003,63.56916258583069,30.58822453022003C63.56916258583069,30.58822453022003,63.56916258583069,30.58822453022003,63.56916258583069,30.58822453022003Z" fill-rule="evenodd" fill="#FFFFFF" fill-opacity="1"/></g></g></g></svg>