<svg xmlns="http://www.w3.org/2000/svg" xmlns:xlink="http://www.w3.org/1999/xlink" fill="none" version="1.1" width="24" height="24" viewBox="0 0 24 24"><clipPath id="master_svg0_6_8034"><rect x="0" y="0" width="24" height="24" rx="0"/></clipPath><g clip-path="url(#master_svg0_6_8034)" style="mix-blend-mode:passthrough"><g><g style="mix-blend-mode:passthrough"><path d="M8.25,3C6.85761,3,5.52226,3.55312,4.53769,4.53769C3.55312,5.52226,3,6.85761,3,8.25C3,8.25,3,15.75,3,15.75C3,17.142400000000002,3.55312,18.4777,4.53769,19.4623C5.52226,20.4469,6.85761,21,8.25,21C8.25,21,15.75,21,15.75,21C17.142400000000002,21,18.4777,20.4469,19.4623,19.4623C20.4469,18.4777,21,17.142400000000002,21,15.75C21,15.75,21,12,21,12C21,11.8011,21.079,11.6103,21.2197,11.46967C21.3603,11.32902,21.5511,11.25,21.75,11.25C21.9489,11.25,22.1397,11.32902,22.2803,11.46967C22.421,11.6103,22.5,11.8011,22.5,12C22.5,12,22.5,15.75,22.5,15.75C22.5,17.5402,21.7888,19.2571,20.523,20.523C19.2571,21.7888,17.5402,22.5,15.75,22.5C15.75,22.5,8.25,22.5,8.25,22.5C6.45979,22.5,4.742900000000001,21.7888,3.47703,20.523C2.211159,19.2571,1.5000000000000013,17.5402,1.5,15.75C1.5,15.75,1.5,8.25,1.5,8.25C1.4999999999999993,6.45979,2.211159,4.742900000000001,3.47703,3.47703C4.742900000000001,2.211159,6.45979,1.500000000000002,8.25,1.5C8.25,1.5,12,1.5,12,1.5C12.1989,1.5000000000000004,12.3897,1.5790176,12.5303,1.71967C12.671,1.860322,12.75,2.051088,12.75,2.25C12.75,2.448912,12.671,2.6396800000000002,12.5303,2.78033C12.3897,2.92098,12.1989,3,12,3C12,3,8.25,3,8.25,3C8.25,3,8.25,3,8.25,3Z" fill="#FFFFFF" fill-opacity="1"/></g><g style="mix-blend-mode:passthrough"><path d="M24,4.5C24,5.69347,23.5259,6.83807,22.68198,7.68198C21.838070000000002,8.52589,20.693469999999998,9,19.5,9C18.30653,9,17.161929999999998,8.52589,16.31802,7.68198C15.474105,6.83807,15,5.69347,15,4.5C15,3.30653,15.474105,2.16193,16.31802,1.31802C17.161929999999998,0.474106,18.30653,1.1241e-15,19.5,0C20.693469999999998,6.245e-16,21.838070000000002,0.474106,22.68198,1.31802C23.5259,2.16193,24,3.30653,24,4.5C24,4.5,24,4.5,24,4.5C24,4.5,24,4.5,24,4.5Z" fill="#FFFFFF" fill-opacity="1"/></g></g></g></svg>