<svg xmlns="http://www.w3.org/2000/svg" xmlns:xlink="http://www.w3.org/1999/xlink" fill="none" version="1.1" width="35" height="35" viewBox="0 0 35 35"><clipPath id="master_svg0_39_178"><rect x="0" y="0" width="35" height="35" rx="0"/></clipPath><g clip-path="url(#master_svg0_39_178)" style="mix-blend-mode:passthrough"><g><g style="mix-blend-mode:passthrough"><path d="M12.03125,4.375C10.00068,4.375,8.0533,5.18163,6.61746,6.61746C5.18163,8.0533,4.375,10.00068,4.375,12.03125C4.375,12.03125,4.375,22.9687,4.375,22.9687C4.375,24.9993,5.18163,26.9466,6.61746,28.3825C8.0533,29.8184,10.00068,30.625,12.03125,30.625C12.03125,30.625,22.9687,30.625,22.9687,30.625C24.9993,30.625,26.9466,29.8184,28.3825,28.3825C29.8184,26.9466,30.625,24.9993,30.625,22.9687C30.625,22.9687,30.625,17.5,30.625,17.5C30.625,17.209899999999998,30.7402,16.9317,30.9454,16.726599999999998C31.1504,16.5215,31.4287,16.4063,31.7187,16.4063C32.0088,16.4063,32.287099999999995,16.5215,32.4921,16.726599999999998C32.6973,16.9317,32.8125,17.209899999999998,32.8125,17.5C32.8125,17.5,32.8125,22.9687,32.8125,22.9687C32.8125,25.5795,31.7753,28.0833,29.9294,29.9294C28.0833,31.7753,25.5795,32.8125,22.9687,32.8125C22.9687,32.8125,12.03125,32.8125,12.03125,32.8125C9.42053,32.8125,6.91673,31.7753,5.07067,29.9294C3.22461,28.0833,2.1875000000000018,25.5795,2.1875,22.9687C2.1875,22.9687,2.1875,12.03125,2.1875,12.03125C2.187499999999999,9.42053,3.22461,6.91673,5.07067,5.07067C6.91673,3.22461,9.42053,2.187500000000003,12.03125,2.1875C12.03125,2.1875,17.5,2.1875,17.5,2.1875C17.790100000000002,2.1875000000000004,18.0683,2.302734,18.2734,2.507852C18.4785,2.71297,18.5937,2.99117,18.5937,3.28125C18.5937,3.5713299999999997,18.4785,3.8495299999999997,18.2734,4.0546500000000005C18.0683,4.25976,17.790100000000002,4.375,17.5,4.375C17.5,4.375,12.03125,4.375,12.03125,4.375C12.03125,4.375,12.03125,4.375,12.03125,4.375Z" fill="#FFFFFF" fill-opacity="1"/></g><g style="mix-blend-mode:passthrough"><path d="M35,6.5625C35,8.30298,34.3086,9.97219,33.0779,11.2029C31.847189999999998,12.4336,30.177979999999998,13.125,28.4375,13.125C26.697020000000002,13.125,25.02781,12.4336,23.79711,11.2029C22.566403,9.97219,21.875,8.30298,21.875,6.5625C21.875,4.82202,22.566403,3.15281,23.79711,1.92211C25.02781,0.691405,26.697020000000002,1.63931e-15,28.4375,0C30.177979999999998,9.10729e-16,31.847189999999998,0.691405,33.0779,1.92211C34.3086,3.15281,35,4.82202,35,6.5625C35,6.5625,35,6.5625,35,6.5625C35,6.5625,35,6.5625,35,6.5625Z" fill="#FFFFFF" fill-opacity="1"/></g></g></g></svg>