<svg xmlns="http://www.w3.org/2000/svg" xmlns:xlink="http://www.w3.org/1999/xlink" fill="none" version="1.1" width="40" height="40" viewBox="0 0 40 40"><clipPath id="master_svg0_6_02090" transform="matrix(-1,0,0,-1,80,80)"><rect x="40" y="40" width="40" height="40" rx="0"/></clipPath><g clip-path="url(#master_svg0_6_02090)" style="mix-blend-mode:passthrough"><g transform="matrix(-1,0,0,-1,80,80)"><g style="mix-blend-mode:passthrough"><path d="M48.3333740234375,46.666704023437504C47.8913440234375,46.666704023437504,47.4674240234375,46.8423040234375,47.1548540234375,47.1548540234375C46.8423040234375,47.4674240234375,46.666704023437504,47.8913440234375,46.666704023437504,48.3333740234375C46.666704023437504,48.3333740234375,46.666704023437504,71.66667402343751,46.666704023437504,71.66667402343751C46.666704023437504,72.1086740234375,46.8423040234375,72.5326740234375,47.1548540234375,72.8451740234375C47.4674240234375,73.1576740234375,47.8913440234375,73.3333740234375,48.3333740234375,73.3333740234375C48.3333740234375,73.3333740234375,55.0000740234375,73.3333740234375,55.0000740234375,73.3333740234375C55.9204740234375,73.3333740234375,56.6666740234375,74.0795740234375,56.6666740234375,75.00007402343749C56.6666740234375,75.9205740234375,55.9204740234375,76.66667402343751,55.0000740234375,76.66667402343751C55.0000740234375,76.66667402343751,48.3333740234375,76.66667402343751,48.3333740234375,76.66667402343751C47.0072940234375,76.66667402343751,45.7355240234375,76.1398740234375,44.7978440234375,75.2021740234375C43.8601570234375,74.2645740234375,43.3333740234375,72.99287402343751,43.3333740234375,71.66667402343751C43.3333740234375,71.66667402343751,43.3333740234375,48.3333740234375,43.3333740234375,48.3333740234375C43.3333740234375,47.0072940234375,43.8601570234375,45.7355240234375,44.7978440234375,44.7978440234375C45.7355240234375,43.8601570234375,47.0072940234375,43.3333740234375,48.3333740234375,43.3333740234375C48.3333740234375,43.3333740234375,55.0000740234375,43.3333740234375,55.0000740234375,43.3333740234375C55.9204740234375,43.3333740234375,56.6666740234375,44.0795660234375,56.6666740234375,45.0000440234375C56.6666740234375,45.9205040234375,55.9204740234375,46.666704023437504,55.0000740234375,46.666704023437504C55.0000740234375,46.666704023437504,48.3333740234375,46.666704023437504,48.3333740234375,46.666704023437504C48.3333740234375,46.666704023437504,48.3333740234375,46.666704023437504,48.3333740234375,46.666704023437504ZM65.4881740234375,50.4881940234375C66.1390740234375,49.8373240234375,67.1943740234375,49.8373240234375,67.8451740234375,50.4881940234375C67.8451740234375,50.4881940234375,76.1785740234375,58.8214740234375,76.1785740234375,58.8214740234375C76.82937402343751,59.472374023437496,76.82937402343751,60.5276740234375,76.1785740234375,61.1785740234375C76.1785740234375,61.1785740234375,67.8451740234375,69.5118740234375,67.8451740234375,69.5118740234375C67.1943740234375,70.1626740234375,66.1390740234375,70.1626740234375,65.4881740234375,69.5118740234375C64.8373740234375,68.8610740234375,64.8373740234375,67.8056740234375,65.4881740234375,67.1548740234375C65.4881740234375,67.1548740234375,70.9763740234375,61.6666740234375,70.9763740234375,61.6666740234375C70.9763740234375,61.6666740234375,55.0000740234375,61.6666740234375,55.0000740234375,61.6666740234375C54.0795740234375,61.6666740234375,53.3333740234375,60.920574023437496,53.3333740234375,60.0000740234375C53.3333740234375,59.0795740234375,54.0795740234375,58.3333740234375,55.0000740234375,58.3333740234375C55.0000740234375,58.3333740234375,70.9763740234375,58.3333740234375,70.9763740234375,58.3333740234375C70.9763740234375,58.3333740234375,65.4881740234375,52.8452240234375,65.4881740234375,52.8452240234375C64.8373740234375,52.1943440234375,64.8373740234375,51.1390740234375,65.4881740234375,50.4881940234375C65.4881740234375,50.4881940234375,65.4881740234375,50.4881940234375,65.4881740234375,50.4881940234375Z" fill-rule="evenodd" fill="#FFFFFF" fill-opacity="1"/></g></g></g></svg>