<svg xmlns="http://www.w3.org/2000/svg" xmlns:xlink="http://www.w3.org/1999/xlink" fill="none" version="1.1" width="35" height="33.67923355102539" viewBox="0 0 35 33.67923355102539"><clipPath id="master_svg0_6_464"><rect x="0" y="0" width="35" height="33.67923355102539" rx="0"/></clipPath><g clip-path="url(#master_svg0_6_464)" style="mix-blend-mode:passthrough"><g><g style="mix-blend-mode:passthrough"><path d="M12.3958,5.6132406249999995C9.97959,5.6132406249999995,8.02083,7.498090625,8.02083,9.823150625C8.02083,12.148210625,9.97959,14.033040625,12.3958,14.033040625C14.8121,14.033040625,16.7708,12.148210625,16.7708,9.823150625C16.7708,7.498090625,14.8121,5.6132406249999995,12.3958,5.6132406249999995C12.3958,5.6132406249999995,12.3958,5.6132406249999995,12.3958,5.6132406249999995ZM5.10417,9.823150625C5.10417,5.948040625,8.36876,2.806640625,12.3958,2.806640625C16.4229,2.806640625,19.6875,5.948040625,19.6875,9.823150625C19.6875,13.698240625,16.4229,16.839640625,12.3958,16.839640625C8.36876,16.839640625,5.10417,13.698240625,5.10417,9.823150625C5.10417,9.823150625,5.10417,9.823150625,5.10417,9.823150625ZM25.2188,10.234160625000001C25.7883,9.686150625,26.7117,9.686150625,27.2812,10.234160625000001C27.2812,10.234160625000001,29.8958,12.750140625,29.8958,12.750140625C29.8958,12.750140625,32.5105,10.234160625000001,32.5105,10.234160625000001C33.08,9.686150625,34.0034,9.686150625,34.5729,10.234160625000001C35.1423,10.782190625,35.1423,11.670710625,34.5729,12.218740625C34.5729,12.218740625,31.9582,14.734740625,31.9582,14.734740625C31.9582,14.734740625,34.5729,17.250640625000003,34.5729,17.250640625000003C35.1423,17.798640625,35.1423,18.687240625,34.5729,19.235240625C34.0034,19.783240625,33.08,19.783240625,32.5105,19.235240625C32.5105,19.235240625,29.8958,16.719240624999998,29.8958,16.719240624999998C29.8958,16.719240624999998,27.2812,19.235240625,27.2812,19.235240625C26.7117,19.783240625,25.7883,19.783240625,25.2188,19.235240625C24.6493,18.687240625,24.6493,17.798640625,25.2188,17.250640625000003C25.2188,17.250640625000003,27.8335,14.734740625,27.8335,14.734740625C27.8335,14.734740625,25.2188,12.218740625,25.2188,12.218740625C24.6493,11.670710625,24.6493,10.782190625,25.2188,10.234160625000001C25.2188,10.234160625000001,25.2188,10.234160625000001,25.2188,10.234160625000001ZM2.13569,21.701440625C3.50314,20.385540625,5.3578,19.646240625,7.29167,19.646240625C7.29167,19.646240625,17.5,19.646240625,17.5,19.646240625C19.4339,19.646240625,21.2886,20.385540625,22.6559,21.701440625C24.0234,23.017140625,24.7917,24.801840625,24.7917,26.662740625C24.7917,26.662740625,24.7917,29.469340625,24.7917,29.469340625C24.7917,30.244440625,24.1388,30.872640625,23.3333,30.872640625C22.5279,30.872640625,21.875,30.244440625,21.875,29.469340625C21.875,29.469340625,21.875,26.662740625,21.875,26.662740625C21.875,25.546140625,21.414,24.475440625,20.5936,23.685940625C19.7731,22.896440625,18.6602,22.452840625,17.5,22.452840625C17.5,22.452840625,7.29167,22.452840625,7.29167,22.452840625C6.13134,22.452840625,5.01855,22.896440625,4.19808,23.685940625C3.3776,24.475440625,2.91667,25.546140625,2.91667,26.662740625C2.91667,26.662740625,2.91667,29.469340625,2.91667,29.469340625C2.91667,30.244440625,2.26374,30.872640625,1.45833,30.872640625C0.652918,30.872640625,0,30.244440625,0,29.469340625C0,29.469340625,0,26.662740625,0,26.662740625C0,24.801840625,0.768227,23.017140625,2.13569,21.701440625C2.13569,21.701440625,2.13569,21.701440625,2.13569,21.701440625Z" fill-rule="evenodd" fill="#FFFFFF" fill-opacity="1"/></g></g></g></svg>