<svg xmlns="http://www.w3.org/2000/svg" xmlns:xlink="http://www.w3.org/1999/xlink" fill="none" version="1.1" width="35" height="35" viewBox="0 0 35 35"><clipPath id="master_svg0_6_05211"><rect x="0" y="0" width="35" height="35" rx="0"/></clipPath><g clip-path="url(#master_svg0_6_05211)" style="mix-blend-mode:passthrough"><g><g style="mix-blend-mode:passthrough"><path d="M12.3958,5.833326494140625C9.97959,5.833326494140625,8.02083,7.792086494140625,8.02083,10.208326494140625C8.02083,12.624566494140625,9.97959,14.583356494140626,12.3958,14.583356494140626C14.8121,14.583356494140626,16.7708,12.624566494140625,16.7708,10.208326494140625C16.7708,7.792086494140625,14.8121,5.833326494140625,12.3958,5.833326494140625C12.3958,5.833326494140625,12.3958,5.833326494140625,12.3958,5.833326494140625ZM5.10417,10.208326494140625C5.10417,6.181256494140625,8.36876,2.916656494140625,12.3958,2.916656494140625C16.4229,2.916656494140625,19.6875,6.181256494140625,19.6875,10.208326494140625C19.6875,14.235356494140625,16.4229,17.499956494140626,12.3958,17.499956494140626C8.36876,17.499956494140626,5.10417,14.235356494140625,5.10417,10.208326494140625C5.10417,10.208326494140625,5.10417,10.208326494140625,5.10417,10.208326494140625ZM29.1667,10.208326494140625C29.9721,10.208326494140625,30.625,10.861246494140625,30.625,11.666656494140625C30.625,11.666656494140625,30.625,14.583356494140626,30.625,14.583356494140626C30.625,14.583356494140626,33.5417,14.583356494140626,33.5417,14.583356494140626C34.3471,14.583356494140626,35,15.236256494140624,35,16.041656494140625C35,16.847056494140624,34.3471,17.499956494140626,33.5417,17.499956494140626C33.5417,17.499956494140626,30.625,17.499956494140626,30.625,17.499956494140626C30.625,17.499956494140626,30.625,20.416656494140625,30.625,20.416656494140625C30.625,21.222056494140624,29.9721,21.874956494140626,29.1667,21.874956494140626C28.3612,21.874956494140626,27.7083,21.222056494140624,27.7083,20.416656494140625C27.7083,20.416656494140625,27.7083,17.499956494140626,27.7083,17.499956494140626C27.7083,17.499956494140626,24.7917,17.499956494140626,24.7917,17.499956494140626C23.9862,17.499956494140626,23.3333,16.847056494140624,23.3333,16.041656494140625C23.3333,15.236256494140624,23.9862,14.583356494140626,24.7917,14.583356494140626C24.7917,14.583356494140626,27.7083,14.583356494140626,27.7083,14.583356494140626C27.7083,14.583356494140626,27.7083,11.666656494140625,27.7083,11.666656494140625C27.7083,10.861246494140625,28.3612,10.208326494140625,29.1667,10.208326494140625C29.1667,10.208326494140625,29.1667,10.208326494140625,29.1667,10.208326494140625ZM2.13569,22.552356494140625C3.50314,21.184956494140625,5.3578,20.416656494140625,7.29167,20.416656494140625C7.29167,20.416656494140625,17.5,20.416656494140625,17.5,20.416656494140625C19.4339,20.416656494140625,21.2886,21.184956494140625,22.6559,22.552356494140625C24.0234,23.919756494140625,24.7917,25.774456494140626,24.7917,27.708356494140624C24.7917,27.708356494140624,24.7917,30.624956494140626,24.7917,30.624956494140626C24.7917,31.430456494140625,24.1388,32.083356494140624,23.3333,32.083356494140624C22.5279,32.083356494140624,21.875,31.430456494140625,21.875,30.624956494140626C21.875,30.624956494140626,21.875,27.708356494140624,21.875,27.708356494140624C21.875,26.547956494140625,21.414,25.435256494140624,20.5936,24.614756494140625C19.7731,23.794256494140626,18.6602,23.333356494140624,17.5,23.333356494140624C17.5,23.333356494140624,7.29167,23.333356494140624,7.29167,23.333356494140624C6.13134,23.333356494140624,5.01855,23.794256494140626,4.19808,24.614756494140625C3.3776,25.435256494140624,2.91667,26.547956494140625,2.91667,27.708356494140624C2.91667,27.708356494140624,2.91667,30.624956494140626,2.91667,30.624956494140626C2.91667,31.430456494140625,2.26374,32.083356494140624,1.45833,32.083356494140624C0.652918,32.083356494140624,0,31.430456494140625,0,30.624956494140626C0,30.624956494140626,0,27.708356494140624,0,27.708356494140624C0,25.774456494140626,0.768227,23.919756494140625,2.13569,22.552356494140625C2.13569,22.552356494140625,2.13569,22.552356494140625,2.13569,22.552356494140625Z" fill-rule="evenodd" fill="#FFFFFF" fill-opacity="1"/></g></g></g></svg>