<svg xmlns="http://www.w3.org/2000/svg" xmlns:xlink="http://www.w3.org/1999/xlink" fill="none" version="1.1" width="26" height="26" viewBox="0 0 26 26"><clipPath id="master_svg0_6_11843"><rect x="0" y="0" width="26" height="26" rx="0"/></clipPath><g clip-path="url(#master_svg0_6_11843)" style="mix-blend-mode:passthrough"><g><g style="mix-blend-mode:passthrough"><path d="M22.75,1.625C23.181,1.625,23.5944,1.79621,23.8991,2.10095C24.2038,2.40569,24.375,2.81903,24.375,3.25C24.375,3.25,24.375,16.25,24.375,16.25C24.375,16.681,24.2038,17.0944,23.8991,17.3991C23.5944,17.7038,23.181,17.875,22.75,17.875C22.75,17.875,18.6875,17.875,18.6875,17.875C18.183,17.875,17.6853,17.9924,17.2341,18.2181C16.7828,18.4438,16.3902,18.7714,16.0875,19.175C16.0875,19.175,13,23.2911,13,23.2911C13,23.2911,9.9125,19.175,9.9125,19.175C9.60977,18.7714,9.21723,18.4438,8.76594,18.2181C8.31466,17.9924,7.81705,17.875,7.3125,17.875C7.3125,17.875,3.25,17.875,3.25,17.875C2.81903,17.875,2.40569,17.7038,2.10095,17.3991C1.79621,17.0944,1.625,16.681,1.625,16.25C1.625,16.25,1.625,3.25,1.625,3.25C1.625,2.81903,1.79621,2.40569,2.10095,2.10095C2.40569,1.79621,2.81903,1.625,3.25,1.625C3.25,1.625,22.75,1.625,22.75,1.625C22.75,1.625,22.75,1.625,22.75,1.625ZM3.25,9.02056e-17C2.38805,6.31439e-16,1.5614,0.34241,0.951903,0.951903C0.34241,1.5614,8.79505e-16,2.38805,0,3.25C0,3.25,6.31439e-16,16.25,6.31439e-16,16.25C1.10502e-15,17.1119,0.34241,17.9386,0.951903,18.5481C1.5614,19.1576,2.38805,19.5,3.25,19.5C3.25,19.5,7.3125,19.5,7.3125,19.5C7.56478,19.5,7.81359,19.5587,8.03922,19.6716C8.26486,19.7844,8.46114,19.9482,8.6125,20.15C8.6125,20.15,11.7,24.2661,11.7,24.2661C11.8513,24.468,12.0476,24.6318,12.2733,24.7445C12.499,24.8574,12.7477,24.9161,13,24.9161C13.2523,24.9161,13.501,24.8574,13.7267,24.7445C13.9524,24.6318,14.1487,24.468,14.3,24.2661C14.3,24.2661,17.3875,20.15,17.3875,20.15C17.5388,19.9482,17.7351,19.7844,17.9608,19.6716C18.1865,19.5587,18.4352,19.5,18.6875,19.5C18.6875,19.5,22.75,19.5,22.75,19.5C23.6119,19.5,24.4386,19.1576,25.0481,18.5481C25.6576,17.9386,26,17.1119,26,16.25C26,16.25,26,3.25,26,3.25C26,2.38805,25.6576,1.5614,25.0481,0.951903C24.4386,0.34241,23.6119,5.41233e-16,22.75,0C22.75,0,3.25,9.02056e-17,3.25,9.02056e-17C3.25,9.02056e-17,3.25,9.02056e-17,3.25,9.02056e-17Z" fill="#FFC7C7" fill-opacity="1"/></g><g style="mix-blend-mode:passthrough"><path d="M8.125,9.75C8.125,10.18097,7.95379,10.59431,7.64905,10.899049999999999C7.34431,11.20379,6.93097,11.375,6.5,11.375C6.06903,11.375,5.655698,11.20379,5.350952,10.899049999999999C5.046205,10.59431,4.875000000000001,10.18097,4.875,9.75C4.875,9.31903,5.046205,8.905699,5.350952,8.600952C5.655698,8.296206,6.06903,8.124999999999998,6.5,8.125C6.93097,8.124999999999998,7.34431,8.296206,7.64905,8.600952C7.95379,8.905699,8.125,9.31903,8.125,9.75C8.125,9.75,8.125,9.75,8.125,9.75C8.125,9.75,8.125,9.75,8.125,9.75ZM14.625,9.75C14.625,10.18097,14.45379,10.59431,14.14905,10.899049999999999C13.84431,11.20379,13.43097,11.375,13,11.375C12.56903,11.375,12.15569,11.20379,11.850950000000001,10.899049999999999C11.54621,10.59431,11.375,10.18097,11.375,9.75C11.375,9.31903,11.54621,8.905699,11.850950000000001,8.600952C12.15569,8.296206,12.56903,8.124999999999998,13,8.125C13.43097,8.124999999999998,13.84431,8.296206,14.14905,8.600952C14.45379,8.905699,14.625,9.31903,14.625,9.75C14.625,9.75,14.625,9.75,14.625,9.75ZM21.125,9.75C21.125,10.18097,20.9538,10.59431,20.6491,10.899049999999999C20.3444,11.20379,19.930999999999997,11.375,19.5,11.375C19.069000000000003,11.375,18.6557,11.20379,18.3509,10.899049999999999C18.0462,10.59431,17.875,10.18097,17.875,9.75C17.875,9.31903,18.0462,8.905699,18.3509,8.600952C18.6557,8.296206,19.069000000000003,8.124999999999998,19.5,8.125C19.930999999999997,8.124999999999998,20.3444,8.296206,20.6491,8.600952C20.9538,8.905699,21.125,9.31903,21.125,9.75C21.125,9.75,21.125,9.75,21.125,9.75Z" fill="#FFC7C7" fill-opacity="1"/></g></g></g></svg>