<svg xmlns="http://www.w3.org/2000/svg" xmlns:xlink="http://www.w3.org/1999/xlink" fill="none" version="1.1" width="20" height="20" viewBox="0 0 20 20"><clipPath id="master_svg0_17_302"><rect x="0" y="0" width="20" height="20" rx="0"/></clipPath><g clip-path="url(#master_svg0_17_302)" style="mix-blend-mode:passthrough"><g><g style="mix-blend-mode:passthrough"><path d="M16.910756494140625,1.9107029765624999C17.236156494140623,1.5852667765625,17.763856494140626,1.5852667765625,18.089256494140624,1.9107029765624999C18.414656494140626,2.2361399765625,18.414656494140626,2.7637759765625,18.089256494140624,3.0892159765625C18.089256494140624,3.0892159765625,13.678456494140624,7.4999559765625,13.678456494140624,7.4999559765625C13.678456494140624,7.4999559765625,16.666656494140625,7.4999559765625,16.666656494140625,7.4999559765625C17.126856494140625,7.4999559765625,17.499956494140626,7.8730559765625,17.499956494140626,8.3332959765625C17.499956494140626,8.7935259765625,17.126856494140625,9.1666259765625,16.666656494140625,9.1666259765625C16.666656494140625,9.1666259765625,11.666656494140625,9.1666259765625,11.666656494140625,9.1666259765625C11.206406494140625,9.1666259765625,10.833326494140625,8.7935259765625,10.833326494140625,8.3332959765625C10.833326494140625,8.3332959765625,10.833326494140625,3.3332959765625,10.833326494140625,3.3332959765625C10.833326494140625,2.8730559765625,11.206406494140625,2.4999589765625,11.666656494140625,2.4999589765625C12.126856494140625,2.4999589765625,12.499956494140624,2.8730559765625,12.499956494140624,3.3332959765625C12.499956494140624,3.3332959765625,12.499956494140624,6.3214459765625,12.499956494140624,6.3214459765625C12.499956494140624,6.3214459765625,16.910756494140625,1.9107029765624999,16.910756494140625,1.9107029765624999C16.910756494140625,1.9107029765624999,16.910756494140625,1.9107029765624999,16.910756494140625,1.9107029765624999ZM2.499989494140625,11.6666259765625C2.499989494140625,11.2063759765625,2.873086494140625,10.8332959765625,3.333326494140625,10.8332959765625C3.333326494140625,10.8332959765625,8.333326494140625,10.8332959765625,8.333326494140625,10.8332959765625C8.793556494140624,10.8332959765625,9.166656494140625,11.2063759765625,9.166656494140625,11.6666259765625C9.166656494140625,11.6666259765625,9.166656494140625,16.6666259765625,9.166656494140625,16.6666259765625C9.166656494140625,17.1268259765625,8.793556494140624,17.4999259765625,8.333326494140625,17.4999259765625C7.873086494140625,17.4999259765625,7.499986494140625,17.1268259765625,7.499986494140625,16.6666259765625C7.499986494140625,16.6666259765625,7.499986494140625,13.6784259765625,7.499986494140625,13.6784259765625C7.499986494140625,13.6784259765625,3.089246494140625,18.0892259765625,3.089246494140625,18.0892259765625C2.763806494140625,18.4146259765625,2.236170494140625,18.4146259765625,1.9107334941406249,18.0892259765625C1.585297294140625,17.7638259765625,1.585297294140625,17.236125976562498,1.9107334941406249,16.9107259765625C1.9107334941406249,16.9107259765625,6.321476494140625,12.4999259765625,6.321476494140625,12.4999259765625C6.321476494140625,12.4999259765625,3.333326494140625,12.4999259765625,3.333326494140625,12.4999259765625C2.873086494140625,12.4999259765625,2.499989494140625,12.1268259765625,2.499989494140625,11.6666259765625C2.499989494140625,11.6666259765625,2.499989494140625,11.6666259765625,2.499989494140625,11.6666259765625Z" fill-rule="evenodd" fill="#FFFFFF" fill-opacity="1"/></g></g></g></svg>