<svg xmlns="http://www.w3.org/2000/svg" xmlns:xlink="http://www.w3.org/1999/xlink" fill="none" version="1.1" width="24" height="24" viewBox="0 0 24 24"><clipPath id="master_svg0_13_108"><rect x="0" y="0" width="24" height="24" rx="0"/></clipPath><g clip-path="url(#master_svg0_13_108)" style="mix-blend-mode:passthrough"><g><g style="mix-blend-mode:passthrough"><path d="M3,12C3,10.89543,3.89543,10,5,10C6.10457,10,7,10.89543,7,12C7,13.104569999999999,6.10457,14,5,14C3.89543,14,3,13.104569999999999,3,12C3,12,3,12,3,12ZM10,12C10,10.89543,10.895430000000001,10,12,10C13.1046,10,14,10.89543,14,12C14,13.104569999999999,13.1046,14,12,14C10.895430000000001,14,10,13.104569999999999,10,12C10,12,10,12,10,12ZM17,12C17,10.89543,17.895400000000002,10,19,10C20.1046,10,21,10.89543,21,12C21,13.104569999999999,20.1046,14,19,14C17.895400000000002,14,17,13.104569999999999,17,12C17,12,17,12,17,12Z" fill-rule="evenodd" fill="#FFFFFF" fill-opacity="1"/></g></g></g></svg>