<svg xmlns="http://www.w3.org/2000/svg" xmlns:xlink="http://www.w3.org/1999/xlink" fill="none" version="1.1" width="24" height="24" viewBox="0 0 24 24"><clipPath id="master_svg0_23_252"><rect x="0" y="0" width="24" height="24" rx="0"/></clipPath><g clip-path="url(#master_svg0_23_252)" style="mix-blend-mode:passthrough"><g><g style="mix-blend-mode:passthrough"><path d="M11.2929,1.292893C11.6834,0.9023689,12.3166,0.9023689,12.7071,1.292893C12.7071,1.292893,15.7071,4.29289,15.7071,4.29289C16.0976,4.68342,16.0976,5.31658,15.7071,5.70711C15.3166,6.09763,14.6834,6.09763,14.2929,5.70711C14.2929,5.70711,13,4.414210000000001,13,4.414210000000001C13,4.414210000000001,13,11,13,11C13,11,19.5858,11,19.5858,11C19.5858,11,18.2929,9.70711,18.2929,9.70711C17.9024,9.31658,17.9024,8.68342,18.2929,8.29289C18.6834,7.90237,19.3166,7.90237,19.7071,8.29289C19.7071,8.29289,22.7071,11.2929,22.7071,11.2929C23.0976,11.6834,23.0976,12.3166,22.7071,12.7071C22.7071,12.7071,19.7071,15.7071,19.7071,15.7071C19.3166,16.0976,18.6834,16.0976,18.2929,15.7071C17.9024,15.3166,17.9024,14.6834,18.2929,14.2929C18.2929,14.2929,19.5858,13,19.5858,13C19.5858,13,13,13,13,13C13,13,13,19.5858,13,19.5858C13,19.5858,14.2929,18.2929,14.2929,18.2929C14.6834,17.9024,15.3166,17.9024,15.7071,18.2929C16.0976,18.6834,16.0976,19.3166,15.7071,19.7071C15.7071,19.7071,12.7071,22.7071,12.7071,22.7071C12.3166,23.0976,11.6834,23.0976,11.2929,22.7071C11.2929,22.7071,8.29289,19.7071,8.29289,19.7071C7.90237,19.3166,7.90237,18.6834,8.29289,18.2929C8.68342,17.9024,9.31658,17.9024,9.70711,18.2929C9.70711,18.2929,11,19.5858,11,19.5858C11,19.5858,11,13,11,13C11,13,4.414210000000001,13,4.414210000000001,13C4.414210000000001,13,5.70711,14.2929,5.70711,14.2929C6.09763,14.6834,6.09763,15.3166,5.70711,15.7071C5.31658,16.0976,4.68342,16.0976,4.29289,15.7071C4.29289,15.7071,1.292893,12.7071,1.292893,12.7071C0.9023689,12.3166,0.9023689,11.6834,1.292893,11.2929C1.292893,11.2929,4.29289,8.29289,4.29289,8.29289C4.68342,7.90237,5.31658,7.90237,5.70711,8.29289C6.09763,8.68342,6.09763,9.31658,5.70711,9.70711C5.70711,9.70711,4.414210000000001,11,4.414210000000001,11C4.414210000000001,11,11,11,11,11C11,11,11,4.414210000000001,11,4.414210000000001C11,4.414210000000001,9.70711,5.70711,9.70711,5.70711C9.31658,6.09763,8.68342,6.09763,8.29289,5.70711C7.90237,5.31658,7.90237,4.68342,8.29289,4.29289C8.29289,4.29289,11.2929,1.292893,11.2929,1.292893C11.2929,1.292893,11.2929,1.292893,11.2929,1.292893Z" fill-rule="evenodd" fill="#FFFFFF" fill-opacity="1"/></g></g></g></svg>