<svg xmlns="http://www.w3.org/2000/svg" xmlns:xlink="http://www.w3.org/1999/xlink" fill="none" version="1.1" width="22.000001907348633" height="19.83995819091797" viewBox="0 0 22.000001907348633 19.83995819091797"><path d="M21,12L18,12L18,0L21,0C21.5523,0,22,0.447715,22,1L22,11C22,11.5523,21.5523,12,21,12ZM15.707,13.293L9.307,19.693C9.13114,19.8694,8.85228,19.8894,8.653,19.74L7.8,19.1C7.31557,18.7363,7.09742,18.117,7.247,17.53L8.4,13L2,13C0.895432,13,0.00000107288,12.1046,0.00000107288,11L0.00000107288,8.896C-0.000268519,8.63464,0.0506921,8.37576,0.150001,8.134L3.246,0.62C3.39996,0.245232,3.76484,0.00039959,4.17,0L15,0C15.5523,0,16,0.447715,16,1L16,12.586C15.9999,12.8512,15.8946,13.1055,15.707,13.293Z" fill="#FFC7C7" fill-opacity="1"/></svg>