<svg xmlns="http://www.w3.org/2000/svg" xmlns:xlink="http://www.w3.org/1999/xlink" fill="none" version="1.1" width="24" height="24" viewBox="0 0 24 24"><clipPath id="master_svg0_25_174"><rect x="0" y="0" width="24" height="24" rx="0"/></clipPath><g clip-path="url(#master_svg0_25_174)" style="mix-blend-mode:passthrough"><g><g style="mix-blend-mode:passthrough"><path d="M20.564052175712586,3.3156184382247926C20.320552175712585,3.1065384382247925,20.008652175712584,2.9941684382247926,19.687652175712586,2.9998484382247925C19.687652175712586,2.9998484382247925,19.669952175712584,2.9999984382247926,19.669952175712584,2.9999984382247926C19.669952175712584,2.9999984382247926,17.999952175712586,2.9999984382247926,17.999952175712586,2.9999984382247926C17.999952175712586,2.9999984382247926,17.999952175712586,12.000038438224793,17.999952175712586,12.000038438224793C17.999952175712586,12.000038438224793,19.669952175712584,12.000038438224793,19.669952175712584,12.000038438224793C19.669952175712584,12.000038438224793,19.687652175712586,12.000138438224793,19.687652175712586,12.000138438224793C20.008652175712584,12.005838438224792,20.320552175712585,11.893438438224793,20.564052175712586,11.684338438224792C20.792952175712585,11.487938438224793,20.946652175712586,11.218838438224793,20.999952175712586,10.923138438224793C20.999952175712586,10.923138438224793,20.999952175712586,4.076868438224793,20.999952175712586,4.076868438224793C20.946652175712586,3.7811484382247924,20.792952175712585,3.5120984382247924,20.564052175712586,3.3156184382247926C20.564052175712586,3.3156184382247926,20.564052175712586,3.3156184382247926,20.564052175712586,3.3156184382247926ZM15.999952175712586,12.787738438224793C15.999952175712586,12.787738438224793,15.999952175712586,2.9999984382247926,15.999952175712586,2.9999984382247926C15.999952175712586,2.9999984382247926,5.708692175712585,2.9999984382247926,5.708692175712585,2.9999984382247926C5.467532175712585,2.9972784382247926,5.2335021757125855,3.0817384382247925,5.049742175712586,3.2379284382247926C4.865982175712586,3.3941284382247923,4.744852175712586,3.6114784382247924,4.708692175712585,3.8499384382247923C4.708692175712585,3.8499384382247923,3.3286721757125854,12.850038438224793,3.3286721757125854,12.850038438224793C3.3286421757125852,12.850238438224793,3.3287021757125856,12.849838438224792,3.3286721757125854,12.850038438224793C3.3070321757125853,12.993238438224793,3.3166421757125857,13.139938438224792,3.3570021757125854,13.278938438224792C3.3974221757125855,13.418138438224792,3.4676221757125854,13.546938438224792,3.5627421757125854,13.656338438224793C3.6578721757125856,13.765738438224792,3.7756321757125852,13.853138438224793,3.9078921757125853,13.912438438224793C4.040142175712585,13.971838438224793,4.183722175712585,14.001738438224793,4.328672175712585,14.000038438224793C4.328672175712585,14.000038438224793,4.340002175712586,13.999938438224792,4.340002175712586,13.999938438224792C4.340002175712586,13.999938438224792,10.000002175712586,14.000038438224793,10.000002175712586,14.000038438224793C10.552282175712586,14.000038438224793,11.000002175712586,14.447738438224793,11.000002175712586,15.000038438224793C11.000002175712586,15.000038438224793,11.000002175712586,19.00003843822479,11.000002175712586,19.00003843822479C11.000002175712586,19.53043843822479,11.210712175712585,20.039138438224793,11.585752175712585,20.414238438224793C11.813652175712585,20.64203843822479,12.090752175712586,20.809238438224792,12.392152175712585,20.90543843822479C12.392152175712585,20.90543843822479,15.999952175712586,12.787738438224793,15.999952175712586,12.787738438224793C15.999952175712586,12.787738438224793,15.999952175712586,12.787738438224793,15.999952175712586,12.787738438224793ZM17.649852175712585,14.000038438224793C17.649852175712585,14.000038438224793,13.913852175712586,22.406138438224794,13.913852175712586,22.406138438224794C13.753352175712585,22.767238438224794,13.395152175712585,23.00003843822479,12.999952175712586,23.00003843822479C11.939152175712586,23.00003843822479,10.921722175712585,22.578538438224793,10.171572175712585,21.828438438224794C9.421422175712586,21.078238438224794,9.000002175712584,20.060838438224792,9.000002175712584,19.00003843822479C9.000002175712584,19.00003843822479,9.000002175712584,16.00003843822479,9.000002175712584,16.00003843822479C9.000002175712584,16.00003843822479,4.345112175712585,16.00003843822479,4.345112175712585,16.00003843822479C3.9123621757125853,16.004038438224793,3.4838421757125855,15.914338438224792,3.0889621757125854,15.737138438224793C2.6922021757125854,15.559038438224793,2.3389021757125854,15.296838438224793,2.053536175712585,14.968638438224792C1.7681701757125854,14.640538438224793,1.5575661757125854,14.254238438224792,1.4363141757125855,13.836538438224792C1.3150623557125853,13.418938438224792,1.2860620757125854,12.979938438224792,1.3513234757125854,12.549938438224792C1.3513234757125854,12.549938438224792,2.7313021757125853,3.5500684382247925,2.7313021757125853,3.5500684382247925C2.731352175712585,3.5497584382247926,2.7312621757125854,3.5503684382247926,2.7313021757125853,3.5500684382247925C2.8399621757125857,2.8350584382247925,3.2033821757125853,2.1824584382247925,3.7544421757125854,1.7140544382247924C4.304162175712586,1.2467994382247924,5.003782175712585,0.9933406282247925,5.725082175712585,1.0000000762247925C5.725082175712585,1.0000000762247925,19.661952175712585,1.0000000762247925,19.661952175712585,1.0000000762247925C20.469552175712586,0.9880667382247925,21.253752175712584,1.2718264382247924,21.866752175712584,1.7980214382247923C22.482152175712585,2.3263084382247925,22.882252175712587,3.0621884382247924,22.990952175712586,3.8659584382247925C22.996952175712586,3.9103884382247927,22.999952175712586,3.9551684382247925,22.999952175712586,3.9999984382247926C22.999952175712586,3.9999984382247926,22.999952175712586,11.000038438224793,22.999952175712586,11.000038438224793C22.999952175712586,11.044838438224792,22.996952175712586,11.089638438224792,22.990952175712586,11.134038438224792C22.882252175712587,11.937838438224793,22.482152175712585,12.673738438224792,21.866752175712584,13.201938438224792C21.253752175712584,13.728138438224793,20.469552175712586,14.011938438224792,19.661952175712585,14.000038438224793C19.661952175712585,14.000038438224793,17.649852175712585,14.000038438224793,17.649852175712585,14.000038438224793C17.649852175712585,14.000038438224793,17.649852175712585,14.000038438224793,17.649852175712585,14.000038438224793Z" fill-rule="evenodd" fill="#FFFFFF" fill-opacity="1"/></g></g></g></svg>