<svg xmlns="http://www.w3.org/2000/svg" xmlns:xlink="http://www.w3.org/1999/xlink" fill="none" version="1.1" width="25" height="25" viewBox="0 0 25 25"><clipPath id="master_svg0_17_094"><rect x="0" y="0" width="25" height="25" rx="0"/></clipPath><g clip-path="url(#master_svg0_17_094)" style="mix-blend-mode:passthrough"><g><g style="mix-blend-mode:passthrough"><path d="M10.3736,24.0847C10.9597,24.6707,11.7546,25,12.5833,25L12.5865,25C13.4152,25,14.2101,24.6707,14.7961,24.0847C15.3822,23.4986,15.7115,22.7038,15.7115,21.875L15.7115,21.6979C15.712,21.5658,15.751,21.4368,15.824,21.3267C15.897,21.2166,16.0004,21.1301,16.1219,21.0781L16.1323,21.0781C16.2554,21.0238,16.3919,21.0074,16.5244,21.0309C16.6568,21.0545,16.7793,21.117,16.876,21.2104L16.9333,21.2677C17.2236,21.558,17.5682,21.7883,17.9475,21.9455C18.3268,22.1027,18.7333,22.1836,19.1439,22.1836C19.5545,22.1838,19.961,22.1029,20.3403,21.9458C20.7197,21.7887,21.0644,21.5585,21.3547,21.2682C21.645,20.9779,21.8753,20.6333,22.0325,20.2541C22.1897,19.8748,22.2706,19.4682,22.2706,19.0577C22.2707,18.6471,22.1899,18.2405,22.0328,17.8612C21.8757,17.4819,21.6455,17.1372,21.3552,16.8469L21.2979,16.7896C21.2045,16.6928,21.142,16.5703,21.1184,16.4379C21.0949,16.3054,21.1112,16.169,21.1656,16.0458L21.1656,16.0354C21.2174,15.9147,21.3031,15.8116,21.4124,15.7386C21.5218,15.6658,21.6499,15.6264,21.7812,15.625L21.875,15.625C22.7038,15.625,23.4986,15.2957,24.0847,14.7097C24.6707,14.1236,25,13.3287,25,12.5C25,11.6712,24.6707,10.8764,24.0847,10.2903C23.4986,9.70424,22.7038,9.375,21.875,9.375L21.7021,9.375C21.5919,9.37429,21.4835,9.34669,21.3864,9.29458C21.2893,9.24248,21.2064,9.16747,21.1448,9.07604C21.1299,9.00445,21.1076,8.93462,21.0781,8.86771C21.0238,8.74463,21.0074,8.60814,21.0309,8.47567C21.0545,8.3432,21.117,8.22075,21.2104,8.12396L21.2677,8.06667C21.558,7.77639,21.7883,7.43177,21.9455,7.05248C22.1027,6.67319,22.1836,6.26666,22.1836,5.85609C22.1838,5.44554,22.1029,5.03899,21.9458,4.65966C21.7887,4.28033,21.5585,3.93566,21.2682,3.64531C20.9779,3.35497,20.6333,3.12465,20.2541,2.96748C19.8748,2.81032,19.4682,2.72941,19.0577,2.72936C18.6471,2.72931,18.2405,2.81012,17.8612,2.9672C17.4819,3.12427,17.1372,3.35452,16.8469,3.64479L16.7896,3.70208C16.6928,3.79553,16.5703,3.85803,16.4379,3.88159C16.3054,3.90516,16.169,3.88872,16.0458,3.83437L16.0354,3.83437C15.9147,3.78264,15.8116,3.69689,15.7386,3.58758C15.6658,3.47827,15.6264,3.35011,15.625,3.21875L15.625,3.125C15.625,2.2962,15.2957,1.50134,14.7097,0.915292C14.1236,0.32924,13.3287,0,12.5,0C11.6712,0,10.8764,0.32924,10.2903,0.915292C9.70424,1.50134,9.375,2.2962,9.375,3.125L9.375,3.29792C9.37463,3.40784,9.34751,3.51603,9.29597,3.61312C9.24442,3.71023,9.17001,3.79331,9.07917,3.85521C9.00757,3.87006,8.93775,3.89241,8.87083,3.92188C8.74775,3.97622,8.61126,3.99266,8.47879,3.96909C8.34632,3.94553,8.22388,3.88304,8.12708,3.78958L8.06979,3.73229C7.48355,3.14564,6.68828,2.8159,5.85892,2.8156C5.02956,2.81531,4.23405,3.14449,3.6474,3.73073C3.06074,4.31697,2.731,5.11224,2.73071,5.9416C2.73042,6.77096,3.05959,7.56647,3.64583,8.15312L3.70729,8.20937C3.80075,8.30618,3.86324,8.42861,3.8868,8.56108C3.91036,8.69355,3.89393,8.83004,3.83958,8.95312C3.83055,8.97326,3.82222,8.99375,3.81458,9.01458C3.7682,9.14058,3.6854,9.24995,3.57671,9.32878C3.46802,9.4076,3.33834,9.45234,3.20417,9.45729L3.125,9.45729C2.2962,9.45729,1.50134,9.78653,0.915292,10.3726C0.32924,10.9586,0,11.7535,0,12.5823C0,13.4111,0.32924,14.2059,0.915292,14.792C1.50134,15.378,2.2962,15.7073,3.125,15.7073L3.30625,15.7073C3.43833,15.7078,3.56737,15.7469,3.67751,15.8198C3.78764,15.8928,3.87402,15.9962,3.92604,16.1177L3.92604,16.1281C3.98039,16.2512,3.99682,16.3877,3.97326,16.5202C3.9497,16.6526,3.8872,16.7751,3.79375,16.8719L3.73646,16.9292C3.15008,17.5154,2.8206,18.3105,2.82051,19.1397C2.82041,19.9689,3.1497,20.7642,3.73594,21.3505C4.32218,21.9369,5.11734,22.2664,5.94651,22.2665C6.77567,22.2666,7.57092,21.9373,8.15729,21.351L8.21458,21.2937C8.31139,21.2003,8.43382,21.1378,8.56629,21.1143C8.69876,21.0907,8.83525,21.1071,8.95833,21.1615L9.01562,21.1854C9.14162,21.2318,9.25099,21.3146,9.32981,21.4233C9.40865,21.532,9.45337,21.6617,9.45833,21.7958L9.45833,21.875C9.45833,22.7038,9.78757,23.4986,10.3736,24.0847ZM11.0336,20.2305C10.7183,19.7827,10.2769,19.4389,9.76562,19.2427L9.76458,19.2427C9.26249,19.0283,8.70809,18.9676,8.1715,19.0683C7.63491,19.169,7.14023,19.4265,6.75,19.8083L6.67917,19.8792C6.58231,19.9759,6.46735,20.0527,6.34083,20.1051C6.21432,20.1574,6.07874,20.1844,5.94182,20.1843C5.80491,20.1843,5.66933,20.1572,5.54285,20.1048C5.41637,20.0523,5.30147,19.9755,5.20469,19.8786C5.10791,19.7818,5.03115,19.6669,4.97879,19.5403C4.92645,19.4139,4.89952,19.2782,4.89957,19.1413C4.89962,19.0044,4.92664,18.8689,4.97908,18.7423C5.03152,18.6158,5.10835,18.5009,5.20521,18.4042L5.27604,18.3333C5.65827,17.944,5.91707,17.4503,6.01999,16.9145C6.12291,16.3785,6.06536,15.8243,5.85458,15.3209C5.6438,14.8176,5.28916,14.3877,4.83509,14.0851C4.38103,13.7825,3.84775,13.6206,3.30208,13.6198L3.125,13.6198C2.84873,13.6198,2.58378,13.51,2.38843,13.3147C2.19308,13.1194,2.08333,12.8544,2.08333,12.5781C2.08333,12.3019,2.19308,12.0369,2.38843,11.8416C2.58378,11.6462,2.84873,11.5365,3.125,11.5365L3.24375,11.5365C3.79128,11.5241,4.32273,11.3491,4.77051,11.0336C5.21828,10.7183,5.56214,10.2769,5.75833,9.76562C5.97273,9.26353,6.03343,8.70914,5.93275,8.17254C5.83207,7.63595,5.57453,7.14127,5.19271,6.75104L5.12187,6.68021C4.92669,6.48461,4.81721,6.21949,4.8175,5.94317C4.81779,5.66684,4.92784,5.40196,5.12344,5.20677C5.31903,5.01158,5.58416,4.9021,5.86048,4.9024C6.1368,4.90269,6.40169,5.01274,6.59687,5.20833L6.65833,5.26771L6.66667,5.27604C7.03457,5.63611,7.49582,5.88614,7.99834,5.99786C8.50085,6.1096,9.0246,6.07858,9.51042,5.90833C9.60508,5.89605,9.69762,5.87081,9.78542,5.83333C10.281,5.62091,10.7035,5.268,11.0008,4.81817C11.2981,4.36833,11.4572,3.84128,11.4583,3.30208L11.4583,3.125C11.4583,2.84873,11.5681,2.58378,11.7634,2.38843C11.9587,2.19308,12.2238,2.08333,12.5,2.08333C12.7762,2.08333,13.0412,2.19308,13.2366,2.38843C13.4319,2.58378,13.5417,2.84873,13.5417,3.125L13.5417,3.22292C13.5443,3.76718,13.7071,4.2986,14.0098,4.75095C14.3125,5.20328,14.7417,5.55651,15.2437,5.76656C15.7458,5.97662,16.2986,6.03422,16.8332,5.93217C17.3678,5.83012,17.8606,5.57294,18.25,5.19271L18.3208,5.12187C18.4174,5.02511,18.5321,4.9483,18.6583,4.89583C18.7848,4.8434,18.9204,4.81641,19.0573,4.81641C19.1942,4.81641,19.3298,4.8434,19.4562,4.89583C19.6148,4.96126,19.7547,5.06481,19.8635,5.19729C19.9724,5.32976,20.0469,5.48707,20.0804,5.65525C20.1139,5.82343,20.1053,5.99727,20.0555,6.16135C20.0057,6.32543,19.9161,6.47468,19.7948,6.59583L19.724,6.66667C19.3639,7.03457,19.1139,7.49582,19.0021,7.99834C18.8904,8.50085,18.9215,9.0246,19.0917,9.51042C19.104,9.60508,19.1292,9.69762,19.1667,9.78542C19.3791,10.281,19.732,10.7035,20.1819,11.0008C20.6317,11.2981,21.1588,11.4572,21.6979,11.4583L21.875,11.4583C22.1512,11.4583,22.4162,11.5681,22.6116,11.7634C22.8069,11.9587,22.9167,12.2238,22.9167,12.5C22.9167,12.7762,22.8069,13.0412,22.6116,13.2366C22.4162,13.4319,22.1512,13.5417,21.875,13.5417L21.7771,13.5417C21.233,13.5445,20.7019,13.7074,20.2497,14.01C19.7976,14.3126,19.4446,14.7417,19.2345,15.2435C19.0245,15.7454,18.9669,16.298,19.0686,16.8324C19.1705,17.3669,19.4274,17.8595,19.8073,18.249L19.8792,18.3208C19.9759,18.4177,20.0527,18.5326,20.1051,18.6592C20.1574,18.7857,20.1844,18.9212,20.1843,19.0582C20.1843,19.1951,20.1572,19.3306,20.1048,19.4572C20.0523,19.5836,19.9755,19.6985,19.8786,19.7953C19.7818,19.8921,19.6669,19.9689,19.5403,20.0212C19.4139,20.0735,19.2782,20.1005,19.1413,20.1004C19.0044,20.1004,18.8689,20.0733,18.7423,20.0209C18.6158,19.9684,18.5009,19.8917,18.4042,19.7948L18.3333,19.724C17.944,19.3418,17.4503,19.0829,16.9145,18.98C16.3785,18.8771,15.8243,18.9346,15.3209,19.1454C14.8176,19.3561,14.3877,19.7108,14.0851,20.1649C13.7825,20.619,13.6206,21.1523,13.6198,21.6979L13.6198,21.875C13.6198,22.1512,13.51,22.4162,13.3147,22.6116C13.1194,22.8069,12.8544,22.9167,12.5781,22.9167C12.3019,22.9167,12.0369,22.8069,11.8416,22.6116C11.6462,22.4162,11.5365,22.1512,11.5365,21.875L11.5365,21.7573C11.5241,21.2098,11.3491,20.6783,11.0336,20.2305ZM10.1851,15.9645C10.8703,16.4223,11.6759,16.6667,12.5,16.6667C13.6051,16.6667,14.6649,16.2277,15.4462,15.4462C16.2277,14.6649,16.6667,13.6051,16.6667,12.5C16.6667,11.6759,16.4223,10.8703,15.9645,10.1851C15.5067,9.49992,14.8558,8.96586,14.0945,8.6505C13.3331,8.33514,12.4954,8.25262,11.6871,8.4134C10.8789,8.57417,10.1364,8.971,9.55372,9.55372C8.971,10.1364,8.57417,10.8789,8.4134,11.6871C8.25262,12.4954,8.33514,13.3331,8.6505,14.0945C8.96586,14.8558,9.49992,15.5067,10.1851,15.9645ZM11.3426,10.7678C11.6852,10.5389,12.0879,10.4167,12.5,10.4167C13.0525,10.4167,13.5824,10.6361,13.9731,11.0269C14.3639,11.4176,14.5833,11.9475,14.5833,12.5C14.5833,12.9121,14.4611,13.3148,14.2322,13.6574C14.0033,14,13.6779,14.2671,13.2973,14.4248C12.9166,14.5824,12.4977,14.6236,12.0935,14.5433C11.6895,14.4629,11.3182,14.2645,11.0269,13.9731C10.7355,13.6818,10.5371,13.3105,10.4567,12.9065C10.3763,12.5023,10.4176,12.0834,10.5752,11.7027C10.7329,11.3221,11,10.9967,11.3426,10.7678Z" fill-rule="evenodd" fill="#FFFFFF" fill-opacity="1"/></g></g></g></svg>