<svg xmlns="http://www.w3.org/2000/svg" xmlns:xlink="http://www.w3.org/1999/xlink" fill="none" version="1.1" width="24" height="24" viewBox="0 0 24 24"><clipPath id="master_svg0_25_6579"><rect x="0" y="0" width="24" height="24" rx="0"/></clipPath><g clip-path="url(#master_svg0_25_6579)" style="mix-blend-mode:passthrough"><g><g style="mix-blend-mode:passthrough"><path d="M15.1104,0.00618992C17.3652,0.25668,19.4677,1.26639,21.0728,2.86952C22.678,4.47264,23.6904,6.57394,23.9437,8.82841C24.0054,9.37724,23.6105,9.87215,23.0616,9.93382C22.5128,9.99549,22.0179,9.60057,21.9562,9.05174C21.7535,7.24816,20.9437,5.56714,19.6595,4.28462C18.3754,3.00211,16.6934,2.19435,14.8896,1.99396C14.3406,1.93298,13.9451,1.43857,14.0061,0.889662C14.0627,0.379962,14.4931,0.00249914,14.9937,0L15.1104,0.00618992ZM3.99812,0.99989L6.98847,0.99989C7.71637,0.993006,8.42203,1.2508,8.97393,1.72543C9.52588,2.20012,9.88639,2.85931,9.98953,3.58932C10.1063,4.47464,10.32284,5.34388,10.63416,6.1782C10.83599,6.71509,10.87967,7.29859,10.76004,7.85952C10.64041,8.42048,10.36247,8.93539,9.95522,9.34719L9.239,10.0631L9.31454,10.1829C10.45582,11.9367,11.9515,13.4324,13.7053,14.5737L13.824,14.6481L14.545,13.9291C14.9019,13.5761,15.3407,13.3191,15.8205,13.1804L16.0286,13.1282C16.5895,13.0085,17.173,13.0522,17.7078,13.2532C18.5444,13.5654,19.4135,13.7819,20.3077,13.8999C21.0365,14.0026,21.7019,14.3697,22.1775,14.9311C22.6533,15.4925,22.9061,16.2093,22.8881,16.9201L22.8881,19.9161C22.8898,20.334,22.8042,20.7475,22.6369,21.13C22.4695,21.5128,22.2241,21.8564,21.916,22.1391C21.608,22.4214,21.2447,22.6364,20.8491,22.7701C20.4534,22.9039,20.0341,22.9537,19.6001,22.9142C16.3674,22.5629,13.2623,21.4583,10.54181,19.6941C8.00174,18.0801,5.84819,15.9265,4.23884,13.3938C2.46342,10.6532,1.358545,7.53287,1.0121748,4.27008C0.9746907,3.8553,1.0239884,3.43724,1.156932,3.04249C1.289878,2.64779,1.503542,2.2851,1.784333,1.97751C2.06513,1.66991,2.4068899999999998,1.42415,2.7878499999999997,1.25587C3.1687,1.08764,3.58042,1.00052,3.99812,0.99989ZM7.00777,2.99989L3.9994,2.99989C3.86037,3.00016,3.72298,3.02923,3.59597,3.08534C3.46896,3.14144,3.35504,3.22336,3.26144,3.3259C3.16785,3.42842,3.09662,3.54933,3.05232,3.68087C3.008,3.81246,2.9915599999999998,3.95182,3.00252,4.07448C3.31419,7.00929,4.31278,9.82941,5.92213,12.3138C7.37874,14.6061,9.32218,16.5495,11.6222,18.0111C14.088,19.6101,16.8945,20.6084,19.7982,20.9242C19.9368,20.9367,20.0765,20.9201,20.2086,20.8754C20.3404,20.8309,20.4615,20.7592,20.5641,20.6652C20.6667,20.571,20.7485,20.4565,20.8045,20.3286C20.8602,20.2012,20.8887,20.0634,20.8881,19.9201L20.8884,16.8952C20.8945,16.6501,20.8103,16.4112,20.6516,16.224C20.4931,16.0368,20.2713,15.9145,20.0374,15.8815C19.0025,15.745,17.9864,15.4919,17.0063,15.1262C16.8273,15.0589,16.6328,15.0443,16.4456,15.0842C16.2588,15.124,16.0873,15.2166,15.9552,15.3472L14.6852,16.6172C14.3669,16.9355,13.8752,17.0019,13.4838,16.7794C10.82381,15.2668,8.62138,13.0644,7.10883,10.4044C6.88631,10.0131,6.95269,9.52129,7.27101,9.20297L8.53707,7.93693C8.67151,7.80099,8.76415,7.62937,8.804020000000001,7.44237C8.8439,7.25539,8.82934,7.06091,8.76122,6.87969C8.39631,5.90178,8.1432,4.8857,8.00796,3.86003C7.974,3.61975,7.85383,3.40002,7.66985,3.2418C7.48585,3.08356,7.25054,2.99759,7.00777,2.99989ZM14.0185,4.80856C14.1243,4.2665,14.6494,3.91281,15.1915,4.01857C16.363599999999998,4.24726,17.4408,4.8205,18.2852,5.66493C19.1296,6.50934,19.7028,7.5865,19.9315,8.75854C20.0373,9.3006,19.6836,9.82578,19.1415,9.93155C18.5995,10.0373,18.0743,9.68365,17.9685,9.14159C17.816,8.36019,17.4339,7.64204,16.871000000000002,7.07912C16.3081,6.51619,15.5899,6.13402,14.8085,5.98156C14.2664,5.87579,13.9127,5.35062,14.0185,4.80856Z" fill-rule="evenodd" fill="#FFFFFF" fill-opacity="1"/></g></g></g></svg>