<svg xmlns="http://www.w3.org/2000/svg" xmlns:xlink="http://www.w3.org/1999/xlink" fill="none" version="1.1" width="28" height="28" viewBox="0 0 28 28"><clipPath id="master_svg0_21_151"><rect x="0" y="0" width="28" height="28" rx="0"/></clipPath><g clip-path="url(#master_svg0_21_151)" style="mix-blend-mode:passthrough"><g><g style="mix-blend-mode:passthrough"><path d="M5.83331298828125,4.66664298828125C5.18898298828125,4.66664298828125,4.66664298828125,5.18898298828125,4.66664298828125,5.83331298828125C4.66664298828125,5.83331298828125,4.66664298828125,22.16661298828125,4.66664298828125,22.16661298828125C4.66664298828125,22.66691298828125,4.98153298828125,23.09371298828125,5.42392298828125,23.25941298828125C5.42392298828125,23.25941298828125,17.84171298828125,10.84168298828125,17.84171298828125,10.84168298828125C18.29731298828125,10.38607298828125,19.03601298828125,10.38607298828125,19.49161298828125,10.84168298828125C19.49161298828125,10.84168298828125,23.33331298828125,14.68341298828125,23.33331298828125,14.68341298828125C23.33331298828125,14.68341298828125,23.33331298828125,5.83331298828125,23.33331298828125,5.83331298828125C23.33331298828125,5.18897298828125,22.81101298828125,4.66664298828125,22.16661298828125,4.66664298828125C22.16661298828125,4.66664298828125,5.83331298828125,4.66664298828125,5.83331298828125,4.66664298828125C5.83331298828125,4.66664298828125,5.83331298828125,4.66664298828125,5.83331298828125,4.66664298828125ZM25.66661298828125,17.49881298828125C25.66661298828125,17.49881298828125,25.66661298828125,5.83331298828125,25.66661298828125,5.83331298828125C25.66661298828125,3.90032298828125,24.09971298828125,2.33331298828125,22.16661298828125,2.33331298828125C22.16661298828125,2.33331298828125,5.83331298828125,2.33331298828125,5.83331298828125,2.33331298828125C3.90032298828125,2.33331298828125,2.33331298828125,3.90032298828125,2.33331298828125,5.83331298828125C2.33331298828125,5.83331298828125,2.33331298828125,22.16661298828125,2.33331298828125,22.16661298828125C2.33331298828125,24.09971298828125,3.90032298828125,25.66661298828125,5.83331298828125,25.66661298828125C5.83331298828125,25.66661298828125,22.16661298828125,25.66661298828125,22.16661298828125,25.66661298828125C24.09971298828125,25.66661298828125,25.66661298828125,24.09971298828125,25.66661298828125,22.16661298828125C25.66661298828125,22.16661298828125,25.66661298828125,17.50111298828125,25.66661298828125,17.50111298828125C25.66661298828125,17.50031298828125,25.66661298828125,17.49961298828125,25.66661298828125,17.49881298828125C25.66661298828125,17.49881298828125,25.66661298828125,17.49881298828125,25.66661298828125,17.49881298828125ZM23.33331298828125,17.983212988281252C23.33331298828125,17.983212988281252,18.66661298828125,13.31651298828125,18.66661298828125,13.31651298828125C18.66661298828125,13.31651298828125,8.64989298828125,23.33331298828125,8.64989298828125,23.33331298828125C8.64989298828125,23.33331298828125,22.16661298828125,23.33331298828125,22.16661298828125,23.33331298828125C22.81101298828125,23.33331298828125,23.33331298828125,22.81101298828125,23.33331298828125,22.16661298828125C23.33331298828125,22.16661298828125,23.33331298828125,17.983212988281252,23.33331298828125,17.983212988281252C23.33331298828125,17.983212988281252,23.33331298828125,17.983212988281252,23.33331298828125,17.983212988281252ZM9.91664298828125,9.33331298828125C9.59448298828125,9.33331298828125,9.33331298828125,9.59448298828125,9.33331298828125,9.91664298828125C9.33331298828125,10.23881298828125,9.59448298828125,10.49998298828125,9.91664298828125,10.49998298828125C10.23881298828125,10.49998298828125,10.49998298828125,10.23881298828125,10.49998298828125,9.91664298828125C10.49998298828125,9.59448298828125,10.23881298828125,9.33331298828125,9.91664298828125,9.33331298828125C9.91664298828125,9.33331298828125,9.91664298828125,9.33331298828125,9.91664298828125,9.33331298828125ZM6.99998298828125,9.91664298828125C6.99998298828125,8.30581298828125,8.30581298828125,6.99998298828125,9.91664298828125,6.99998298828125C11.52747298828125,6.99998298828125,12.83331298828125,8.30581298828125,12.83331298828125,9.91664298828125C12.83331298828125,11.52747298828125,11.52747298828125,12.83331298828125,9.91664298828125,12.83331298828125C8.30581298828125,12.83331298828125,6.99998298828125,11.52747298828125,6.99998298828125,9.91664298828125C6.99998298828125,9.91664298828125,6.99998298828125,9.91664298828125,6.99998298828125,9.91664298828125Z" fill-rule="evenodd" fill="#FFFFFF" fill-opacity="1"/></g></g></g></svg>