<svg xmlns="http://www.w3.org/2000/svg" xmlns:xlink="http://www.w3.org/1999/xlink" fill="none" version="1.1" width="20" height="20" viewBox="0 0 20 20"><clipPath id="master_svg0_6_14642"><rect x="0" y="0" width="20" height="20" rx="0"/></clipPath><g clip-path="url(#master_svg0_6_14642)" style="mix-blend-mode:passthrough"><g><g style="mix-blend-mode:passthrough"><path d="M11.981255859375,3.210014619921875C12.103375859375,3.281126919921875,12.197785859375,3.391523919921875,12.249085859375,3.523191919921875C12.300385859375,3.654860919921875,12.305565859375001,3.800029919921875,12.263755859375,3.935014919921875C12.263755859375,3.935014919921875,10.846255859374999,8.540022919921874,10.846255859374999,8.540022919921874C10.846255859374999,8.540022919921874,13.333755859375,8.540022919921874,13.333755859375,8.540022919921874C13.455835859375,8.539972919921876,13.575255859375,8.575672919921875,13.677255859375,8.642702919921874C13.779255859375,8.709742919921876,13.859425859375,8.805182919921876,13.907835859375,8.917252919921875C13.956175859375,9.029322919921874,13.970675859375,9.153112919921874,13.949585859375,9.273322919921874C13.928425859375,9.393552919921875,13.872505859375,9.504952919921875,13.788755859375,9.593772919921875C13.788755859375,9.593772919921875,7.121255859375,16.677492919921875,7.121255859375,16.677492919921875C7.0244958593749995,16.780392919921873,6.895735859375,16.847492919921876,6.755975859375,16.867792919921875C6.616205859375,16.888192919921877,6.473665859375,16.860592919921874,6.351585859375,16.789592919921873C6.229525859375,16.718492919921875,6.135105859375,16.608292919921873,6.083745859375,16.476692919921874C6.032385859375,16.345092919921875,6.027095859375,16.199992919921876,6.068755859375,16.064992919921878C6.068755859375,16.064992919921878,7.487505859375,11.458742919921875,7.487505859375,11.458742919921875C7.487505859375,11.458742919921875,5.000004859375,11.458742919921875,5.000004859375,11.458742919921875C4.877936859375,11.458822919921875,4.758524859375,11.423122919921875,4.656512859375,11.356072919921875C4.554499859375,11.289032919921874,4.474351759375,11.193592919921874,4.425961559375,11.081522919921875C4.377571589375,10.969462919921874,4.363058459375,10.845672919921874,4.384213539375,10.725452919921874C4.405368659375,10.605222919921875,4.461265859375,10.493832919921875,4.545004859375,10.405022919921876C4.545004859375,10.405022919921876,11.211255859375001,3.321264919921875,11.211255859375001,3.321264919921875C11.307985859375,3.218217119921875,11.436765859375,3.150991519921875,11.576615859375,3.130559789921875C11.716455859375,3.110128019921875,11.859095859375,3.137695719921875,11.981255859375,3.208764619921875C11.981255859375,3.208764619921875,11.981255859375,3.210014619921875,11.981255859375,3.210014619921875C11.981255859375,3.210014619921875,11.981255859375,3.210014619921875,11.981255859375,3.210014619921875Z" fill="#FFFFFF" fill-opacity="1"/></g><g style="mix-blend-mode:passthrough"><path d="M2.5,5C2.5,5,7.915,5,7.915,5C7.915,5,6.74,6.25,6.74,6.25C6.74,6.25,2.5,6.25,2.5,6.25C2.16848,6.25,1.85053,6.3817,1.61612,6.6161200000000004C1.3817,6.85053,1.25,7.168480000000001,1.25,7.5C1.25,7.5,1.25,12.5,1.25,12.5C1.25,12.831520000000001,1.3817,13.14947,1.61612,13.38392C1.85053,13.61833,2.16848,13.75,2.5,13.75C2.5,13.75,5.475,13.75,5.475,13.75C5.475,13.75,5.09,15,5.09,15C5.09,15,2.5,15,2.5,15C1.83696,15,1.20108,14.73658,0.732233,14.26775C0.263393,13.79892,3.64292e-16,13.16304,0,12.5C0,12.5,0,7.5,0,7.5C1.21431e-16,6.8369599999999995,0.263393,6.20108,0.732233,5.732233C1.20108,5.263392,1.83696,5.000000000000001,2.5,5C2.5,5,2.5,5,2.5,5C2.5,5,2.5,5,2.5,5Z" fill="#FFFFFF" fill-opacity="1"/></g><g style="mix-blend-mode:passthrough"><path d="M2.5,7.5C2.5,7.5,5.5625,7.5,5.5625,7.5C5.5625,7.5,3.635,9.54875,3.635,9.54875C3.436083,9.76018,3.288982,10.01491,3.205273,10.29287C3.121566,10.57083,3.103542,10.864429999999999,3.152621,11.15054C3.2016999999999998,11.43665,3.316542,11.707460000000001,3.4881,11.94163C3.6596599999999997,12.17581,3.88324,12.36695,4.14125,12.5C4.14125,12.5,2.5,12.5,2.5,12.5C2.5,12.5,2.5,7.5,2.5,7.5C2.5,7.5,2.5,7.5,2.5,7.5ZM13.2437,5C13.2437,5,12.8588,6.25,12.8588,6.25C12.8588,6.25,15,6.25,15,6.25C15.3315,6.25,15.6495,6.3817,15.8839,6.6161200000000004C16.118299999999998,6.85053,16.25,7.168480000000001,16.25,7.5C16.25,7.5,16.25,12.5,16.25,12.5C16.25,12.831520000000001,16.118299999999998,13.14947,15.8839,13.38392C15.6495,13.61833,15.3315,13.75,15,13.75C15,13.75,11.595,13.75,11.595,13.75C11.595,13.75,10.4175,15,10.4175,15C10.4175,15,15,15,15,15C15.663,15,16.2989,14.73658,16.7678,14.26775C17.2366,13.79892,17.5,13.16304,17.5,12.5C17.5,12.5,17.5,7.5,17.5,7.5C17.5,6.8369599999999995,17.2366,6.20108,16.7678,5.732233C16.2989,5.263392,15.663,5.000000000000002,15,5C15,5,13.2437,5,13.2437,5C13.2437,5,13.2437,5,13.2437,5Z" fill="#FFFFFF" fill-opacity="1"/></g><g style="mix-blend-mode:passthrough"><path d="M14.999990234375,12.5C14.999990234375,12.5,12.771240234375,12.5,12.771240234375,12.5C12.771240234375,12.5,14.698740234375,10.45125,14.698740234375,10.45125C14.819990234375,10.3225,14.921240234375,10.17875,14.999990234375,10.026250000000001C14.999990234375,10.026250000000001,14.999990234375,12.5,14.999990234375,12.5C14.999990234375,12.5,14.999990234375,12.5,14.999990234375,12.5ZM14.999990234375,8.3075C14.999990234375,8.3075,14.999990234375,7.5,14.999990234375,7.5C14.999990234375,7.5,14.192490234375,7.5,14.192490234375,7.5C14.539070234375,7.678657,14.821330234375,7.960918,14.999990234375,8.3075C14.999990234375,8.3075,14.999990234375,8.3075,14.999990234375,8.3075ZM19.999990234374998,10C19.999990234374998,10.49728,19.802450234375,10.97419,19.450810234375,11.32583C19.099180234374998,11.67746,18.622270234375,11.875,18.124990234374998,11.875C18.124990234374998,11.875,18.124990234374998,8.125,18.124990234374998,8.125C18.622270234375,8.125,19.099180234374998,8.322544,19.450810234375,8.67418C19.802450234375,9.02581,19.999990234374998,9.50272,19.999990234374998,10C19.999990234374998,10,19.999990234374998,10,19.999990234374998,10Z" fill="#FFFFFF" fill-opacity="1"/></g></g></g></svg>