<svg xmlns="http://www.w3.org/2000/svg" xmlns:xlink="http://www.w3.org/1999/xlink" fill="none" version="1.1" width="25" height="29.4118709564209" viewBox="0 0 25 29.4118709564209"><path d="M24.137,18.4249C23.8351,17.4903,23.5041,16.5653,23.1443,15.6514L21.8061,12.3485C21.8061,12.3102,21.8237,11.6602,21.8237,11.3249C21.8237,5.67644,19.1282,0,12.5003,0C5.87235,0,3.17678,5.67644,3.17678,11.3235C3.17678,11.6602,3.19296,12.3102,3.19443,12.3485L1.8562,15.6514C1.49149,16.597,1.12826,17.5808,0.863555,18.4249C-0.401145,22.4499,0.00914717,24.1161,0.32091,24.1528Q0.990025,24.2322,2.92531,21.1234C2.92531,22.9234,3.86207,25.2734,5.89,26.9705C5.13265,27.2013,4.20325,27.5572,3.60472,27.9925C3.06796,28.3852,3.1356,28.7866,3.23266,28.9484C3.65766,29.6557,10.5194,29.3999,12.5017,29.1793C14.4826,29.3999,21.3458,29.6557,21.7693,28.9469C21.8664,28.7852,21.934,28.3852,21.3973,27.9925C20.7988,27.5572,19.8693,27.2013,19.1105,26.969C21.1385,25.2734,22.0752,22.9234,22.0752,21.122Q24.0105,24.2322,24.6796,24.1514C24.9914,24.1146,25.4002,22.4499,24.137,18.4249Z" fill="#D8D8D8" fill-opacity="1"/></svg>