<svg xmlns="http://www.w3.org/2000/svg" xmlns:xlink="http://www.w3.org/1999/xlink" fill="none" version="1.1" width="18" height="30" viewBox="0 0 18 30"><path d="M9,25.5C10.242,25.5,11.25,26.508,11.25,27.75C11.25,28.992,10.242,30,9,30C7.758,30,6.75,28.992,6.75,27.75C6.75,26.508,7.758,25.5,9,25.5ZM9,0C13.971,0,18,4.029,18,9C18,12.2475,16.8705,13.935,13.989,16.3845C11.0985,18.84,10.5,19.9455,10.5,22.5L7.5,22.5C7.5,18.789,8.6805,16.9575,12.0465,14.0985C14.322,12.165,15,11.151,15,9C15,5.685,12.315,3,9,3C5.685,3,3,5.685,3,9L3,10.5L0,10.5L0,9C0,4.029,4.029,0,9,0Z" fill="#D8D8D8" fill-opacity="1"/></svg>