<svg xmlns="http://www.w3.org/2000/svg" xmlns:xlink="http://www.w3.org/1999/xlink" fill="none" version="1.1" width="24"
    height="24" viewBox="0 0 24 24">
    <clipPath id="master_svg0_6_0259">
        <rect x="0" y="0" width="24" height="24" rx="0" transform="rotate(45deg) ..." />
    </clipPath>
    <g clip-path="url(#master_svg0_6_0259)" style="mix-blend-mode:passthrough">
        <g>
            <g style="mix-blend-mode:passthrough">
                <path
                    transition = "ease all 0.3s"
                    d="M8.08237690087825,0.04658882413193211C9.50125690087825,-0.09789147586806789,10.93420690087825,0.09690232413193212,12.263006900878251,0.6149143241319321C13.59180690087825,1.1329273241319322,14.77850690087825,1.959327324131932,15.72520690087825,3.025987324131932C16.498006900878252,3.8966673241319323,17.09280690087825,4.9070673241319325,17.47930690087825,5.999997324131932C17.47930690087825,5.999997324131932,18.001206900878252,5.999997324131932,18.001206900878252,5.999997324131932C19.37830690087825,6.001617324131932,20.713006900878252,6.476947324131932,21.78120690087825,7.346207324131932C22.84940690087825,8.215457324131933,23.58600690087825,9.425717324131933,23.86750690087825,10.773787324131932C24.148906900878252,12.121887324131933,23.95800690087825,13.525787324131931,23.32690690087825,14.749887324131931C22.69570690087825,15.973887324131931,21.662706900878252,16.943487324131933,20.40120690087825,17.49598732413193C19.89530690087825,17.717587324131934,19.30560690087825,17.48708732413193,19.08400690087825,16.98118732413193C18.862406900878252,16.475287324131934,19.09290690087825,15.885587324131933,19.59880690087825,15.663987324131933C20.43980690087825,15.295687324131933,21.12850690087825,14.649287324131931,21.54930690087825,13.833187324131933C21.97010690087825,13.017187324131932,22.09730690087825,12.081287324131932,21.909706900878252,11.182587324131932C21.722106900878252,10.283787324131932,21.23100690087825,9.476967324131932,20.51890690087825,8.897467324131933C19.80680690087825,8.318047324131932,18.917206900878252,8.001167324131933,17.99920690087825,7.999997324131932C17.99920690087825,7.999997324131932,17.99920690087825,7.999997324131932,17.99920690087825,7.999997324131932C17.99920690087825,7.999997324131932,16.74000690087825,7.999997324131932,16.74000690087825,7.999997324131932C16.28400690087825,7.999997324131932,15.88580690087825,7.691537324131932,15.77180690087825,7.250037324131932C15.49440690087825,6.175987324131932,14.96580690087825,5.183237324131932,14.229406900878251,4.353607324131932C13.493106900878251,3.5239773241319323,12.570106900878251,2.881227324131932,11.536606900878251,2.478327324131932C10.503006900878251,2.075437324131932,9.388556900878251,1.9239273241319321,8.28498690087825,2.036297324131932C7.181416900878251,2.148677324131932,6.120346900878251,2.521707324131932,5.189246900878251,3.124657324131932C4.25814690087825,3.7276073241319323,3.4836669008782506,4.543207324131932,2.9296569008782507,5.504237324131932C2.3756369008782507,6.465257324131932,2.0579469008782505,7.544187324131932,2.0027769008782506,8.652097324131931C1.9475969008782505,9.759997324131932,2.1565069008782505,10.865187324131933,2.6122869008782508,11.876487324131933C3.0680769008782507,12.887787324131931,3.7576769008782507,13.776287324131932,4.624266900878251,14.468787324131933C5.0557169008782505,14.813587324131932,5.12598690087825,15.442787324131933,4.781216900878251,15.874287324131933C4.43644690087825,16.30568732413193,3.8071869008782504,16.37598732413193,3.3757369008782505,16.03118732413193C2.261556900878251,15.140887324131931,1.3749269008782505,13.998487324131933,0.7889159008782506,12.698287324131933C0.20290790087825059,11.397987324131932,-0.06569399912174939,9.977057324131932,0.0052492008782506,8.552607324131932C0.0761924008782506,7.128157324131932,0.4846499008782506,5.740967324131932,1.1969569008782506,4.505357324131932C1.9092569008782505,3.269757324131932,2.9050169008782505,2.221127324131932,4.1021469008782505,1.445907324131932C5.299276900878251,0.6706863241319321,6.6634969008782505,0.19106932413193212,8.08237690087825,0.04658882413193211C8.08237690087825,0.04658882413193211,8.08237690087825,0.04658882413193211,8.08237690087825,0.04658882413193211ZM7.999996900878251,11.999987324131933C8.55228690087825,11.999987324131933,8.999996900878251,12.447687324131932,8.999996900878251,12.999987324131933C8.999996900878251,12.999987324131933,8.999996900878251,14.999987324131933,8.999996900878251,14.999987324131933C8.999996900878251,15.552287324131932,8.55228690087825,15.999987324131933,7.999996900878251,15.999987324131933C7.447716900878251,15.999987324131933,6.9999969008782505,15.552287324131932,6.9999969008782505,14.999987324131933C6.9999969008782505,14.999987324131933,6.9999969008782505,12.999987324131933,6.9999969008782505,12.999987324131933C6.9999969008782505,12.447687324131932,7.447716900878251,11.999987324131933,7.999996900878251,11.999987324131933C7.999996900878251,11.999987324131933,7.999996900878251,11.999987324131933,7.999996900878251,11.999987324131933ZM16.00000690087825,11.999987324131933C16.55230690087825,11.999987324131933,17.00000690087825,12.447687324131932,17.00000690087825,12.999987324131933C17.00000690087825,12.999987324131933,17.00000690087825,14.999987324131933,17.00000690087825,14.999987324131933C17.00000690087825,15.552287324131932,16.55230690087825,15.999987324131933,16.00000690087825,15.999987324131933C15.44770690087825,15.999987324131933,15.000006900878251,15.552287324131932,15.000006900878251,14.999987324131933C15.000006900878251,14.999987324131933,15.000006900878251,12.999987324131933,15.000006900878251,12.999987324131933C15.000006900878251,12.447687324131932,15.44770690087825,11.999987324131933,16.00000690087825,11.999987324131933C16.00000690087825,11.999987324131933,16.00000690087825,11.999987324131933,16.00000690087825,11.999987324131933ZM12.000006900878251,13.999987324131933C12.55230690087825,13.999987324131933,13.000006900878251,14.447687324131932,13.000006900878251,14.999987324131933C13.000006900878251,14.999987324131933,13.000006900878251,16.999987324131933,13.000006900878251,16.999987324131933C13.000006900878251,17.55228732413193,12.55230690087825,17.999987324131933,12.000006900878251,17.999987324131933C11.44770690087825,17.999987324131933,11.000006900878251,17.55228732413193,11.000006900878251,16.999987324131933C11.000006900878251,16.999987324131933,11.000006900878251,14.999987324131933,11.000006900878251,14.999987324131933C11.000006900878251,14.447687324131932,11.44770690087825,13.999987324131933,12.000006900878251,13.999987324131933C12.000006900878251,13.999987324131933,12.000006900878251,13.999987324131933,12.000006900878251,13.999987324131933ZM7.999996900878251,17.999987324131933C8.55228690087825,17.999987324131933,8.999996900878251,18.44768732413193,8.999996900878251,18.999987324131933C8.999996900878251,18.999987324131933,8.999996900878251,20.999987324131933,8.999996900878251,20.999987324131933C8.999996900878251,21.55228732413193,8.55228690087825,21.999987324131933,7.999996900878251,21.999987324131933C7.447716900878251,21.999987324131933,6.9999969008782505,21.55228732413193,6.9999969008782505,20.999987324131933C6.9999969008782505,20.999987324131933,6.9999969008782505,18.999987324131933,6.9999969008782505,18.999987324131933C6.9999969008782505,18.44768732413193,7.447716900878251,17.999987324131933,7.999996900878251,17.999987324131933C7.999996900878251,17.999987324131933,7.999996900878251,17.999987324131933,7.999996900878251,17.999987324131933ZM16.00000690087825,17.999987324131933C16.55230690087825,17.999987324131933,17.00000690087825,18.44768732413193,17.00000690087825,18.999987324131933C17.00000690087825,18.999987324131933,17.00000690087825,20.999987324131933,17.00000690087825,20.999987324131933C17.00000690087825,21.55228732413193,16.55230690087825,21.999987324131933,16.00000690087825,21.999987324131933C15.44770690087825,21.999987324131933,15.000006900878251,21.55228732413193,15.000006900878251,20.999987324131933C15.000006900878251,20.999987324131933,15.000006900878251,18.999987324131933,15.000006900878251,18.999987324131933C15.000006900878251,18.44768732413193,15.44770690087825,17.999987324131933,16.00000690087825,17.999987324131933C16.00000690087825,17.999987324131933,16.00000690087825,17.999987324131933,16.00000690087825,17.999987324131933ZM12.000006900878251,19.999987324131933C12.55230690087825,19.999987324131933,13.000006900878251,20.44768732413193,13.000006900878251,20.999987324131933C13.000006900878251,20.999987324131933,13.000006900878251,22.999987324131933,13.000006900878251,22.999987324131933C13.000006900878251,23.55228732413193,12.55230690087825,23.999987324131933,12.000006900878251,23.999987324131933C11.44770690087825,23.999987324131933,11.000006900878251,23.55228732413193,11.000006900878251,22.999987324131933C11.000006900878251,22.999987324131933,11.000006900878251,20.999987324131933,11.000006900878251,20.999987324131933C11.000006900878251,20.44768732413193,11.44770690087825,19.999987324131933,12.000006900878251,19.999987324131933C12.000006900878251,19.999987324131933,12.000006900878251,19.999987324131933,12.000006900878251,19.999987324131933Z"
                    fill-rule="evenodd" fill="pink" fill-opacity="1" />
            </g>
        </g>
    </g>
</svg>