<svg xmlns="http://www.w3.org/2000/svg" xmlns:xlink="http://www.w3.org/1999/xlink" fill="none" version="1.1" width="22" height="21.450002670288086" viewBox="0 0 22 21.450002670288086"><path d="M4.9005,17.6L0,21.45L0,1.1C0,0.492487,0.492487,0,1.1,0L20.9,0C21.5075,0,22,0.492487,22,1.1L22,16.5C22,17.1075,21.5075,17.6,20.9,17.6L4.9005,17.6ZM4.1393,15.4L19.8,15.4L19.8,2.2L2.2,2.2L2.2,16.9235L4.1393,15.4ZM9.9,7.7L12.1,7.7L12.1,9.9L9.9,9.9L9.9,7.7ZM5.5,7.7L7.7,7.7L7.7,9.9L5.5,9.9L5.5,7.7ZM14.3,7.7L16.5,7.7L16.5,9.9L14.3,9.9L14.3,7.7Z" fill="#FFC7C7" fill-opacity="1"/></svg>