<svg xmlns="http://www.w3.org/2000/svg" xmlns:xlink="http://www.w3.org/1999/xlink" fill="none" version="1.1" width="24" height="24" viewBox="0 0 24 24"><clipPath id="master_svg0_25_5963"><rect x="0" y="0" width="24" height="24" rx="0"/></clipPath><g clip-path="url(#master_svg0_25_5963)" style="mix-blend-mode:passthrough"><g><g style="mix-blend-mode:passthrough"><path d="M20,2.878679633140564C19.7026,2.878679633140564,19.4174,2.996819633140564,19.2071,3.207109633140564C19.2071,3.207109633140564,9.90296,12.511279633140564,9.90296,12.511279633140564C9.90296,12.511279633140564,9.37437,14.625679633140564,9.37437,14.625679633140564C9.37437,14.625679633140564,11.4888,14.097079633140565,11.4888,14.097079633140565C11.4888,14.097079633140565,20.7929,4.792889633140565,20.7929,4.792889633140565C21.0032,4.582599633140564,21.1213,4.297389633140564,21.1213,3.999999633140564C21.1213,3.702609633140564,21.0032,3.417399633140564,20.7929,3.207109633140564C20.5826,2.996819633140564,20.2974,2.878679633140564,20,2.878679633140564C20,2.878679633140564,20,2.878679633140564,20,2.878679633140564ZM17.7929,1.7928936331405638C18.3783,1.2075316331405639,19.1722,0.878679633140564,20,0.878679633140564C20.8278,0.878679633140564,21.6217,1.2075316331405639,22.2071,1.7928936331405638C22.7925,2.3782496331405643,23.1213,3.1721696331405638,23.1213,3.999999633140564C23.1213,4.8278296331405635,22.7925,5.621749633140564,22.2071,6.207109633140564C22.2071,6.207109633140564,12.7071,15.707079633140564,12.7071,15.707079633140564C12.5789,15.835279633140564,12.4184,15.926179633140563,12.2425,15.970179633140564C12.2425,15.970179633140564,8.24254,16.970179633140564,8.24254,16.970179633140564C7.90176,17.055379633140564,7.54127,16.955479633140563,7.29289,16.707079633140566C7.04451,16.458679633140562,6.94466,16.098279633140564,7.02986,15.757479633140564C7.02986,15.757479633140564,8.02986,11.757479633140564,8.02986,11.757479633140564C8.073820000000001,11.581679633140563,8.164729999999999,11.421079633140565,8.29289,11.292879633140563C8.29289,11.292879633140563,17.7929,1.7928936331405638,17.7929,1.7928936331405638C17.7929,1.7928936331405638,17.7929,1.7928936331405638,17.7929,1.7928936331405638ZM1.8786800000000001,3.878679633140564C2.44129,3.316069633140564,3.20435,2.999999633140564,4,2.999999633140564C4,2.999999633140564,11,2.999999633140564,11,2.999999633140564C11.5523,2.999999633140564,12,3.447719633140564,12,3.999999633140564C12,4.552279633140564,11.5523,4.999999633140564,11,4.999999633140564C11,4.999999633140564,4,4.999999633140564,4,4.999999633140564C3.73478,4.999999633140564,3.48043,5.105359633140564,3.29289,5.292889633140564C3.10536,5.480429633140564,3,5.734779633140564,3,5.999999633140564C3,5.999999633140564,3,19.999979633140565,3,19.999979633140565C3,20.265179633140566,3.10536,20.519579633140562,3.29289,20.707079633140562C3.48043,20.894679633140562,3.73478,20.999979633140565,4,20.999979633140565C4,20.999979633140565,18,20.999979633140565,18,20.999979633140565C18.2652,20.999979633140565,18.5196,20.894679633140562,18.7071,20.707079633140562C18.8946,20.519579633140562,19,20.265179633140566,19,19.999979633140565C19,19.999979633140565,19,12.999979633140564,19,12.999979633140564C19,12.447679633140565,19.4477,11.999979633140564,20,11.999979633140564C20.5523,11.999979633140564,21,12.447679633140565,21,12.999979633140564C21,12.999979633140564,21,19.999979633140565,21,19.999979633140565C21,20.795679633140566,20.6839,21.558679633140564,20.1213,22.121279633140563C19.5587,22.683979633140563,18.7957,22.999979633140565,18,22.999979633140565C18,22.999979633140565,4,22.999979633140565,4,22.999979633140565C3.20435,22.999979633140565,2.44129,22.683979633140563,1.8786800000000001,22.121279633140563C1.31607,21.558679633140564,1,20.795679633140566,1,19.999979633140565C1,19.999979633140565,1,5.999999633140564,1,5.999999633140564C1,5.204349633140564,1.31607,4.441289633140563,1.8786800000000001,3.878679633140564C1.8786800000000001,3.878679633140564,1.8786800000000001,3.878679633140564,1.8786800000000001,3.878679633140564Z" fill-rule="evenodd" fill="#FFFFFF" fill-opacity="1"/></g></g></g></svg>