<svg xmlns="http://www.w3.org/2000/svg" xmlns:xlink="http://www.w3.org/1999/xlink" fill="none" version="1.1" width="24" height="24" viewBox="0 0 24 24"><clipPath id="master_svg0_25_5062" transform="matrix(0,1,-1,0,24,-24)"><rect x="24" y="0" width="24" height="24" rx="0"/></clipPath><g clip-path="url(#master_svg0_25_5062)" style="mix-blend-mode:passthrough"><g transform="matrix(0,1,-1,0,24,-24)"><g style="mix-blend-mode:passthrough"><path d="M35.29289,8.292893C35.68342,7.9023689,36.31658,7.9023689,36.70711,8.292893C36.70711,8.292893,42.7071,14.29289,42.7071,14.29289C43.0976,14.68342,43.0976,15.31658,42.7071,15.70711C42.3166,16.097630000000002,41.6834,16.097630000000002,41.2929,15.70711C41.2929,15.70711,36,10.41421,36,10.41421C36,10.41421,30.70711,15.70711,30.70711,15.70711C30.316580000000002,16.097630000000002,29.683417,16.097630000000002,29.292893,15.70711C28.9023689,15.31658,28.9023689,14.68342,29.292893,14.29289C29.292893,14.29289,35.29289,8.292893,35.29289,8.292893C35.29289,8.292893,35.29289,8.292893,35.29289,8.292893Z" fill-rule="evenodd" fill="#FFFFFF" fill-opacity="1"/></g></g></g></svg>