<svg xmlns="http://www.w3.org/2000/svg" xmlns:xlink="http://www.w3.org/1999/xlink" fill="none" version="1.1" width="20" height="20" viewBox="0 0 20 20"><clipPath id="master_svg0_6_14166"><rect x="0" y="0" width="20" height="20" rx="0"/></clipPath><g clip-path="url(#master_svg0_6_14166)" style="mix-blend-mode:passthrough"><g><g style="mix-blend-mode:passthrough"><path d="M5.87511390625,2.541883505859375C6.96907390625,1.447925505859375,8.45280390625,0.833343505859375,9.99992390625,0.833343505859375C11.54700390625,0.833343505859375,13.03070390625,1.447925505859375,14.12470390625,2.541883505859375C15.21870390625,3.635853505859375,15.83320390625,5.119583505859375,15.83320390625,6.666673505859375C15.83320390625,9.460593505859375,16.430703906250002,11.195543505859375,16.981503906249998,12.205043505859376C17.25800390625,12.712043505859375,17.52720390625,13.044543505859375,17.71420390625,13.242043505859375C17.80800390625,13.340943505859375,17.88160390625,13.406543505859375,17.92600390625,13.443543505859376C17.94820390625,13.462043505859375,17.96300390625,13.473343505859376,17.96940390625,13.478043505859375C17.97040390625,13.478843505859375,17.97120390625,13.479443505859376,17.97180390625,13.479843505859375C18.27060390625,13.685043505859374,18.40270390625,14.060443505859375,18.29750390625,14.408143505859375C18.19110390625,14.759543505859375,17.86710390625,15.000043505859376,17.499903906249997,15.000043505859376C17.499903906249997,15.000043505859376,2.49990390625,15.000043505859376,2.49990390625,15.000043505859376C2.13267990625,15.000043505859376,1.80874090625,14.759543505859375,1.70232540625,14.408143505859375C1.59703990625,14.060443505859375,1.72923920625,13.685043505859374,2.02797590625,13.479843505859375C2.02856090625,13.479443505859376,2.02935690625,13.478843505859375,2.03035790625,13.478043505859375C2.03677490625,13.473343505859376,2.05165190625,13.462043505859375,2.07383690625,13.443543505859376C2.11818390625,13.406543505859375,2.19183690625,13.340943505859375,2.28556590625,13.242043505859375C2.4725909062499998,13.044543505859375,2.74182390625,12.712043505859375,3.01832390625,12.205043505859376C3.56901390625,11.195543505859375,4.16657390625,9.460593505859375,4.16657390625,6.666673505859375C4.16657390625,5.119573505859375,4.78115390625,3.635853505859375,5.87511390625,2.541883505859375C5.87511390625,2.541883505859375,5.87511390625,2.541883505859375,5.87511390625,2.541883505859375ZM2.03639990625,13.474143505859375C2.03646590625,13.474043505859376,2.03653090625,13.474043505859376,2.03659690625,13.474043505859376C2.03659290625,13.474043505859376,2.03658990625,13.474043505859376,2.03658590625,13.474043505859376C2.03658590625,13.474043505859376,2.03639990625,13.474143505859375,2.03639990625,13.474143505859375C2.03639990625,13.474143505859375,2.03639990625,13.474143505859375,2.03639990625,13.474143505859375ZM4.291003906249999,13.333343505859375C4.291003906249999,13.333343505859375,15.70880390625,13.333343505859375,15.70880390625,13.333343505859375C15.64540390625,13.229443505859376,15.58170390625,13.119543505859374,15.51830390625,13.003243505859375C14.81900390625,11.721143505859375,14.16660390625,9.706093505859375,14.16660390625,6.666673505859375C14.16660390625,5.561613505859375,13.72760390625,4.501803505859375,12.94620390625,3.720403505859375C12.16470390625,2.938993505859375,11.10500390625,2.500013505859375,9.99992390625,2.500013505859375C8.89483390625,2.500013505859375,7.83502390625,2.938993505859375,7.05362390625,3.720403505859375C6.27222390625,4.501803505859375,5.83323390625,5.561613505859375,5.83323390625,6.666673505859375C5.83323390625,9.706093505859375,5.18079390625,11.721143505859375,4.481473906250001,13.003243505859375C4.41807390625,13.119543505859374,4.3544139062500005,13.229443505859376,4.291003906249999,13.333343505859375C4.291003906249999,13.333343505859375,4.291003906249999,13.333343505859375,4.291003906249999,13.333343505859375ZM8.14009390625,16.779143505859373C8.538193906250001,16.548243505859375,9.048133906250001,16.683743505859375,9.27907390625,17.081843505859375C9.35232390625,17.208143505859375,9.45747390625,17.313043505859376,9.58397390625,17.385843505859373C9.71047390625,17.458643505859374,9.85391390625,17.497043505859374,9.99992390625,17.497043505859374C10.14592390625,17.497043505859374,10.28933390625,17.458643505859374,10.41583390625,17.385843505859373C10.54233390625,17.313043505859376,10.64750390625,17.208143505859375,10.72075390625,17.081843505859375C10.95167390625,16.683743505859375,11.46158390625,16.548243505859375,11.85970390625,16.779143505859373C12.25780390625,17.010143505859375,12.39330390625,17.520043505859373,12.16240390625,17.918143505859376C11.94270390625,18.297043505859374,11.62717390625,18.611443505859373,11.24767390625,18.830043505859376C10.86817390625,19.048643505859374,10.43783390625,19.163743505859376,9.99992390625,19.163743505859376C9.56192390625,19.163743505859376,9.13163390625,19.048643505859374,8.752123906249999,18.830043505859376C8.37259390625,18.611443505859373,8.05716390625,18.297043505859374,7.83740390625,17.918143505859376C7.60647390625,17.520043505859373,7.74198390625,17.010143505859375,8.14009390625,16.779143505859373C8.14009390625,16.779143505859373,8.14009390625,16.779143505859373,8.14009390625,16.779143505859373Z" fill-rule="evenodd" fill="#FFFFFF" fill-opacity="1"/></g></g></g></svg>