<svg xmlns="http://www.w3.org/2000/svg" xmlns:xlink="http://www.w3.org/1999/xlink" fill="none" version="1.1" width="20" height="20" viewBox="0 0 20 20"><clipPath id="master_svg0_17_347"><rect x="0" y="0" width="20" height="20" rx="0"/></clipPath><g clip-path="url(#master_svg0_17_347)" style="mix-blend-mode:passthrough"><g><g style="mix-blend-mode:passthrough"><path d="M9.166656494140625,3.33335701171875C5.944996494140625,3.33335701171875,3.333326494140625,5.94502701171875,3.333326494140625,9.16668701171875C3.333326494140625,12.38838701171875,5.944996494140625,14.99998701171875,9.166656494140625,14.99998701171875C10.738236494140626,14.99998701171875,12.164756494140626,14.37848701171875,13.213656494140626,13.36788701171875C13.235556494140624,13.33938701171875,13.259556494140625,13.31188701171875,13.285756494140625,13.28578701171875C13.311856494140626,13.25958701171875,13.339356494140626,13.23558701171875,13.367856494140625,13.21368701171875C14.378456494140625,12.16478701171875,14.999956494140624,10.73826701171875,14.999956494140624,9.16668701171875C14.999956494140624,5.94502701171875,12.388356494140625,3.33335701171875,9.166656494140625,3.33335701171875C9.166656494140625,3.33335701171875,9.166656494140625,3.33335701171875,9.166656494140625,3.33335701171875ZM15.026556494140625,13.84808701171875C16.052856494140627,12.56498701171875,16.666656494140625,10.93751701171875,16.666656494140625,9.16668701171875C16.666656494140625,5.02455701171875,13.308856494140626,1.66668701171875,9.166656494140625,1.66668701171875C5.024526494140625,1.66668701171875,1.666656494140625,5.02455701171875,1.666656494140625,9.16668701171875C1.666656494140625,13.30888701171875,5.024526494140625,16.66668701171875,9.166656494140625,16.66668701171875C10.937486494140625,16.66668701171875,12.564956494140626,16.052887011718752,13.848056494140625,15.02658701171875C13.848056494140625,15.02658701171875,16.910756494140625,18.08928701171875,16.910756494140625,18.08928701171875C17.236156494140623,18.41468701171875,17.763856494140626,18.41468701171875,18.089256494140624,18.08928701171875C18.414656494140626,17.76388701171875,18.414656494140626,17.236187011718748,18.089256494140624,16.91078701171875C18.089256494140624,16.91078701171875,15.026556494140625,13.84808701171875,15.026556494140625,13.84808701171875C15.026556494140625,13.84808701171875,15.026556494140625,13.84808701171875,15.026556494140625,13.84808701171875Z" fill-rule="evenodd" fill="#FFFFFF" fill-opacity="1"/></g></g></g></svg>