<svg xmlns="http://www.w3.org/2000/svg" xmlns:xlink="http://www.w3.org/1999/xlink" fill="none" version="1.1" width="25" height="25" viewBox="0 0 25 25"><clipPath id="master_svg0_6_14034"><rect x="0" y="0" width="25" height="25" rx="0"/></clipPath><g clip-path="url(#master_svg0_6_14034)" style="mix-blend-mode:passthrough"><g><g style="mix-blend-mode:passthrough"><path d="M11.71875,1.5625C11.71875,1.5625,11.71875,12.5,11.71875,12.5C11.71875,12.5,13.28125,12.5,13.28125,12.5C13.28125,12.5,13.28125,1.5625,13.28125,1.5625C13.28125,1.5625,11.71875,1.5625,11.71875,1.5625C11.71875,1.5625,11.71875,1.5625,11.71875,1.5625Z" fill="#FFFFFF" fill-opacity="1"/></g><g style="mix-blend-mode:passthrough"><path d="M4.68751068359375,13.768729189453126C4.68714068359375,12.373369189453125,5.06055068359375,11.003379189453124,5.768940683593749,9.801199189453126C6.47734068359375,8.599019189453125,7.49483068359375,7.608569189453124,8.715640683593751,6.932789189453125C8.715640683593751,6.932789189453125,7.95783068359375,5.567169189453125,7.95783068359375,5.567169189453125C6.14615068359375,6.570399189453125,4.71763068359375,8.145249189453125,3.89528868359375,10.045889189453124C3.07294438359375,11.946509189453124,2.9030556835937498,14.065949189453125,3.41214568359375,16.073269189453125C3.92123668359375,18.080569189453126,5.08065068359375,19.862969189453125,6.70939068359375,21.141969189453125C8.33813068359375,22.420869189453125,10.34452068359375,23.124669189453126,12.41535068359375,23.143269189453125C14.48615068359375,23.161869189453125,16.50485068359375,22.494269189453124,18.15635068359375,21.244669189453127C19.80765068359375,19.995069189453126,20.99895068359375,18.233869189453124,21.54395068359375,16.236069189453126C22.08895068359375,14.238089189453126,21.95715068359375,12.115949189453126,21.16905068359375,10.200879189453126C20.38095068359375,8.285799189453126,18.98095068359375,6.685559189453125,17.187450683593752,5.649981689453125C17.187450683593752,5.649981689453125,16.40465068359375,7.0015391894531245,16.40465068359375,7.0015391894531245C17.59255068359375,7.686989189453125,18.57905068359375,8.673049189453124,19.26495068359375,9.860609189453125C19.95105068359375,11.048159189453125,20.31225068359375,12.395369189453124,20.31245068359375,13.766809189453125C20.31275068359375,15.138239189453126,19.95205068359375,16.485569189453123,19.26655068359375,17.673369189453126C18.58105068359375,18.861269189453125,17.594850683593748,19.847569189453125,16.40725068359375,20.533569189453125C15.21965068359375,21.219469189453125,13.87235068359375,21.580569189453126,12.50098068359375,21.580769189453125C11.12954068359375,21.580969189453125,9.78222068359375,21.220069189453127,8.594450683593749,20.534469189453127C7.40669068359375,19.848969189453125,6.420310683593749,18.862669189453126,5.73450068359375,17.675069189453126C5.04869068359375,16.487369189453126,4.68760068359375,15.140169189453125,4.68751068359375,13.768729189453126C4.68751068359375,13.768729189453126,4.68751068359375,13.768729189453126,4.68751068359375,13.768729189453126C4.68751068359375,13.768729189453126,4.68751068359375,13.768729189453126,4.68751068359375,13.768729189453126Z" fill="#FFFFFF" fill-opacity="1"/></g></g></g></svg>