<svg xmlns="http://www.w3.org/2000/svg" xmlns:xlink="http://www.w3.org/1999/xlink" fill="none" version="1.1" width="20" height="20" viewBox="0 0 20 20"><clipPath id="master_svg0_6_14039"><rect x="0" y="0" width="20" height="20" rx="0"/></clipPath><g clip-path="url(#master_svg0_6_14039)" style="mix-blend-mode:passthrough"><g><g style="mix-blend-mode:passthrough"><path d="M14.9999259765625,2.5C15.4602259765625,2.5,15.8333259765625,2.873096,15.8333259765625,3.333333C15.8333259765625,3.333333,15.8333259765625,16.6667,15.8333259765625,16.6667C15.8333259765625,17.1269,15.4602259765625,17.5,14.9999259765625,17.5C14.5397259765625,17.5,14.1666259765625,17.1269,14.1666259765625,16.6667C14.1666259765625,16.6667,14.1666259765625,3.333333,14.1666259765625,3.333333C14.1666259765625,2.873096,14.5397259765625,2.5,14.9999259765625,2.5C14.9999259765625,2.5,14.9999259765625,2.5,14.9999259765625,2.5ZM9.9999559765625,7.5C10.460195976562499,7.5,10.8332959765625,7.8731,10.8332959765625,8.33333C10.8332959765625,8.33333,10.8332959765625,16.6667,10.8332959765625,16.6667C10.8332959765625,17.1269,10.460195976562499,17.5,9.9999559765625,17.5C9.5397259765625,17.5,9.1666259765625,17.1269,9.1666259765625,16.6667C9.1666259765625,16.6667,9.1666259765625,8.33333,9.1666259765625,8.33333C9.1666259765625,7.8731,9.5397259765625,7.5,9.9999559765625,7.5C9.9999559765625,7.5,9.9999559765625,7.5,9.9999559765625,7.5ZM4.9999589765625,12.5C5.4601959765625,12.5,5.8332959765625,12.8731,5.8332959765625,13.3333C5.8332959765625,13.3333,5.8332959765625,16.6667,5.8332959765625,16.6667C5.8332959765625,17.1269,5.4601959765625,17.5,4.9999589765625,17.5C4.5397219765625,17.5,4.1666259765625,17.1269,4.1666259765625,16.6667C4.1666259765625,16.6667,4.1666259765625,13.3333,4.1666259765625,13.3333C4.1666259765625,12.8731,4.5397219765625,12.5,4.9999589765625,12.5C4.9999589765625,12.5,4.9999589765625,12.5,4.9999589765625,12.5Z" fill-rule="evenodd" fill="#FFFFFF" fill-opacity="1"/></g></g></g></svg>