<svg xmlns="http://www.w3.org/2000/svg" xmlns:xlink="http://www.w3.org/1999/xlink" fill="none" version="1.1" width="32" height="32" viewBox="0 0 32 32"><clipPath id="master_svg0_37_236"><rect x="0" y="0" width="32" height="32" rx="0"/></clipPath><g clip-path="url(#master_svg0_37_236)" style="mix-blend-mode:passthrough"><g><g style="mix-blend-mode:passthrough"><path d="M16,2C12.287,2,8.72601,3.475,6.10051,6.10051C3.475,8.72601,2,12.287,2,16C2,19.7131,3.475,23.274,6.10051,25.8995C8.72601,28.5251,12.287,30,16,30C19.7131,30,23.274,28.5251,25.8995,25.8995C28.5251,23.274,30,19.7131,30,16C30,12.287,28.5251,8.72601,25.8995,6.10051C23.274,3.475,19.7131,2,16,2C16,2,16,2,16,2C16,2,16,2,16,2ZM16,0C20.2435,2.22044e-15,24.3131,1.68571,27.3137,4.68629C30.3143,7.68688,32,11.7565,32,16C32,20.2435,30.3143,24.3131,27.3137,27.3137C24.3131,30.3143,20.2435,32,16,32C11.7565,32,7.68688,30.3143,4.68629,27.3137C1.68571,24.3131,2.33147e-15,20.2435,0,16C7.77156e-16,11.7565,1.68571,7.68688,4.68629,4.68629C7.68688,1.68571,11.7565,4.88499e-15,16,8.88179e-16C16,8.88179e-16,16,0,16,0C16,0,16,0,16,0Z" fill="#FFFFFF" fill-opacity="1"/></g><g style="mix-blend-mode:passthrough"><path d="M8.56997932421875,12.866C8.79965832421875,12.9986,9.07260732421875,13.03453,9.32877732421875,12.96589C9.58495732421875,12.897269999999999,9.80336732421875,12.72968,9.93597732421875,12.5C10.55020732421875,11.43532,11.43408732421875,10.55127,12.49863732421875,9.93683C13.56319732421875,9.3224,14.77083732421875,8.99928,15.99997732421875,9C18.59000732421875,9,20.85200732421875,10.406,22.06400732421875,12.5C22.197507324218748,12.72781,22.41570732421875,12.893550000000001,22.671107324218752,12.96104C22.92640732421875,13.02853,23.19800732421875,12.99231,23.42670732421875,12.86028C23.65530732421875,12.72824,23.822507324218748,12.51111,23.89170732421875,12.25627C23.960907324218752,12.00143,23.92650732421875,11.72956,23.79600732421875,11.5C23.00630732421875,10.13129,21.86990732421875,8.99476,20.50130732421875,8.20479C19.13270732421875,7.414821,17.58019732421875,6.999284144,15.99997732421875,7.00000092574C14.41984732421875,6.999689944,12.86748732421875,7.415399,11.49897732421875,8.20533C10.13045732421875,8.99525,8.99404532421875,10.13157,8.20397932421875,11.5C8.07137773421875,11.72968,8.03544282421875,12.00263,8.10408072421875,12.2588C8.17271832421875,12.51497,8.34030632421875,12.73339,8.56997932421875,12.866C8.56997932421875,12.866,8.56997932421875,12.866,8.56997932421875,12.866ZM13.99997732421875,19C13.99997732421875,17.344,13.10397732421875,16,11.99997732421875,16C10.89597732421875,16,9.99997732421875,17.344,9.99997732421875,19C9.99997732421875,20.656,10.89597732421875,22,11.99997732421875,22C13.10397732421875,22,13.99997732421875,20.656,13.99997732421875,19C13.99997732421875,19,13.99997732421875,19,13.99997732421875,19ZM22.00000732421875,19C22.00000732421875,17.344,21.10400732421875,16,20.00000732421875,16C18.89600732421875,16,17.99997732421875,17.344,17.99997732421875,19C17.99997732421875,20.656,18.89600732421875,22,20.00000732421875,22C21.10400732421875,22,22.00000732421875,20.656,22.00000732421875,19C22.00000732421875,19,22.00000732421875,19,22.00000732421875,19Z" fill="#FFFFFF" fill-opacity="1"/></g></g></g></svg>