<svg xmlns="http://www.w3.org/2000/svg" xmlns:xlink="http://www.w3.org/1999/xlink" fill="none" version="1.1" width="35" height="35" viewBox="0 0 35 35"><clipPath id="master_svg0_6_7845"><rect x="0" y="0" width="35" height="35" rx="0"/></clipPath><g clip-path="url(#master_svg0_6_7845)" style="mix-blend-mode:passthrough"><g><g style="mix-blend-mode:passthrough"><path d="M17.50001298828125,1.458343505859375C8.64041298828125,1.458343505859375,1.45831298828125,8.640443505859375,1.45831298828125,17.500043505859374C1.45831298828125,26.359543505859374,8.64041298828125,33.541643505859376,17.50001298828125,33.541643505859376C26.35951298828125,33.541643505859376,33.54161298828125,26.359543505859374,33.54161298828125,17.500043505859374C33.54161298828125,8.640443505859375,26.35951298828125,1.458343505859375,17.50001298828125,1.458343505859375ZM4.37498298828125,17.500043505859374C4.37498298828125,10.251273505859375,10.25124298828125,4.375013505859375,17.50001298828125,4.375013505859375C24.74881298828125,4.375013505859375,30.62501298828125,10.251273505859375,30.62501298828125,17.500043505859374C30.62501298828125,24.748843505859377,24.74881298828125,30.625043505859374,17.50001298828125,30.625043505859374C10.25124298828125,30.625043505859374,4.37498298828125,24.748843505859377,4.37498298828125,17.500043505859374ZM13.12501298828125,11.666643505859374C12.31961298828125,11.666643505859374,11.66661298828125,12.319643505859375,11.66661298828125,13.125043505859376C11.66661298828125,13.930443505859374,12.31961298828125,14.583343505859375,13.12501298828125,14.583343505859375L13.13961298828125,14.583343505859375C13.94501298828125,14.583343505859375,14.59791298828125,13.930443505859374,14.59791298828125,13.125043505859376C14.59791298828125,12.319643505859375,13.94501298828125,11.666643505859374,13.13961298828125,11.666643505859374L13.12501298828125,11.666643505859374ZM21.87501298828125,11.666643505859374C21.06951298828125,11.666643505859374,20.41661298828125,12.319643505859375,20.41661298828125,13.125043505859376C20.41661298828125,13.930443505859374,21.06951298828125,14.583343505859375,21.87501298828125,14.583343505859375L21.88961298828125,14.583343505859375C22.69501298828125,14.583343505859375,23.34791298828125,13.930443505859374,23.34791298828125,13.125043505859376C23.34791298828125,12.319643505859375,22.69501298828125,11.666643505859374,21.88961298828125,11.666643505859374L21.87501298828125,11.666643505859374ZM10.79164298828125,19.250043505859374C11.43395298828125,18.768343505859374,12.34431298828125,18.896543505859373,12.82871298828125,19.535543505859376L12.83551298828125,19.544343505859374C12.84421298828125,19.555243505859377,12.86071298828125,19.575843505859375,12.88481298828125,19.604543505859375C12.93311298828125,19.662143505859376,13.01151298828125,19.751943505859376,13.11831298828125,19.863343505859376C13.33311298828125,20.087543505859376,13.65591298828125,20.391643505859374,14.07391298828125,20.695643505859376C14.91541298828125,21.307543505859375,16.07881298828125,21.875043505859374,17.50001298828125,21.875043505859374C18.92111298828125,21.875043505859374,20.08461298828125,21.307543505859375,20.92601298828125,20.695643505859376C21.34401298828125,20.391643505859374,21.66691298828125,20.087543505859376,21.88171298828125,19.863343505859376C21.98841298828125,19.751943505859376,22.06671298828125,19.662143505859376,22.11521298828125,19.604543505859375C22.13921298828125,19.575843505859375,22.15571298828125,19.555243505859377,22.16441298828125,19.544343505859374L22.17121298828125,19.535543505859376C22.65561298828125,18.896543505859373,23.56611298828125,18.768343505859374,24.20831298828125,19.250043505859374C24.85261298828125,19.733343505859374,24.98331298828125,20.647343505859375,24.50001298828125,21.291643505859376L24.45131298828125,21.354643505859375C24.42601298828125,21.386343505859376,24.39211298828125,21.428443505859374,24.34921298828125,21.479543505859375C24.26371298828125,21.581443505859376,24.14271298828125,21.719443505859374,23.98751298828125,21.881443505859377C23.67821298828125,22.204143505859374,23.22631298828125,22.629243505859375,22.64161298828125,23.054343505859375C21.47791298828125,23.900743505859374,19.72471298828125,24.791643505859376,17.50001298828125,24.791643505859376C15.27521298828125,24.791643505859376,13.52201298828125,23.900743505859374,12.35841298828125,23.054343505859375C11.77371298828125,22.629243505859375,11.32179298828125,22.204143505859374,11.01251298828125,21.881443505859377C10.85727298828125,21.719443505859374,10.73624298828125,21.581443505859376,10.65071298828125,21.479543505859375C10.60791298828125,21.428443505859374,10.57384298828125,21.386343505859376,10.54870298828125,21.354643505859375L10.49998298828125,21.291643505859376C10.01673298828125,20.647343505859375,10.14731298828125,19.733343505859374,10.79164298828125,19.250043505859374Z" fill-rule="evenodd" fill="#FFFFFF" fill-opacity="0.800000011920929"/></g></g></g></svg>