<svg xmlns="http://www.w3.org/2000/svg" xmlns:xlink="http://www.w3.org/1999/xlink" fill="none" version="1.1" width="32" height="33.60000228881836" viewBox="0 0 32 33.60000228881836"><path d="M16,0C24.8368,0,32,7.1632,32,16L32,22.0224C32,23.2347,31.3148,24.3429,30.2304,24.8848L25.6,27.2L25.6,28.8C25.6001,31.3417,23.6189,33.4429,21.0816,33.592L20.72,33.6C20.7552,33.4258,20.7787,33.2494,20.7904,33.072L20.8,32.8L20.8,32C20.8005,30.3254,19.5099,28.9336,17.84,28.808L17.6,28.8L14.4,28.8C12.7254,28.7995,11.3336,30.0901,11.208,31.76L11.2,32L11.2,32.8C11.2,33.0736,11.2272,33.3424,11.28,33.6L11.2,33.6C8.54903,33.6,6.4,31.451,6.4,28.8L6.4,27.2L1.7696,24.8848C0.684636,24.3426,-0.000564194,23.2337,3.8147e-7,22.0208L3.8147e-7,16C3.8147e-7,7.1632,7.1632,0,16,0ZM16,3.2C9.08655,3.20008,3.42245,8.68992,3.2064,15.6L3.2,16L3.2,22.0224L9.6,25.2224L9.6,27.768L9.72,27.6336C10.8533,26.4171,12.4163,25.6904,14.0768,25.608L14.4,25.6L17.7168,25.6016L18.0736,25.6176C19.672,25.736,21.0976,26.4336,22.1536,27.5008L22.4,27.768L22.4,25.2224L28.8,22.0224L28.8,16C28.8,8.93076,23.0692,3.2,16,3.2ZM9.6,14.4C11.3673,14.4,12.8,15.8327,12.8,17.6C12.8,19.3673,11.3673,20.8,9.6,20.8C7.83269,20.8,6.4,19.3673,6.4,17.6C6.4,15.8327,7.83269,14.4,9.6,14.4ZM22.4,14.4C24.1673,14.4,25.6,15.8327,25.6,17.6C25.6,19.3673,24.1673,20.8,22.4,20.8C20.6327,20.8,19.2,19.3673,19.2,17.6C19.2,15.8327,20.6327,14.4,22.4,14.4Z" fill="#D8D8D8" fill-opacity="1"/></svg>