<svg xmlns="http://www.w3.org/2000/svg" xmlns:xlink="http://www.w3.org/1999/xlink" fill="none" version="1.1" width="35" height="35" viewBox="0 0 35 35"><clipPath id="master_svg0_37_183"><rect x="0" y="0" width="35" height="35" rx="0"/></clipPath><g clip-path="url(#master_svg0_37_183)" style="mix-blend-mode:passthrough"><g><g style="mix-blend-mode:passthrough"><path d="M17.500043505859374,33.54161298828125C26.359543505859374,33.54161298828125,33.541643505859376,26.35951298828125,33.541643505859376,17.50001298828125C33.541643505859376,8.64041298828125,26.359543505859374,1.45831298828125,17.500043505859374,1.45831298828125C8.640443505859375,1.45831298828125,1.458343505859375,8.64041298828125,1.458343505859375,17.50001298828125C1.458343505859375,26.35951298828125,8.640443505859375,33.54161298828125,17.500043505859374,33.54161298828125ZM17.500043505859374,30.62501298828125C24.748843505859377,30.62501298828125,30.625043505859374,24.74881298828125,30.625043505859374,17.50001298828125C30.625043505859374,10.25124298828125,24.748843505859377,4.37498298828125,17.500043505859374,4.37498298828125C10.251273505859375,4.37498298828125,4.375013505859375,10.25124298828125,4.375013505859375,17.50001298828125C4.375013505859375,24.74881298828125,10.251273505859375,30.62501298828125,17.500043505859374,30.62501298828125ZM14.583343505859375,13.12501298828125C14.583343505859375,13.93041298828125,13.930443505859374,14.58331298828125,13.125043505859376,14.58331298828125C12.319643505859375,14.58331298828125,11.666643505859374,13.93041298828125,11.666643505859374,13.12501298828125C11.666643505859374,12.31961298828125,12.319643505859375,11.66661298828125,13.125043505859376,11.66661298828125C13.930443505859374,11.66661298828125,14.583343505859375,12.31961298828125,14.583343505859375,13.12501298828125ZM23.333343505859375,13.12501298828125C23.333343505859375,13.93041298828125,22.680443505859376,14.58331298828125,21.875043505859374,14.58331298828125C21.069543505859375,14.58331298828125,20.416643505859376,13.93041298828125,20.416643505859376,13.12501298828125C20.416643505859376,12.31961298828125,21.069543505859375,11.66661298828125,21.875043505859374,11.66661298828125C22.680443505859376,11.66661298828125,23.333343505859375,12.31961298828125,23.333343505859375,13.12501298828125ZM24.208343505859375,24.50001298828125C23.566143505859376,24.98171298828125,22.655043505859375,24.85261298828125,22.170643505859374,24.21361298828125L22.164443505859374,24.20571298828125C22.155743505859373,24.19471298828125,22.139243505859376,24.17421298828125,22.115243505859375,24.14541298828125C22.066743505859375,24.08781298828125,21.988443505859376,23.99801298828125,21.881743505859376,23.88661298828125C21.666943505859376,23.66241298828125,21.344043505859375,23.35841298828125,20.926043505859376,23.05431298828125C20.084643505859376,22.44241298828125,18.921143505859376,21.87501298828125,17.500043505859374,21.87501298828125C16.078843505859375,21.87501298828125,14.915443505859376,22.44241298828125,14.073943505859376,23.05431298828125C13.655943505859375,23.35841298828125,13.333143505859375,23.66241298828125,13.118343505859375,23.88661298828125C13.011543505859375,23.99801298828125,12.933143505859375,24.08781298828125,12.884843505859376,24.14541298828125C12.860743505859375,24.17421298828125,12.844243505859374,24.19471298828125,12.835543505859375,24.20571298828125L12.828743505859375,24.21441298828125C12.344343505859374,24.85351298828125,11.433983505859375,24.98171298828125,10.791673505859375,24.50001298828125C10.147343505859375,24.01671298828125,10.016763505859375,23.10261298828125,10.500013505859375,22.45831298828125L10.650743505859374,22.27051298828125C10.736273505859375,22.16851298828125,10.857303505859376,22.03061298828125,11.012543505859375,21.86861298828125C11.321823505859374,21.54581298828125,11.773743505859375,21.12071298828125,12.358443505859375,20.69561298828125C13.522043505859376,19.84921298828125,15.275243505859375,18.95831298828125,17.500043505859374,18.95831298828125C19.724743505859376,18.95831298828125,21.477943505859376,19.84921298828125,22.641643505859374,20.69561298828125C23.226343505859376,21.12071298828125,23.678243505859374,21.54581298828125,23.987543505859374,21.86861298828125C24.142743505859375,22.03061298828125,24.263743505859374,22.16851298828125,24.349243505859373,22.27051298828125L24.500043505859374,22.45831298828125C24.983343505859374,23.10261298828125,24.852643505859376,24.01671298828125,24.208343505859375,24.50001298828125Z" fill-rule="evenodd" fill="#FFFFFF" fill-opacity="1"/></g></g></g></svg>