<svg xmlns="http://www.w3.org/2000/svg" xmlns:xlink="http://www.w3.org/1999/xlink" fill="none" version="1.1" width="35" height="35" viewBox="0 0 35 35"><clipPath id="master_svg0_37_180"><rect x="0" y="0" width="35" height="35" rx="0"/></clipPath><g clip-path="url(#master_svg0_37_180)" style="mix-blend-mode:passthrough"><g><g style="mix-blend-mode:passthrough"><path d="M17.500043505859374,4.37498298828125C10.251273505859375,4.37498298828125,4.375013505859375,10.25124298828125,4.375013505859375,17.50001298828125C4.375013505859375,24.74881298828125,10.251273505859375,30.62501298828125,17.500043505859374,30.62501298828125C24.748843505859377,30.62501298828125,30.625043505859374,24.74881298828125,30.625043505859374,17.50001298828125C30.625043505859374,10.25124298828125,24.748843505859377,4.37498298828125,17.500043505859374,4.37498298828125C17.500043505859374,4.37498298828125,17.500043505859374,4.37498298828125,17.500043505859374,4.37498298828125ZM1.458343505859375,17.50001298828125C1.458343505859375,8.64041298828125,8.640443505859375,1.45831298828125,17.500043505859374,1.45831298828125C26.359543505859374,1.45831298828125,33.541643505859376,8.64041298828125,33.541643505859376,17.50001298828125C33.541643505859376,26.35951298828125,26.359543505859374,33.54161298828125,17.500043505859374,33.54161298828125C8.640443505859375,33.54161298828125,1.458343505859375,26.35951298828125,1.458343505859375,17.50001298828125C1.458343505859375,17.50001298828125,1.458343505859375,17.50001298828125,1.458343505859375,17.50001298828125ZM11.666643505859374,13.12501298828125C11.666643505859374,12.31961298828125,12.319643505859375,11.66661298828125,13.125043505859376,11.66661298828125C13.125043505859376,11.66661298828125,13.139643505859375,11.66661298828125,13.139643505859375,11.66661298828125C13.945043505859376,11.66661298828125,14.597943505859375,12.31961298828125,14.597943505859375,13.12501298828125C14.597943505859375,13.93041298828125,13.945043505859376,14.58331298828125,13.139643505859375,14.58331298828125C13.139643505859375,14.58331298828125,13.125043505859376,14.58331298828125,13.125043505859376,14.58331298828125C12.319643505859375,14.58331298828125,11.666643505859374,13.93041298828125,11.666643505859374,13.12501298828125C11.666643505859374,13.12501298828125,11.666643505859374,13.12501298828125,11.666643505859374,13.12501298828125ZM20.416643505859376,13.12501298828125C20.416643505859376,12.31961298828125,21.069543505859375,11.66661298828125,21.875043505859374,11.66661298828125C21.875043505859374,11.66661298828125,21.889643505859375,11.66661298828125,21.889643505859375,11.66661298828125C22.695043505859374,11.66661298828125,23.347943505859377,12.31961298828125,23.347943505859377,13.12501298828125C23.347943505859377,13.93041298828125,22.695043505859374,14.58331298828125,21.889643505859375,14.58331298828125C21.889643505859375,14.58331298828125,21.875043505859374,14.58331298828125,21.875043505859374,14.58331298828125C21.069543505859375,14.58331298828125,20.416643505859376,13.93041298828125,20.416643505859376,13.12501298828125C20.416643505859376,13.12501298828125,20.416643505859376,13.12501298828125,20.416643505859376,13.12501298828125ZM10.208343505859375,21.87501298828125C10.208343505859375,21.06951298828125,10.861273505859375,20.41661298828125,11.666643505859374,20.41661298828125C11.666643505859374,20.41661298828125,23.333343505859375,20.41661298828125,23.333343505859375,20.41661298828125C24.138743505859374,20.41661298828125,24.791643505859376,21.06951298828125,24.791643505859376,21.87501298828125C24.791643505859376,22.68041298828125,24.138743505859374,23.33331298828125,23.333343505859375,23.33331298828125C23.333343505859375,23.33331298828125,11.666643505859374,23.33331298828125,11.666643505859374,23.33331298828125C10.861273505859375,23.33331298828125,10.208343505859375,22.68041298828125,10.208343505859375,21.87501298828125C10.208343505859375,21.87501298828125,10.208343505859375,21.87501298828125,10.208343505859375,21.87501298828125Z" fill-rule="evenodd" fill="#FFFFFF" fill-opacity="1"/></g></g></g></svg>