<svg xmlns="http://www.w3.org/2000/svg" xmlns:xlink="http://www.w3.org/1999/xlink" fill="none" version="1.1" width="24" height="24" viewBox="0 0 24 24"><clipPath id="master_svg0_25_415"><rect x="0" y="0" width="24" height="24" rx="0"/></clipPath><g clip-path="url(#master_svg0_25_415)" style="mix-blend-mode:passthrough"><g><g style="mix-blend-mode:passthrough"><path d="M11.999970853328705,1C12.380570853328704,1,12.728270853328706,1.216072,12.896670853328704,1.557376C12.896670853328704,1.557376,15.754270853328705,7.34647,15.754270853328705,7.34647C15.754270853328705,7.34647,22.144670853328705,8.28051,22.144670853328705,8.28051C22.521170853328705,8.33555,22.833870853328705,8.59956,22.951270853328705,8.96157C23.068670853328705,9.32358,22.970370853328706,9.72083,22.697770853328706,9.98636C22.697770853328706,9.98636,18.074570853328705,14.4894,18.074570853328705,14.4894C18.074570853328705,14.4894,19.165570853328706,20.851,19.165570853328706,20.851C19.229970853328705,21.2261,19.075670853328706,21.6053,18.767770853328706,21.8291C18.459770853328706,22.0528,18.051470853328706,22.0823,17.714570853328706,21.9051C17.714570853328706,21.9051,11.999970853328705,18.8998,11.999970853328705,18.8998C11.999970853328705,18.8998,6.285450853328705,21.9051,6.285450853328705,21.9051C5.9485308533287045,22.0823,5.540240853328704,22.0528,5.232270853328705,21.8291C4.924290853328705,21.6053,4.770040853328705,21.2261,4.8343908533287046,20.851C4.8343908533287046,20.851,5.925480853328705,14.4894,5.925480853328705,14.4894C5.925480853328705,14.4894,1.302266853328705,9.98636,1.302266853328705,9.98636C1.0296490533287048,9.72083,0.9313762533287049,9.32358,1.048753953328705,8.96157C1.1661318533287048,8.59956,1.478811853328705,8.33555,1.855371853328705,8.28051C1.855371853328705,8.28051,8.245740853328705,7.34647,8.245740853328705,7.34647C8.245740853328705,7.34647,11.103270853328706,1.557376,11.103270853328706,1.557376C11.271770853328706,1.216072,11.619370853328705,1,11.999970853328705,1C11.999970853328705,1,11.999970853328705,1,11.999970853328705,1Z" fill="#FFC7C7" fill-opacity="1"/></g></g></g></svg>