<svg xmlns="http://www.w3.org/2000/svg" xmlns:xlink="http://www.w3.org/1999/xlink" fill="none" version="1.1" width="24" height="24" viewBox="0 0 24 24"><clipPath id="master_svg0_17_295"><rect x="0" y="0" width="24" height="24" rx="0"/></clipPath><g clip-path="url(#master_svg0_17_295)" style="mix-blend-mode:passthrough"><g><g style="mix-blend-mode:passthrough"><path d="M12,1C12.3806,1,12.7283,1.216072,12.8967,1.557376C12.8967,1.557376,15.7543,7.34647,15.7543,7.34647C15.7543,7.34647,22.1447,8.28051,22.1447,8.28051C22.5212,8.33555,22.8339,8.59956,22.9513,8.96157C23.0687,9.32358,22.9704,9.72083,22.6978,9.98636C22.6978,9.98636,18.0746,14.4894,18.0746,14.4894C18.0746,14.4894,19.1656,20.851,19.1656,20.851C19.23,21.2261,19.0757,21.6053,18.7678,21.8291C18.4598,22.0528,18.0515,22.0823,17.7146,21.9051C17.7146,21.9051,12,18.8998,12,18.8998C12,18.8998,6.28548,21.9051,6.28548,21.9051C5.94856,22.0823,5.54027,22.0528,5.2323,21.8291C4.92432,21.6053,4.7700700000000005,21.2261,4.83442,20.851C4.83442,20.851,5.92551,14.4894,5.92551,14.4894C5.92551,14.4894,1.3022960000000001,9.98636,1.3022960000000001,9.98636C1.0296782,9.72083,0.9314054,9.32358,1.0487831,8.96157C1.166161,8.59956,1.478841,8.33555,1.855401,8.28051C1.855401,8.28051,8.24577,7.34647,8.24577,7.34647C8.24577,7.34647,11.1033,1.557376,11.1033,1.557376C11.2718,1.216072,11.6194,1,12,1C12,1,12,1,12,1ZM12,4.25925C12,4.25925,9.80674,8.70262,9.80674,8.70262C9.6612,8.99747,9.38001,9.20193,9.05466,9.24949C9.05466,9.24949,4.14844,9.9666,4.14844,9.9666C4.14844,9.9666,7.69776,13.4236,7.69776,13.4236C7.93364,13.6534,8.0413,13.9845,7.98564,14.309C7.98564,14.309,7.14821,19.1917,7.14821,19.1917C7.14821,19.1917,11.5346,16.884900000000002,11.5346,16.884900000000002C11.826,16.7317,12.1741,16.7317,12.4655,16.884900000000002C12.4655,16.884900000000002,16.8518,19.1917,16.8518,19.1917C16.8518,19.1917,16.014400000000002,14.309,16.014400000000002,14.309C15.9588,13.9845,16.0664,13.6534,16.302300000000002,13.4236C16.302300000000002,13.4236,19.8516,9.9666,19.8516,9.9666C19.8516,9.9666,14.9454,9.24949,14.9454,9.24949C14.62,9.20193,14.3389,8.99747,14.1933,8.70262C14.1933,8.70262,12,4.25925,12,4.25925C12,4.25925,12,4.25925,12,4.25925Z" fill-rule="evenodd" fill="#FFFFFF" fill-opacity="1"/></g></g></g></svg>