<svg xmlns="http://www.w3.org/2000/svg" xmlns:xlink="http://www.w3.org/1999/xlink" fill="none" version="1.1" width="24" height="24" viewBox="0 0 24 24"><clipPath id="master_svg0_43_178"><rect x="0" y="0" width="24" height="24" rx="0"/></clipPath><clipPath id="master_svg1_43_182"><rect x="-89" y="-8" width="24" height="24" rx="0"/></clipPath><g clip-path="url(#master_svg0_43_178)" style="mix-blend-mode:passthrough"><g><g style="mix-blend-mode:passthrough"><path d="M20,17C20,17,20,18,20,18C20.4045,18,20.7691,17.7564,20.9239,17.3827C21.0787,17.009,20.9931,16.5789,20.7071,16.2929C20.7071,16.2929,20,17,20,17C20,17,20,17,20,17ZM4.00003,17C4.00003,17,3.292922,16.2929,3.292922,16.2929C3.00692419,16.5789,2.9213692,17.009,3.0761492,17.3827C3.23093,17.7564,3.595567,18,4.00003,18C4.00003,18,4.00003,17,4.00003,17C4.00003,17,4.00003,17,4.00003,17ZM5.40496,15.5951C5.40496,15.5951,6.11207,16.3022,6.11207,16.3022C6.11207,16.3022,6.11207,16.3022,6.11207,16.3022C6.11207,16.3022,5.40496,15.5951,5.40496,15.5951C5.40496,15.5951,5.40496,15.5951,5.40496,15.5951ZM10.000029999999999,5.341419999999999C10.000029999999999,5.341419999999999,10.33328,6.28426,10.33328,6.28426C10.73287,6.14302,11.00003,5.76523,11.00003,5.341419999999999C11.00003,5.341419999999999,10.000029999999999,5.341419999999999,10.000029999999999,5.341419999999999C10.000029999999999,5.341419999999999,10.000029999999999,5.341419999999999,10.000029999999999,5.341419999999999ZM14,5.341419999999999C14,5.341419999999999,13,5.341419999999999,13,5.341419999999999C13,5.76523,13.2672,6.14302,13.6668,6.28426C13.6668,6.28426,14,5.341419999999999,14,5.341419999999999C14,5.341419999999999,14,5.341419999999999,14,5.341419999999999ZM4.70714,17.7071C4.70714,17.7071,6.11207,16.3022,6.11207,16.3022C6.11207,16.3022,4.69786,14.888,4.69786,14.888C4.69786,14.888,3.292922,16.2929,3.292922,16.2929C3.292922,16.2929,4.70714,17.7071,4.70714,17.7071C4.70714,17.7071,4.70714,17.7071,4.70714,17.7071ZM7.00003,14.1585C7.00003,14.1585,7.00003,11,7.00003,11C7.00003,11,5.000030000000001,11,5.000030000000001,11C5.000030000000001,11,5.000030000000001,14.1585,5.000030000000001,14.1585C5.000030000000001,14.1585,7.00003,14.1585,7.00003,14.1585C7.00003,14.1585,7.00003,14.1585,7.00003,14.1585ZM17,11C17,11,17,14.1585,17,14.1585C17,14.1585,19,14.1585,19,14.1585C19,14.1585,19,11,19,11C19,11,17,11,17,11C17,11,17,11,17,11ZM17.887999999999998,16.3022C17.887999999999998,16.3022,19.2929,17.7071,19.2929,17.7071C19.2929,17.7071,20.7071,16.2929,20.7071,16.2929C20.7071,16.2929,19.3022,14.888,19.3022,14.888C19.3022,14.888,17.887999999999998,16.3022,17.887999999999998,16.3022C17.887999999999998,16.3022,17.887999999999998,16.3022,17.887999999999998,16.3022ZM6.11207,16.3022C6.680619999999999,15.7336,7.00003,14.9625,7.00003,14.1585C7.00003,14.1585,5.000030000000001,14.1585,5.000030000000001,14.1585C5.000030000000001,14.4321,4.89133,14.6945,4.69786,14.888C4.69786,14.888,6.11207,16.3022,6.11207,16.3022C6.11207,16.3022,6.11207,16.3022,6.11207,16.3022ZM17,14.1585C17,14.9625,17.3194,15.7336,17.887999999999998,16.3022C17.887999999999998,16.3022,19.3022,14.888,19.3022,14.888C19.1087,14.6945,19,14.4321,19,14.1585C19,14.1585,17,14.1585,17,14.1585C17,14.1585,17,14.1585,17,14.1585ZM9.66678,4.39858C6.94935,5.35905,5.000030000000001,7.9506,5.000030000000001,11C5.000030000000001,11,7.00003,11,7.00003,11C7.00003,8.82453,8.38994,6.97113,10.33328,6.28426C10.33328,6.28426,9.66678,4.39858,9.66678,4.39858C9.66678,4.39858,9.66678,4.39858,9.66678,4.39858ZM13.6668,6.28426C15.6101,6.97113,17,8.82453,17,11C17,11,19,11,19,11C19,7.9506,17.0507,5.35905,14.3332,4.39858C14.3332,4.39858,13.6668,6.28426,13.6668,6.28426C13.6668,6.28426,13.6668,6.28426,13.6668,6.28426ZM15,5.341419999999999C15,5.341419999999999,15,5,15,5C15,5,13,5,13,5C13,5,13,5.341419999999999,13,5.341419999999999C13,5.341419999999999,15,5.341419999999999,15,5.341419999999999C15,5.341419999999999,15,5.341419999999999,15,5.341419999999999ZM9.000029999999999,5C9.000029999999999,5,9.000029999999999,5.341419999999999,9.000029999999999,5.341419999999999C9.000029999999999,5.341419999999999,11.00003,5.341419999999999,11.00003,5.341419999999999C11.00003,5.341419999999999,11.00003,5,11.00003,5C11.00003,5,9.000029999999999,5,9.000029999999999,5C9.000029999999999,5,9.000029999999999,5,9.000029999999999,5ZM12.00003,2C10.34318,2,9.000029999999999,3.34315,9.000029999999999,5C9.000029999999999,5,11.00003,5,11.00003,5C11.00003,4.44772,11.44775,4,12.00003,4C12.00003,4,12.00003,2,12.00003,2C12.00003,2,12.00003,2,12.00003,2ZM15,5C15,3.34315,13.6569,2,12.00003,2C12.00003,2,12.00003,4,12.00003,4C12.55231,4,13,4.44772,13,5C13,5,15,5,15,5C15,5,15,5,15,5ZM14,18C14,19.1046,13.1046,20,12.00003,20C12.00003,20,12.00003,22,12.00003,22C14.2091,22,16,20.2091,16,18C16,18,14,18,14,18C14,18,14,18,14,18ZM12.00003,20C10.89546,20,10.000029999999999,19.1046,10.000029999999999,18C10.000029999999999,18,8.000029999999999,18,8.000029999999999,18C8.000029999999999,20.2091,9.790890000000001,22,12.00003,22C12.00003,22,12.00003,20,12.00003,20C12.00003,20,12.00003,20,12.00003,20ZM20,16C20,16,15,16,15,16C15,16,15,18,15,18C15,18,20,18,20,18C20,18,20,16,20,16C20,16,20,16,20,16ZM16,18C16,18,16,17,16,17C16,17,14,17,14,17C14,17,14,18,14,18C14,18,16,18,16,18C16,18,16,18,16,18ZM15,16C15,16,9.000029999999999,16,9.000029999999999,16C9.000029999999999,16,9.000029999999999,18,9.000029999999999,18C9.000029999999999,18,15,18,15,18C15,18,15,16,15,16C15,16,15,16,15,16ZM9.000029999999999,16C9.000029999999999,16,4.00003,16,4.00003,16C4.00003,16,4.00003,18,4.00003,18C4.00003,18,9.000029999999999,18,9.000029999999999,18C9.000029999999999,18,9.000029999999999,16,9.000029999999999,16C9.000029999999999,16,9.000029999999999,16,9.000029999999999,16ZM10.000029999999999,18C10.000029999999999,18,10.000029999999999,17,10.000029999999999,17C10.000029999999999,17,8.000029999999999,17,8.000029999999999,17C8.000029999999999,17,8.000029999999999,18,8.000029999999999,18C8.000029999999999,18,10.000029999999999,18,10.000029999999999,18C10.000029999999999,18,10.000029999999999,18,10.000029999999999,18Z" fill="#FFFFFF" fill-opacity="1"/></g><g clip-path="url(#master_svg1_43_182)" style="mix-blend-mode:passthrough"><g><g style="mix-blend-mode:passthrough"><path d="M-81.94974784366607,-4.94975C-80.63698784366608,-6.262502,-78.85651784366607,-7,-76.99997784366607,-7C-75.14347784366608,-7,-73.36297784366607,-6.262502,-72.05027784366608,-4.94975C-70.73747784366608,-3.63699,-69.99997784366607,-1.85651,-69.99997784366607,0C-69.99997784366607,3.3527000000000005,-69.28297784366607,5.4346,-68.62207784366608,6.646100000000001C-68.29027784366608,7.2544,-67.96717784366608,7.653499999999999,-67.74277784366608,7.8904C-67.63027784366608,8.0091,-67.54197784366607,8.0878,-67.48867784366608,8.1322C-67.46207784366608,8.1544,-67.44427784366607,8.168,-67.43657784366607,8.1737C-67.43537784366607,8.1746,-67.43437784366608,8.1753,-67.43367784366608,8.1758C-67.07517784366607,8.4221,-66.91657784366608,8.8725,-67.04287784366608,9.2898C-67.17057784366608,9.711500000000001,-67.55937784366608,10,-67.99997784366607,10C-67.99997784366607,10,-85.99999784366608,10,-85.99999784366608,10C-86.44066684366608,10,-86.82939384366608,9.711500000000001,-86.95709204366608,9.2898C-87.08343464366608,8.8725,-86.92479544366607,8.4221,-86.56631084366607,8.1758C-86.56560884366607,8.1753,-86.56465384366608,8.1746,-86.56345284366607,8.1737C-86.55575284366607,8.168,-86.53789984366608,8.1544,-86.51127784366608,8.1322C-86.45806184366607,8.0878,-86.36967784366608,8.0091,-86.25720284366608,7.8904C-86.03277384366608,7.653499999999999,-85.70968784366607,7.2544,-85.37789784366608,6.646100000000001C-84.71706784366607,5.4346,-83.99999784366608,3.3527000000000005,-83.99999784366608,0C-83.99999784366608,-1.8565199999999997,-83.26249784366608,-3.63699,-81.94974784366607,-4.94975C-81.94974784366607,-4.94975,-81.94974784366607,-4.94975,-81.94974784366607,-4.94975ZM-86.55620284366607,8.169C-86.55612384366607,8.1689,-86.55604484366607,8.1688,-86.55596584366607,8.1688C-86.55597084366607,8.1688,-86.55597484366608,8.1688,-86.55597884366608,8.1688C-86.55597884366608,8.1688,-86.55620284366607,8.169,-86.55620284366607,8.169C-86.55620284366607,8.169,-86.55620284366607,8.169,-86.55620284366607,8.169ZM-83.85067784366608,8C-83.85067784366608,8,-70.14927784366608,8,-70.14927784366608,8C-70.22537784366608,7.875299999999999,-70.30177784366607,7.743399999999999,-70.37787784366608,7.603899999999999C-71.21707784366608,6.0654,-71.99997784366607,3.6472999999999995,-71.99997784366607,0C-71.99997784366607,-1.3260800000000001,-72.52677784366608,-2.59785,-73.46447784366607,-3.53553C-74.40217784366608,-4.4732199999999995,-75.67387784366608,-5,-76.99997784366607,-5C-78.32607784366607,-5,-79.59784784366607,-4.4732199999999995,-80.53553784366608,-3.53553C-81.47321784366608,-2.59785,-81.99999784366608,-1.3260800000000001,-81.99999784366608,0C-81.99999784366608,3.6472999999999995,-82.78292784366607,6.0654,-83.62210784366607,7.603899999999999C-83.69819784366608,7.743399999999999,-83.77458784366608,7.875299999999999,-83.85067784366608,8C-83.85067784366608,8,-83.85067784366608,8,-83.85067784366608,8ZM-79.23176784366608,12.135000000000002C-78.75404784366607,11.8579,-78.14211784366607,12.020499999999998,-77.86499784366607,12.4982C-77.77709784366607,12.649799999999999,-77.65091784366608,12.7756,-77.49910784366608,12.863C-77.34730784366607,12.950399999999998,-77.17518784366608,12.996500000000001,-76.99997784366607,12.996500000000001C-76.82477784366608,12.996500000000001,-76.65267784366608,12.950399999999998,-76.50087784366607,12.863C-76.34907784366608,12.7756,-76.22287784366608,12.649799999999999,-76.13497784366608,12.4982C-75.85787784366607,12.020499999999998,-75.24597784366608,11.8579,-74.76827784366608,12.135000000000002C-74.29047784366608,12.412099999999999,-74.12787784366608,13.024000000000001,-74.40497784366607,13.5018C-74.66867784366607,13.956399999999999,-75.04727784366608,14.3337,-75.50267784366608,14.5961C-75.95807784366608,14.8584,-76.47447784366608,14.996500000000001,-76.99997784366607,14.996500000000001C-77.52556784366608,14.996500000000001,-78.04191784366608,14.8584,-78.49733784366607,14.5961C-78.95276784366608,14.3337,-79.33128784366608,13.956399999999999,-79.59499784366608,13.5018C-79.87211784366608,13.024000000000001,-79.70949784366607,12.412099999999999,-79.23176784366608,12.135000000000002C-79.23176784366608,12.135000000000002,-79.23176784366608,12.135000000000002,-79.23176784366608,12.135000000000002Z" fill-rule="evenodd" fill="#FFFFFF" fill-opacity="1"/></g></g></g></g></g></svg>