<svg xmlns="http://www.w3.org/2000/svg" xmlns:xlink="http://www.w3.org/1999/xlink" fill="none" version="1.1" width="36" height="36" viewBox="0 0 36 36"><clipPath id="master_svg0_43_191"><rect x="0" y="0" width="36" height="36" rx="0"/></clipPath><g clip-path="url(#master_svg0_43_191)" style="mix-blend-mode:passthrough"><g><g style="mix-blend-mode:passthrough"><path d="M5.33202689453125,10.75192C4.64273689453125,10.2924,3.71142789453125,10.47865,3.25189989453125,11.167950000000001C2.79237489453125,11.857240000000001,2.97862979453125,12.78855,3.66792489453125,13.24807C3.66792489453125,13.24807,5.33202689453125,10.75192,5.33202689453125,10.75192C5.33202689453125,10.75192,5.33202689453125,10.75192,5.33202689453125,10.75192ZM16.335916894531252,19.8906C16.335916894531252,19.8906,15.50381689453125,21.1387,15.50381689453125,21.1387C15.50381689453125,21.1387,15.50381689453125,21.1387,15.50381689453125,21.1387C15.50381689453125,21.1387,16.335916894531252,19.8906,16.335916894531252,19.8906C16.335916894531252,19.8906,16.335916894531252,19.8906,16.335916894531252,19.8906ZM19.66411689453125,19.8906C19.66411689453125,19.8906,18.83201689453125,18.6425,18.83201689453125,18.6425C18.83201689453125,18.6425,19.66411689453125,19.8906,19.66411689453125,19.8906C19.66411689453125,19.8906,19.66411689453125,19.8906,19.66411689453125,19.8906ZM32.33201689453125,13.24807C33.02131689453125,12.78855,33.20761689453125,11.857240000000001,32.74811689453125,11.167950000000001C32.28851689453125,10.47865,31.35721689453125,10.2924,30.66791689453125,10.75192C30.66791689453125,10.75192,32.33201689453125,13.24807,32.33201689453125,13.24807C32.33201689453125,13.24807,32.33201689453125,13.24807,32.33201689453125,13.24807ZM7.49997689453125,9C7.49997689453125,9,28.50001689453125,9,28.50001689453125,9C28.50001689453125,9,28.50001689453125,6,28.50001689453125,6C28.50001689453125,6,7.49997689453125,6,7.49997689453125,6C7.49997689453125,6,7.49997689453125,9,7.49997689453125,9C7.49997689453125,9,7.49997689453125,9,7.49997689453125,9ZM30.00001689453125,10.5C30.00001689453125,10.5,30.00001689453125,25.5,30.00001689453125,25.5C30.00001689453125,25.5,33.00001689453125,25.5,33.00001689453125,25.5C33.00001689453125,25.5,33.00001689453125,10.5,33.00001689453125,10.5C33.00001689453125,10.5,30.00001689453125,10.5,30.00001689453125,10.5C30.00001689453125,10.5,30.00001689453125,10.5,30.00001689453125,10.5ZM28.50001689453125,27C28.50001689453125,27,7.49997689453125,27,7.49997689453125,27C7.49997689453125,27,7.49997689453125,30,7.49997689453125,30C7.49997689453125,30,28.50001689453125,30,28.50001689453125,30C28.50001689453125,30,28.50001689453125,27,28.50001689453125,27C28.50001689453125,27,28.50001689453125,27,28.50001689453125,27ZM5.99997689453125,25.5C5.99997689453125,25.5,5.99997689453125,10.5,5.99997689453125,10.5C5.99997689453125,10.5,2.99997479553125,10.5,2.99997479553125,10.5C2.99997479553125,10.5,2.99997479553125,25.5,2.99997479553125,25.5C2.99997479553125,25.5,5.99997689453125,25.5,5.99997689453125,25.5C5.99997689453125,25.5,5.99997689453125,25.5,5.99997689453125,25.5ZM7.49997689453125,27C6.67155689453125,27,5.99997689453125,26.3285,5.99997689453125,25.5C5.99997689453125,25.5,2.99997479553125,25.5,2.99997479553125,25.5C2.99997479553125,27.9854,5.01469689453125,30,7.49997689453125,30C7.49997689453125,30,7.49997689453125,27,7.49997689453125,27C7.49997689453125,27,7.49997689453125,27,7.49997689453125,27ZM30.00001689453125,25.5C30.00001689453125,26.3285,29.32841689453125,27,28.50001689453125,27C28.50001689453125,27,28.50001689453125,30,28.50001689453125,30C30.98531689453125,30,33.00001689453125,27.9854,33.00001689453125,25.5C33.00001689453125,25.5,30.00001689453125,25.5,30.00001689453125,25.5C30.00001689453125,25.5,30.00001689453125,25.5,30.00001689453125,25.5ZM28.50001689453125,9C29.32841689453125,9,30.00001689453125,9.67158,30.00001689453125,10.5C30.00001689453125,10.5,33.00001689453125,10.5,33.00001689453125,10.5C33.00001689453125,8.01472,30.98531689453125,6,28.50001689453125,6C28.50001689453125,6,28.50001689453125,9,28.50001689453125,9C28.50001689453125,9,28.50001689453125,9,28.50001689453125,9ZM7.49997689453125,6C5.01469689453125,6,2.99997479553125,8.01472,2.99997479553125,10.5C2.99997479553125,10.5,5.99997689453125,10.5,5.99997689453125,10.5C5.99997689453125,9.67158,6.67155689453125,9,7.49997689453125,9C7.49997689453125,9,7.49997689453125,6,7.49997689453125,6C7.49997689453125,6,7.49997689453125,6,7.49997689453125,6ZM3.66792489453125,13.24807C3.66792489453125,13.24807,15.50381689453125,21.1387,15.50381689453125,21.1387C15.50381689453125,21.1387,17.167916894531253,18.6425,17.167916894531253,18.6425C17.167916894531253,18.6425,5.33202689453125,10.75192,5.33202689453125,10.75192C5.33202689453125,10.75192,3.66792489453125,13.24807,3.66792489453125,13.24807C3.66792489453125,13.24807,3.66792489453125,13.24807,3.66792489453125,13.24807ZM20.49611689453125,21.1387C20.49611689453125,21.1387,32.33201689453125,13.24807,32.33201689453125,13.24807C32.33201689453125,13.24807,30.66791689453125,10.75192,30.66791689453125,10.75192C30.66791689453125,10.75192,18.83201689453125,18.6425,18.83201689453125,18.6425C18.83201689453125,18.6425,20.49611689453125,21.1387,20.49611689453125,21.1387C20.49611689453125,21.1387,20.49611689453125,21.1387,20.49611689453125,21.1387ZM15.50381689453125,21.1387C17.01541689453125,22.1464,18.98461689453125,22.1464,20.49611689453125,21.1387C20.49611689453125,21.1387,18.83201689453125,18.6425,18.83201689453125,18.6425C18.328216894531252,18.9784,17.67181689453125,18.9784,17.167916894531253,18.6425C17.167916894531253,18.6425,15.50381689453125,21.1387,15.50381689453125,21.1387C15.50381689453125,21.1387,15.50381689453125,21.1387,15.50381689453125,21.1387Z" fill="#FFFFFF" fill-opacity="1"/></g></g></g></svg>