<svg xmlns="http://www.w3.org/2000/svg" xmlns:xlink="http://www.w3.org/1999/xlink" fill="none" version="1.1" width="24" height="24" viewBox="0 0 24 24"><clipPath id="master_svg0_25_6576" transform="matrix(0,-1,1,0,-24,24)"><rect x="0" y="24" width="24" height="24" rx="0"/></clipPath><g clip-path="url(#master_svg0_25_6576)" style="mix-blend-mode:passthrough"><g transform="matrix(0,-1,1,0,-24,24)"><g style="mix-blend-mode:passthrough"><path d="M5,28C4.734780000000001,28,4.48043,28.10536,4.29289,28.29289C4.10536,28.48043,4,28.73478,4,29C4,29,4,43,4,43C4,43.2652,4.10536,43.5196,4.29289,43.7071C4.48043,43.8946,4.734780000000001,44,5,44C5,44,9,44,9,44C9.55228,44,10,44.4477,10,45C10,45.5523,9.55228,46,9,46C9,46,5,46,5,46C4.20435,46,3.44129,45.6839,2.87868,45.121300000000005C2.31607,44.5587,2,43.7957,2,43C2,43,2,29,2,29C2,28.204349999999998,2.31607,27.44129,2.87868,26.87868C3.44129,26.31607,4.20435,26,5,26C5,26,9,26,9,26C9.55228,26,10,26.447715,10,27C10,27.55228,9.55228,28,9,28C9,28,5,28,5,28C5,28,5,28,5,28ZM15.2929,30.29289C15.6834,29.90237,16.3166,29.90237,16.7071,30.29289C16.7071,30.29289,21.7071,35.29289,21.7071,35.29289C22.0976,35.68342,22.0976,36.3166,21.7071,36.7071C21.7071,36.7071,16.7071,41.7071,16.7071,41.7071C16.3166,42.0976,15.6834,42.0976,15.2929,41.7071C14.9024,41.3166,14.9024,40.6834,15.2929,40.2929C15.2929,40.2929,18.5858,37,18.5858,37C18.5858,37,9,37,9,37C8.44772,37,8,36.5523,8,36C8,35.44771,8.44772,35,9,35C9,35,18.5858,35,18.5858,35C18.5858,35,15.2929,31.70711,15.2929,31.70711C14.9024,31.316580000000002,14.9024,30.683419999999998,15.2929,30.29289C15.2929,30.29289,15.2929,30.29289,15.2929,30.29289Z" fill-rule="evenodd" fill="#FFFFFF" fill-opacity="1"/></g></g></g></svg>