<svg xmlns="http://www.w3.org/2000/svg" xmlns:xlink="http://www.w3.org/1999/xlink" fill="none" version="1.1" width="35" height="35" viewBox="0 0 35 35"><clipPath id="master_svg0_6_08540"><rect x="0" y="0" width="35" height="35" rx="0"/></clipPath><g clip-path="url(#master_svg0_6_08540)" style="mix-blend-mode:passthrough"><rect x="0" y="0" width="35" height="35" rx="0" fill="#988C8C" fill-opacity="0"/><g><g style="mix-blend-mode:passthrough"><path d="M17.5,5.83335701171875C15.0838,5.83335701171875,13.125,7.79211701171875,13.125,10.20835701171875C13.125,12.62459701171875,15.0838,14.58338701171875,17.5,14.58338701171875C19.9163,14.58338701171875,21.875,12.62459701171875,21.875,10.20835701171875C21.875,7.79211701171875,19.9163,5.83335701171875,17.5,5.83335701171875C17.5,5.83335701171875,17.5,5.83335701171875,17.5,5.83335701171875ZM10.20833,10.20835701171875C10.20833,6.18128701171875,13.47293,2.91668701171875,17.5,2.91668701171875C21.527,2.91668701171875,24.7917,6.18128701171875,24.7917,10.20835701171875C24.7917,14.23538701171875,21.527,17.49998701171875,17.5,17.49998701171875C13.47293,17.49998701171875,10.20833,14.23538701171875,10.20833,10.20835701171875C10.20833,10.20835701171875,10.20833,10.20835701171875,10.20833,10.20835701171875ZM6.51069,22.55238701171875C7.87814,21.18498701171875,9.732800000000001,20.41668701171875,11.66667,20.41668701171875C11.66667,20.41668701171875,23.3333,20.41668701171875,23.3333,20.41668701171875C25.2672,20.41668701171875,27.1219,21.18498701171875,28.4893,22.55238701171875C29.8568,23.91978701171875,30.625,25.77448701171875,30.625,27.70838701171875C30.625,27.70838701171875,30.625,30.62498701171875,30.625,30.62498701171875C30.625,31.43048701171875,29.9721,32.08338701171875,29.1667,32.08338701171875C28.3612,32.08338701171875,27.7083,31.43048701171875,27.7083,30.62498701171875C27.7083,30.62498701171875,27.7083,27.70838701171875,27.7083,27.70838701171875C27.7083,26.54808701171875,27.2474,25.43528701171875,26.4269,24.61478701171875C25.6064,23.79428701171875,24.4936,23.33338701171875,23.3333,23.33338701171875C23.3333,23.33338701171875,11.66667,23.33338701171875,11.66667,23.33338701171875C10.50634,23.33338701171875,9.393550000000001,23.79428701171875,8.573080000000001,24.61478701171875C7.7526,25.43528701171875,7.29167,26.54798701171875,7.29167,27.70838701171875C7.29167,27.70838701171875,7.29167,30.62498701171875,7.29167,30.62498701171875C7.29167,31.43048701171875,6.63874,32.08338701171875,5.83333,32.08338701171875C5.027918,32.08338701171875,4.375,31.43048701171875,4.375,30.62498701171875C4.375,30.62498701171875,4.375,27.70838701171875,4.375,27.70838701171875C4.375,25.77448701171875,5.1432269999999995,23.91978701171875,6.51069,22.55238701171875C6.51069,22.55238701171875,6.51069,22.55238701171875,6.51069,22.55238701171875Z" fill-rule="evenodd" fill="#FFFFFF" fill-opacity="1"/></g></g></g></svg>