<svg xmlns="http://www.w3.org/2000/svg" xmlns:xlink="http://www.w3.org/1999/xlink" fill="none" version="1.1" width="28.000001907348633" height="28.000001907348633" viewBox="0 0 28.000001907348633 28.000001907348633"><clipPath id="master_svg0_21_125"><rect x="0" y="0" width="28.000001907348633" height="28.000001907348633" rx="0"/></clipPath><g clip-path="url(#master_svg0_21_125)" style="mix-blend-mode:passthrough"><g><g style="mix-blend-mode:passthrough"><path d="M3.5,6.9999559765625C2.85567,6.9999559765625,2.33333,7.5222959765625,2.33333,8.1666259765625C2.33333,8.1666259765625,2.33333,19.8333259765625,2.33333,19.8333259765625C2.33333,20.4776259765625,2.85567,20.9999259765625,3.5,20.9999259765625C3.5,20.9999259765625,16.3333,20.9999259765625,16.3333,20.9999259765625C16.9777,20.9999259765625,17.5,20.4776259765625,17.5,19.8333259765625C17.5,19.8333259765625,17.5,8.1666259765625,17.5,8.1666259765625C17.5,7.5222959765625,16.9777,6.9999559765625,16.3333,6.9999559765625C16.3333,6.9999559765625,3.5,6.9999559765625,3.5,6.9999559765625C3.5,6.9999559765625,3.5,6.9999559765625,3.5,6.9999559765625ZM19.8333,11.732905976562499C19.8333,11.732905976562499,19.8333,8.1666259765625,19.8333,8.1666259765625C19.8333,6.2336359765625,18.2664,4.6666259765625,16.3333,4.6666259765625C16.3333,4.6666259765625,3.5,4.6666259765625,3.5,4.6666259765625C1.56701,4.6666259765625,0,6.2336359765625,0,8.1666259765625C0,8.1666259765625,0,19.8333259765625,0,19.8333259765625C0,21.7663259765625,1.56701,23.3333259765625,3.5,23.3333259765625C3.5,23.3333259765625,16.3333,23.3333259765625,16.3333,23.3333259765625C18.2664,23.3333259765625,19.8333,21.7663259765625,19.8333,19.8333259765625C19.8333,19.8333259765625,19.8333,16.2670259765625,19.8333,16.2670259765625C19.8333,16.2670259765625,26.1553,20.7826259765625,26.1553,20.7826259765625C26.5109,21.0367259765625,26.9786,21.0706259765625,27.3672,20.8707259765625C27.7558,20.6707259765625,28,20.2703259765625,28,19.8333259765625C28,19.8333259765625,28,8.1666259765625,28,8.1666259765625C28,7.7296059765625,27.7558,7.3292359765625,27.3672,7.1292659765625C26.9786,6.9292959765625,26.5109,6.9632559765625,26.1553,7.2172759765625C26.1553,7.2172759765625,19.8333,11.732905976562499,19.8333,11.732905976562499C19.8333,11.732905976562499,19.8333,11.732905976562499,19.8333,11.732905976562499ZM20.6739,13.9999559765625C20.6739,13.9999559765625,25.6667,17.5662259765625,25.6667,17.5662259765625C25.6667,17.5662259765625,25.6667,10.4336859765625,25.6667,10.4336859765625C25.6667,10.4336859765625,20.6739,13.9999559765625,20.6739,13.9999559765625C20.6739,13.9999559765625,20.6739,13.9999559765625,20.6739,13.9999559765625Z" fill-rule="evenodd" fill="#FFFFFF" fill-opacity="1"/></g></g></g></svg>