<svg xmlns="http://www.w3.org/2000/svg" xmlns:xlink="http://www.w3.org/1999/xlink" fill="none" version="1.1" width="20" height="20" viewBox="0 0 20 20"><clipPath id="master_svg0_6_14019"><rect x="0" y="0" width="20" height="20" rx="0"/></clipPath><g clip-path="url(#master_svg0_6_14019)" style="mix-blend-mode:passthrough"><g><g style="mix-blend-mode:passthrough"><path d="M19.23004921875,7.64377C19.29284921875,7.58272,19.34174921875,7.50878,19.37324921875,7.42703C19.40484921875,7.34528,19.41824921875,7.25767,19.41264921875,7.1702200000000005C19.40714921875,7.08279,19.38264921875,6.9976,19.34094921875,6.92052C19.29924921875,6.84345,19.24134921875,6.77632,19.17124921875,6.72377C16.50624921875,4.7862,13.29494921875,3.74491711,10.00002921875,3.7500186563C6.57377921875,3.7500186563,3.40377921875,4.85252,0.82878421875,6.72377C0.75859021875,6.77622,0.70060121875,6.84327,0.65881561875,6.9203C0.61702911875,6.99732,0.59243732875,7.08249,0.58673446875,7.16994C0.58103158875,7.2573799999999995,0.59435321875,7.34502,0.62578151875,7.42682C0.65720981875,7.5086200000000005,0.70599721875,7.58264,0.76878421875,7.64377C0.8780282187499999,7.75137,1.02191321875,7.81671,1.1748222187500001,7.82815C1.3277312187499999,7.8396,1.47974121875,7.79641,1.60377921875,7.70627C4.047709218750001,5.9425,6.98612921875,4.9954,10.00002921875,5.00002C13.13374921875,5.00002,16.03374921875,6.0025200000000005,18.39504921875,7.70502C18.65124921875,7.89002,19.00754921875,7.86752,19.23004921875,7.64377C19.23004921875,7.64377,19.23004921875,7.64377,19.23004921875,7.64377C19.23004921875,7.64377,19.23004921875,7.64377,19.23004921875,7.64377Z" fill="#FFFFFF" fill-opacity="1"/></g><g style="mix-blend-mode:passthrough"><path d="M16.536176171875,10.33877C16.600576171874998,10.27662,16.650276171875,10.20091,16.681776171875,10.11712C16.713276171875002,10.033339999999999,16.725776171874998,9.9436,16.718176171875,9.854420000000001C16.710676171875,9.76524,16.683276171875,9.67886,16.638276171875,9.60155C16.593176171875,9.52425,16.531376171875,9.45797,16.457376171874998,9.40752C14.535376171875,8.159005,12.291826171875,7.49627109,9.999936171875,7.5000157818C7.618686171875,7.5000157818,5.399936171875,8.200016,3.542435171875,9.40752C3.468125171875,9.45767,3.405997171875,9.52383,3.360618871875,9.60115C3.315240371875,9.67847,3.287764251875,9.76497,3.280210131875,9.8543C3.272656001875,9.94362,3.285215841875,10.03352,3.316966471875,10.11735C3.348717171875,10.20119,3.398852171875,10.27685,3.463684171875,10.33877C3.570189171875,10.44272,3.708864171875,10.50738,3.856953171875,10.52214C4.005044171875,10.5369,4.153751171875,10.50089,4.278686171875,10.420020000000001C5.986216171875,9.32634,7.972186171875,8.74664,9.999936171875,8.75002C12.027246171875,8.74688,14.012776171875,9.32657,15.719876171875,10.420020000000001C15.977376171875,10.58502,16.319876171875002,10.555019999999999,16.536176171875,10.33877C16.536176171875,10.33877,16.536176171875,10.33877,16.536176171875,10.33877C16.536176171875,10.33877,16.536176171875,10.33877,16.536176171875,10.33877ZM13.807376171875,13.06752C14.089876171875,12.78502,14.038676171875,12.31127,13.682376171875,12.13002C12.541826171875,11.54957,11.279756171875,11.24798,9.999936171875,11.25002C8.674936171875,11.25002,7.422436171875,11.56752,6.317436171875,12.13002C5.961186171875,12.31127,5.909936171875,12.78502,6.192436171875,13.06752C6.192436171875,13.06752,6.211186171875,13.086269999999999,6.211186171875,13.086269999999999C6.411186171875,13.28627,6.719936171875,13.32377,6.974936171875,13.19877C7.916466171875,12.73732,8.951406171875,12.49826,9.999936171875,12.50002C11.084936171875,12.50002,12.112406171875,12.75127,13.024906171875,13.20002C13.278676171875,13.32502,13.587376171875,13.28752,13.787376171875,13.086269999999999C13.787376171875,13.086269999999999,13.807376171875,13.06752,13.807376171875,13.06752C13.807376171875,13.06752,13.807376171875,13.06752,13.807376171875,13.06752ZM11.324936171875,15.55002C11.569936171875,15.305019999999999,11.572436171875,14.90002,11.274936171875,14.72502C10.889296171875,14.495470000000001,10.448726171875,14.37453,9.999936171875,14.37502C9.551146171875,14.37453,9.110576171875,14.495470000000001,8.724936171875001,14.72502C8.427436171875,14.90002,8.429936171875,15.305019999999999,8.674936171875,15.55002C8.674936171875,15.55002,9.557436171875,16.432499999999997,9.557436171875,16.432499999999997C9.674646171875,16.54967,9.833586171875,16.6155,9.999306171875,16.6155C10.165036171875,16.6155,10.323976171875,16.54967,10.441186171875,16.432499999999997C10.441186171875,16.432499999999997,11.324936171875,15.54877,11.324936171875,15.54877C11.324936171875,15.54877,11.324936171875,15.55002,11.324936171875,15.55002C11.324936171875,15.55002,11.324936171875,15.55002,11.324936171875,15.55002Z" fill="#FFFFFF" fill-opacity="1"/></g></g></g></svg>