<svg xmlns="http://www.w3.org/2000/svg" xmlns:xlink="http://www.w3.org/1999/xlink" fill="none" version="1.1" width="28.000001907348633" height="28.000001907348633" viewBox="0 0 28.000001907348633 28.000001907348633"><clipPath id="master_svg0_19_2929"><rect x="0" y="0" width="28.000001907348633" height="28.000001907348633" rx="0"/></clipPath><g clip-path="url(#master_svg0_19_2929)" style="mix-blend-mode:passthrough"><g><g style="mix-blend-mode:passthrough"><path d="M13.06938701171875,5.85549C12.88088701171875,5.8182,12.68598701171875,5.8281,12.50218701171875,5.88427C12.31838701171875,5.94045,12.15128701171875,6.041180000000001,12.01578701171875,6.177490000000001C11.56148701171875,6.63445,10.82280701171875,6.63664,10.36584701171875,6.18238C9.90888701171875,5.7281200000000005,9.90669701171875,4.9894300000000005,10.36095701171875,4.53247C10.76748701171875,4.123519,11.26878701171875,3.821347,11.82018701171875,3.652817C12.37168701171875,3.4842867,12.95618701171875,3.4546202,13.52188701171875,3.5664537C14.08768701171875,3.6782880000000002,14.61698701171875,3.928156,15.06278701171875,4.293848C15.50868701171875,4.65954,15.85728701171875,5.12973,16.077487011718752,5.662599999999999C16.29788701171875,6.1954899999999995,16.38318701171875,6.77455,16.325787011718752,7.34833C16.26838701171875,7.92211,16.07018701171875,8.472809999999999,15.74858701171875,8.9515C15.42708701171875,9.43018,14.99228701171875,9.82202,14.48278701171875,10.09216C13.97478701171875,10.36154,13.40828701171875,10.50159,12.83338701171875,10.49998L2.33335701171875,10.49998C1.6890210117187499,10.49998,1.16668701171875,9.97765,1.16668701171875,9.33331C1.16668701171875,8.68898,1.6890210117187499,8.166640000000001,2.33335701171875,8.166640000000001L12.83828701171875,8.166640000000001C13.03048701171875,8.167449999999999,13.21988701171875,8.12077,13.38978701171875,8.030719999999999C13.55948701171875,7.94067,13.70448701171875,7.81006,13.81158701171875,7.6505C13.91878701171875,7.4909300000000005,13.98488701171875,7.307370000000001,14.00398701171875,7.11611C14.02308701171875,6.92486,13.99478701171875,6.73183,13.92128701171875,6.554209999999999C13.84788701171875,6.376580000000001,13.73168701171875,6.21985,13.58308701171875,6.09795C13.43438701171875,5.97605,13.25798701171875,5.89276,13.06938701171875,5.85549ZM22.23828701171875,9.40822C22.51358701171875,9.32499,22.80508701171875,9.310880000000001,23.08708701171875,9.36712C23.36908701171875,9.42335,23.63288701171875,9.54823,23.85518701171875,9.73069C24.07748701171875,9.91314,24.25128701171875,10.147549999999999,24.36138701171875,10.4132C24.47158701171875,10.67885,24.51448701171875,10.96753,24.48648701171875,11.253730000000001C24.45848701171875,11.53992,24.36038701171875,11.81481,24.20088701171875,12.05407C24.04138701171875,12.29334,23.82538701171875,12.48961,23.57198701171875,12.62552C23.31878701171875,12.7613,23.03608701171875,12.83267,22.74878701171875,12.83331L2.33335701171875,12.83331C1.6890210117187499,12.83331,1.16668701171875,13.35565,1.16668701171875,14C1.16668701171875,14.6443,1.6890210117187499,15.1666,2.33335701171875,15.1666L22.75208701171875,15.1666C23.42308701171875,15.1654,24.08338701171875,14.9989,24.67478701171875,14.6818C25.26608701171875,14.3647,25.77008701171875,13.9067,26.14238701171875,13.34842C26.51448701171875,12.79013,26.74338701171875,12.14873,26.80878701171875,11.48095C26.87408701171875,10.81315,26.77388701171875,10.13955,26.51698701171875,9.51971C26.25998701171875,8.89987,25.85428701171875,8.3529,25.33558701171875,7.92717C24.81698701171875,7.50145,24.20148701171875,7.21008,23.54348701171875,7.07884C22.88548701171875,6.947620000000001,22.20518701171875,6.98055,21.56298701171875,7.1747700000000005C20.92068701171875,7.36897,20.33618701171875,7.71846,19.86108701171875,8.192309999999999C19.40498701171875,8.64735,19.40398701171875,9.386040000000001,19.85898701171875,9.842220000000001C20.31398701171875,10.29841,21.05278701171875,10.29935,21.50888701171875,9.84431C21.71248701171875,9.64124,21.96298701171875,9.49145,22.23828701171875,9.40822ZM17.98278701171875,17.9078C17.47408701171875,17.637999999999998,16.906787011718748,17.497999999999998,16.33098701171875,17.5L2.33335701171875,17.5C1.6890210117187499,17.5,1.16668701171875,18.0223,1.16668701171875,18.6667C1.16668701171875,19.311,1.6890210117187499,19.8333,2.33335701171875,19.8333L16.338287011718748,19.8333C16.530487011718748,19.8325,16.71988701171875,19.8792,16.889787011718752,19.9693C17.05948701171875,20.0593,17.20448701171875,20.1899,17.31158701171875,20.3495C17.41878701171875,20.5091,17.48488701171875,20.6926,17.50398701171875,20.8838C17.52308701171875,21.0751,17.49478701171875,21.2681,17.42128701171875,21.4458C17.34788701171875,21.6234,17.23168701171875,21.7802,17.08308701171875,21.9021C16.934387011718748,22.0239,16.75798701171875,22.1072,16.56938701171875,22.1445C16.380887011718748,22.1817,16.18598701171875,22.1719,16.00218701171875,22.1157C15.81838701171875,22.0596,15.65128701171875,21.9588,15.51578701171875,21.8225C15.06148701171875,21.3655,14.32288701171875,21.3633,13.86588701171875,21.8176C13.40888701171875,22.2718,13.40668701171875,23.0105,13.86098701171875,23.4675C14.26758701171875,23.8764,14.76878701171875,24.1786,15.32018701171875,24.3472C15.87168701171875,24.5156,16.45618701171875,24.5454,17.02188701171875,24.4335C17.58768701171875,24.3216,18.11698701171875,24.0718,18.56278701171875,23.7061C19.00868701171875,23.3405,19.35728701171875,22.8703,19.57748701171875,22.3374C19.79788701171875,21.8044,19.88318701171875,21.2254,19.82578701171875,20.6516C19.76838701171875,20.0779,19.57018701171875,19.5272,19.24858701171875,19.0485C18.92708701171875,18.5698,18.49228701171875,18.178,17.98278701171875,17.9078Z" fill-rule="evenodd" fill="#FFFFFF" fill-opacity="1"/></g></g></g></svg>