<svg xmlns="http://www.w3.org/2000/svg" xmlns:xlink="http://www.w3.org/1999/xlink" fill="none" version="1.1" width="28" height="28" viewBox="0 0 28 28"><clipPath id="master_svg0_43_201"><rect x="0" y="0" width="28" height="28" rx="0"/></clipPath><g clip-path="url(#master_svg0_43_201)" style="mix-blend-mode:passthrough"><g><g style="mix-blend-mode:passthrough"><path d="M6.17502098828125,20.175028247070312C5.71940998828125,20.630628247070312,5.71940998828125,21.369328247070314,6.17502098828125,21.82492824707031C6.63063298828125,22.28052824707031,7.36932298828125,22.28052824707031,7.82493298828125,21.82492824707031C7.82493298828125,21.82492824707031,6.17502098828125,20.175028247070312,6.17502098828125,20.175028247070312C6.17502098828125,20.175028247070312,6.17502098828125,20.175028247070312,6.17502098828125,20.175028247070312ZM21.82491298828125,7.824948247070313C22.28051298828125,7.369338247070313,22.28051298828125,6.6306482470703125,21.82491298828125,6.175037247070312C21.36931298828125,5.719425247070313,20.63061298828125,5.719425247070313,20.17501298828125,6.175037247070312C20.17501298828125,6.175037247070312,21.82491298828125,7.824948247070313,21.82491298828125,7.824948247070313C21.82491298828125,7.824948247070313,21.82491298828125,7.824948247070313,21.82491298828125,7.824948247070313ZM7.82493298828125,6.175036247070312C7.36932298828125,5.719425247070313,6.63063298828125,5.719425247070313,6.17502098828125,6.175036247070312C5.71940998828125,6.630647247070312,5.71940998828125,7.369338247070313,6.17502098828125,7.824948247070313C6.17502098828125,7.824948247070313,7.82493298828125,6.175036247070312,7.82493298828125,6.175036247070312C7.82493298828125,6.175036247070312,7.82493298828125,6.175036247070312,7.82493298828125,6.175036247070312ZM20.17501298828125,21.82492824707031C20.63061298828125,22.28052824707031,21.36931298828125,22.28052824707031,21.82491298828125,21.82492824707031C22.28051298828125,21.369328247070314,22.28051298828125,20.630628247070312,21.82491298828125,20.175028247070312C21.82491298828125,20.175028247070312,20.17501298828125,21.82492824707031,20.17501298828125,21.82492824707031C20.17501298828125,21.82492824707031,20.17501298828125,21.82492824707031,20.17501298828125,21.82492824707031ZM7.82493298828125,21.82492824707031C7.82493298828125,21.82492824707031,21.82491298828125,7.824948247070313,21.82491298828125,7.824948247070313C21.82491298828125,7.824948247070313,20.17501298828125,6.175037247070312,20.17501298828125,6.175037247070312C20.17501298828125,6.175037247070312,6.17502098828125,20.175028247070312,6.17502098828125,20.175028247070312C6.17502098828125,20.175028247070312,7.82493298828125,21.82492824707031,7.82493298828125,21.82492824707031C7.82493298828125,21.82492824707031,7.82493298828125,21.82492824707031,7.82493298828125,21.82492824707031ZM6.17502098828125,7.824948247070313C6.17502098828125,7.824948247070313,20.17501298828125,21.82492824707031,20.17501298828125,21.82492824707031C20.17501298828125,21.82492824707031,21.82491298828125,20.175028247070312,21.82491298828125,20.175028247070312C21.82491298828125,20.175028247070312,7.82493298828125,6.175036247070312,7.82493298828125,6.175036247070312C7.82493298828125,6.175036247070312,6.17502098828125,7.824948247070313,6.17502098828125,7.824948247070313C6.17502098828125,7.824948247070313,6.17502098828125,7.824948247070313,6.17502098828125,7.824948247070313Z" fill="#FFFFFF" fill-opacity="1"/></g></g></g></svg>