<svg xmlns="http://www.w3.org/2000/svg" xmlns:xlink="http://www.w3.org/1999/xlink" fill="none" version="1.1" width="28" height="28" viewBox="0 0 28 28"><clipPath id="master_svg0_43_199"><rect x="0" y="0" width="28" height="28" rx="0"/></clipPath><g clip-path="url(#master_svg0_43_199)" style="mix-blend-mode:passthrough"><g><g style="mix-blend-mode:passthrough"><path d="M6.65830701171875,14.3417C6.20269701171875,13.886099999999999,5.46400601171875,13.886099999999999,5.00839501171875,14.3417C4.55278401171875,14.79732,4.55278401171875,15.53601,5.00839501171875,15.99163C5.00839501171875,15.99163,6.65830701171875,14.3417,6.65830701171875,14.3417C6.65830701171875,14.3417,6.65830701171875,14.3417,6.65830701171875,14.3417ZM10.50001701171875,19.8333C10.50001701171875,19.8333,9.67505701171875,20.6583,9.67505701171875,20.6583C10.130677011718749,21.1139,10.86936701171875,21.1139,11.324977011718751,20.6583C11.324977011718751,20.6583,10.50001701171875,19.8333,10.50001701171875,19.8333C10.50001701171875,19.8333,10.50001701171875,19.8333,10.50001701171875,19.8333ZM22.99158701171875,8.99162C23.44718701171875,8.536010000000001,23.44718701171875,7.797319,22.99158701171875,7.341708C22.53608701171875,6.886097,21.79728701171875,6.886097,21.34178701171875,7.341708C21.34178701171875,7.341708,22.99158701171875,8.99162,22.99158701171875,8.99162C22.99158701171875,8.99162,22.99158701171875,8.99162,22.99158701171875,8.99162ZM5.00839501171875,15.99163C5.00839501171875,15.99163,9.67505701171875,20.6583,9.67505701171875,20.6583C9.67505701171875,20.6583,11.324977011718751,19.0084,11.324977011718751,19.0084C11.324977011718751,19.0084,6.65830701171875,14.3417,6.65830701171875,14.3417C6.65830701171875,14.3417,5.00839501171875,15.99163,5.00839501171875,15.99163C5.00839501171875,15.99163,5.00839501171875,15.99163,5.00839501171875,15.99163ZM11.324977011718751,20.6583C11.324977011718751,20.6583,22.99158701171875,8.99162,22.99158701171875,8.99162C22.99158701171875,8.99162,21.34178701171875,7.341708,21.34178701171875,7.341708C21.34178701171875,7.341708,9.67505701171875,19.0084,9.67505701171875,19.0084C9.67505701171875,19.0084,11.324977011718751,20.6583,11.324977011718751,20.6583C11.324977011718751,20.6583,11.324977011718751,20.6583,11.324977011718751,20.6583Z" fill="#FFFFFF" fill-opacity="1"/></g></g></g></svg>